<svg xmlns="http://www.w3.org/2000/svg" viewBox="0 0 129.39 129.39"><defs><style>.cls-1{fill:#00070f;}.cls-2{fill:#fff;}.cls-3{fill:#a239d3;}.cls-4{fill:#4f1f6b;}.cls-5{fill:#ffe000;}</style></defs><title>astra+</title><g id="Capa_2" data-name="Capa 2"><g id="Capa_1-2" data-name="Capa 1"><circle class="cls-1" cx="64.7" cy="64.7" r="64.7"/><circle class="cls-2" cx="92.64" cy="110.14" r="0.75"/><circle class="cls-2" cx="113.74" cy="93.89" r="3.18"/><circle class="cls-2" cx="120.07" cy="67.79" r="0.17"/><circle class="cls-2" cx="123.08" cy="44.23" r="2.83"/><circle class="cls-2" cx="101.73" cy="101.11" r="0.84"/><circle class="cls-2" cx="12.89" cy="47.06" r="0.84"/><circle class="cls-2" cx="14.1" cy="64.7" r="0.84"/><circle class="cls-2" cx="12.89" cy="90.71" r="0.84"/><circle class="cls-2" cx="98.23" cy="23.14" r="0.84"/><circle class="cls-2" cx="50.05" cy="116.76" r="4.73"/><circle class="cls-2" cx="66.74" cy="117.08" r="0.32"/><circle class="cls-2" cx="74.21" cy="117.4" r="0.32"/><circle class="cls-2" cx="85.89" cy="117.71" r="0.32"/><circle class="cls-2" cx="19.46" cy="88.37" r="0.32"/><circle class="cls-2" cx="91.58" cy="105.81" r="0.32"/><circle class="cls-2" cx="50.05" cy="17.96" r="0.32"/><circle class="cls-2" cx="36.69" cy="17.64" r="0.32"/><circle class="cls-2" cx="60.22" cy="4.83" r="0.32"/><circle class="cls-2" cx="74.52" cy="14.08" r="0.32"/><circle class="cls-2" cx="26.8" cy="28.64" r="0.32"/><circle class="cls-2" cx="7.28" cy="80.27" r="0.32"/><circle class="cls-2" cx="17.83" cy="77.97" r="0.32"/><circle class="cls-2" cx="6.96" cy="65.99" r="0.32"/><circle class="cls-2" cx="82.1" cy="108.41" r="0.98"/><path class="cls-3" d="M64.7,107.45a42.66,42.66,0,1,1,42.65-42.66A42.71,42.71,0,0,1,64.7,107.45Z"/><path class="cls-4" d="M64.7,25.27A39.52,39.52,0,1,1,25.18,64.79,39.57,39.57,0,0,1,64.7,25.27m0-6.26a45.79,45.79,0,1,0,45.78,45.78A45.79,45.79,0,0,0,64.7,19Z"/><path class="cls-2" d="M44,70.61l-.8-2.1H36.37l-.8,2.15a8.09,8.09,0,0,1-.8,1.7,1.31,1.31,0,0,1-1.09.44,1.6,1.6,0,0,1-1.13-.47,1.42,1.42,0,0,1-.49-1.06,2.23,2.23,0,0,1,.11-.71c.08-.25.2-.59.38-1l4.29-10.88c.12-.32.26-.69.44-1.13a5.82,5.82,0,0,1,.54-1.09,2.28,2.28,0,0,1,.77-.71,2.47,2.47,0,0,1,1.17-.26,2.52,2.52,0,0,1,1.19.26,2.22,2.22,0,0,1,.76.7,4.36,4.36,0,0,1,.49.9c.14.33.31.76.51,1.3l4.38,10.82a5.55,5.55,0,0,1,.52,1.79,1.5,1.5,0,0,1-.49,1.07,1.68,1.68,0,0,1-1.86.35,1.53,1.53,0,0,1-.48-.39,3.82,3.82,0,0,1-.42-.76C44.21,71.17,44.09,70.87,44,70.61ZM37.26,66h5L39.74,59Z"/><path class="cls-2" d="M58.76,68.72a3.61,3.61,0,0,1-2.49,3.6,8.22,8.22,0,0,1-3,.48,7.16,7.16,0,0,1-2.88-.52A4.19,4.19,0,0,1,48.63,71a2.61,2.61,0,0,1-.57-1.55,1.21,1.21,0,0,1,.36-.88,1.26,1.26,0,0,1,.93-.37,1.06,1.06,0,0,1,.75.24,2.56,2.56,0,0,1,.51.68,3,3,0,0,0,3,1.65,2.62,2.62,0,0,0,1.54-.41,1.18,1.18,0,0,0,.6-1,1.3,1.3,0,0,0-.62-1.2A7.85,7.85,0,0,0,53,67.48a15.62,15.62,0,0,1-2.62-.84,4.3,4.3,0,0,1-1.62-1.16,2.67,2.67,0,0,1-.6-1.77,3,3,0,0,1,.56-1.77,3.85,3.85,0,0,1,1.65-1.34A6.33,6.33,0,0,1,53,60.11a8.54,8.54,0,0,1,2.18.25,5.57,5.57,0,0,1,1.61.67,3.59,3.59,0,0,1,1,.94,1.86,1.86,0,0,1,.33,1,1.16,1.16,0,0,1-.36.88,1.41,1.41,0,0,1-1,.34,1.28,1.28,0,0,1-.82-.27,5.94,5.94,0,0,1-.77-.83,2.88,2.88,0,0,0-.83-.73A2.69,2.69,0,0,0,53,62.1a2.53,2.53,0,0,0-1.4.36,1,1,0,0,0-.56.89,1,1,0,0,0,.41.81,3.38,3.38,0,0,0,1.11.52c.46.14,1.1.31,1.92.5a10.2,10.2,0,0,1,2.37.85,3.88,3.88,0,0,1,1.39,1.16A2.55,2.55,0,0,1,58.76,68.72Z"/><path class="cls-2" d="M60.4,60.38h.34V58.51c0-.51,0-.9,0-1.19a1.65,1.65,0,0,1,.23-.73,1.3,1.3,0,0,1,.52-.52,1.45,1.45,0,0,1,.77-.2,1.52,1.52,0,0,1,1.07.44,1.31,1.31,0,0,1,.41.73,6.4,6.4,0,0,1,.08,1.22v2.12H65a1.46,1.46,0,0,1,1,.32,1,1,0,0,1,.35.8.9.9,0,0,1-.5.88,3.17,3.17,0,0,1-1.42.25h-.59v5.74a8,8,0,0,0,.06,1.13,1.1,1.1,0,0,0,.27.64,1,1,0,0,0,.73.25,4.34,4.34,0,0,0,.74-.1,3.52,3.52,0,0,1,.73-.1.94.94,0,0,1,.68.3,1.05,1.05,0,0,1,.3.75,1.25,1.25,0,0,1-.82,1.16,5.67,5.67,0,0,1-2.36.4A4.15,4.15,0,0,1,62,72.31,2.23,2.23,0,0,1,61,71a9.06,9.06,0,0,1-.24-2.32v-6h-.41a1.46,1.46,0,0,1-1-.32A1.05,1.05,0,0,1,59,61.5a1,1,0,0,1,.37-.8A1.64,1.64,0,0,1,60.4,60.38Z"/><path class="cls-2" d="M70.45,68.29V70.9A2,2,0,0,1,70,72.32a1.47,1.47,0,0,1-1.13.48,1.43,1.43,0,0,1-1.11-.48,2,2,0,0,1-.44-1.42V62.21q0-2.1,1.53-2.1A1.27,1.27,0,0,1,70,60.6a2.77,2.77,0,0,1,.37,1.45,5.68,5.68,0,0,1,1.15-1.45,2.36,2.36,0,0,1,1.57-.49A4,4,0,0,1,75,60.6a1.47,1.47,0,0,1,.93,1.3,1.32,1.32,0,0,1-1.25,1.32,4,4,0,0,1-.83-.21,3.85,3.85,0,0,0-1.16-.22,1.71,1.71,0,0,0-1.12.36,2.32,2.32,0,0,0-.67,1.07,7.55,7.55,0,0,0-.33,1.69C70.48,66.56,70.45,67.36,70.45,68.29Z"/><path class="cls-2" d="M83.74,71a10.44,10.44,0,0,1-2.19,1.32,6.21,6.21,0,0,1-2.37.44,4.44,4.44,0,0,1-2.11-.48,3.41,3.41,0,0,1-1.9-3A3.14,3.14,0,0,1,76,67.09a4.08,4.08,0,0,1,2.23-1.21l1.47-.31c.79-.16,1.46-.3,2-.44s1.17-.29,1.82-.48a3.24,3.24,0,0,0-.5-1.82,2.23,2.23,0,0,0-1.82-.57,3.83,3.83,0,0,0-1.79.33,2.94,2.94,0,0,0-1,1,10.39,10.39,0,0,1-.6.88,1,1,0,0,1-.76.21,1.3,1.3,0,0,1-.91-.34,1.08,1.08,0,0,1-.39-.86,2.64,2.64,0,0,1,.59-1.6,4.09,4.09,0,0,1,1.82-1.28,8,8,0,0,1,3.07-.51,8.83,8.83,0,0,1,3.24.49,3,3,0,0,1,1.66,1.54,6.78,6.78,0,0,1,.49,2.79c0,.73,0,1.35,0,1.86s0,1.08,0,1.71a6.44,6.44,0,0,0,.29,1.83,5.75,5.75,0,0,1,.3,1.23,1.12,1.12,0,0,1-.46.87,1.48,1.48,0,0,1-1,.4,1.38,1.38,0,0,1-1-.45A6.81,6.81,0,0,1,83.74,71Zm-.21-4.52a14.46,14.46,0,0,1-2,.53l-1.82.41a2.52,2.52,0,0,0-1,.52,1.32,1.32,0,0,0-.45,1.07,1.59,1.59,0,0,0,.53,1.2,2,2,0,0,0,1.41.5,3.65,3.65,0,0,0,1.71-.4,2.74,2.74,0,0,0,1.15-1A4.8,4.8,0,0,0,83.53,67Z"/><rect class="cls-5" x="91.74" y="45.3" width="2.6" height="14.22" rx="1.3" ry="1.3"/><rect class="cls-5" x="91.74" y="45.3" width="2.6" height="14.22" rx="1.3" ry="1.3" transform="translate(145.45 -40.63) rotate(90)"/></g></g></svg>