<svg xmlns="http://www.w3.org/2000/svg" viewBox="0 0 44.34 44.34"><defs><style>.cls-1{fill:#020e18;}.cls-2{fill:#fff;}.cls-3{fill:#a239d3;}.cls-4{fill:none;stroke:#4f1f6b;stroke-miterlimit:10;stroke-width:2.82px;}.cls-5{fill:#4f1f6b;}</style></defs><title>ractcoins</title><g id="Capa_2" data-name="Capa 2"><g id="Capa_1-2" data-name="Capa 1"><circle class="cls-1" cx="22.17" cy="22.17" r="22.17"/><circle class="cls-2" cx="36.2" cy="37.75" r="0.26"/><circle class="cls-2" cx="38.98" cy="32.18" r="1.09"/><circle class="cls-2" cx="41.15" cy="23.23" r="0.06"/><circle class="cls-2" cx="42.18" cy="15.16" r="0.97"/><circle class="cls-2" cx="34.86" cy="34.65" r="0.29"/><circle class="cls-2" cx="4.42" cy="16.13" r="0.29"/><circle class="cls-2" cx="4.83" cy="22.17" r="0.29"/><circle class="cls-2" cx="4.42" cy="31.09" r="0.29"/><circle class="cls-2" cx="33.66" cy="7.93" r="0.29"/><circle class="cls-2" cx="21.61" cy="40.01" r="1.62"/><circle class="cls-2" cx="27.33" cy="40.12" r="0.11"/><circle class="cls-2" cx="29.89" cy="40.23" r="0.11"/><circle class="cls-2" cx="33.89" cy="40.34" r="0.11"/><circle class="cls-2" cx="6.67" cy="30.28" r="0.11"/><circle class="cls-2" cx="35.84" cy="36.26" r="0.11"/><circle class="cls-2" cx="17.15" cy="1.11" r="0.11"/><circle class="cls-2" cx="9.18" cy="9.82" r="0.11"/><circle class="cls-2" cx="2.49" cy="27.51" r="0.11"/><circle class="cls-2" cx="6.11" cy="26.72" r="0.11"/><circle class="cls-2" cx="2.39" cy="22.62" r="0.11"/><circle class="cls-2" cx="32.59" cy="37.15" r="0.34"/><circle class="cls-2" cx="15.68" cy="14.14" r="0.75"/><circle class="cls-2" cx="26.49" cy="15.92" r="0.75"/><circle class="cls-2" cx="17.15" cy="20.35" r="0.32"/><circle class="cls-2" cx="10.32" cy="28.1" r="0.32"/><circle class="cls-2" cx="10.64" cy="20.31" r="0.32"/><circle class="cls-2" cx="28.94" cy="34.45" r="0.32"/><circle class="cls-2" cx="28.31" cy="26.14" r="0.32"/><circle class="cls-2" cx="19.8" cy="29.82" r="0.98"/><circle class="cls-3" cx="22.05" cy="21.88" r="15.65"/><circle class="cls-4" cx="22.05" cy="21.64" r="11.33"/><polyline class="cls-5" points="22.05 10.32 22.05 21.64 30.06 13.64"/><polyline class="cls-5" points="22.05 32.97 22.05 21.64 14.05 29.65"/><polyline class="cls-5" points="33.38 21.64 22.05 21.64 30.06 29.65"/><polyline class="cls-5" points="10.73 21.64 22.05 21.64 14.05 13.64"/></g></g></svg>