<svg xmlns="http://www.w3.org/2000/svg" viewBox="0 0 101.3 133.92"><defs><style>.cls-1{fill:#fff;}.cls-2{fill:#020e18;}.cls-3{fill:#fffdfd;}.cls-4{fill:#1fc93b;}.cls-5{fill:#239ac4;}.cls-6{fill:#fe3e00;}.cls-7{fill:#fdd734;}.cls-8{fill:#6d6247;}.cls-9{fill:#dbc691;}.cls-10{fill:#ad9d71;}</style></defs><title>consulta_de_progreso_1</title><g id="Capa_2" data-name="Capa 2"><g id="Capa_1-2" data-name="Capa 1"><circle class="cls-1" cx="49.14" cy="103.79" r="1.51"/><rect class="cls-2" x="15.52" y="1.23" width="28.99" height="28.99" rx="14.5" ry="14.5"/><path class="cls-3" d="M30,31.46A15.73,15.73,0,1,1,45.75,15.73,15.75,15.75,0,0,1,30,31.46Zm0-29A13.27,13.27,0,1,0,43.28,15.73,13.29,13.29,0,0,0,30,2.46Z"/><path class="cls-1" d="M52.67,10.86v8.85h4.06a1,1,0,0,1,.75.29,1.09,1.09,0,0,1,.26.73,1.05,1.05,0,0,1-.26.73,1,1,0,0,1-.75.28H51.9a1.12,1.12,0,0,1-.94-.36,1.85,1.85,0,0,1-.29-1.15V10.86A1.83,1.83,0,0,1,51,9.74a.83.83,0,0,1,.71-.37.86.86,0,0,1,.73.37A1.81,1.81,0,0,1,52.67,10.86Z"/><path class="cls-1" d="M60.23,14.14l1.49,5.15,1.6-5.37a3.79,3.79,0,0,1,.37-.92.62.62,0,0,1,.55-.27.74.74,0,0,1,.6.3,1,1,0,0,1,.25.67A1.55,1.55,0,0,1,65,14a3.49,3.49,0,0,1-.1.38l-.13.4L63,20.21l-.19.59a3.19,3.19,0,0,1-.26.61,1.14,1.14,0,0,1-.36.39.85.85,0,0,1-.51.14.88.88,0,0,1-.63-.22,1.32,1.32,0,0,1-.34-.48c-.08-.17-.2-.52-.38-1l-1.75-5.33-.12-.4a3.11,3.11,0,0,1-.11-.41,1.81,1.81,0,0,1,0-.36,1,1,0,0,1,.12-.46,1,1,0,0,1,.32-.37.7.7,0,0,1,.43-.15.64.64,0,0,1,.63.33A5.35,5.35,0,0,1,60.23,14.14Z"/><path class="cls-1" d="M66.59,21.94a.94.94,0,0,1-.72-.33,1.33,1.33,0,0,1-.3-.93,1.31,1.31,0,0,1,.29-.87.88.88,0,0,1,.71-.36.91.91,0,0,1,.72.36,1.31,1.31,0,0,1,.3.87,1.37,1.37,0,0,1-.3.93A.91.91,0,0,1,66.59,21.94Z"/><path class="cls-1" d="M76.09,20.6V13.05q-1.71,1.62-2.31,1.62a.62.62,0,0,1-.5-.28,1,1,0,0,1-.22-.64.81.81,0,0,1,.22-.63,4.81,4.81,0,0,1,.76-.51,5.68,5.68,0,0,0,1.3-1,6,6,0,0,0,.87-1.16c.25-.44.42-.7.49-.8a.52.52,0,0,1,.43-.15.66.66,0,0,1,.58.34,1.79,1.79,0,0,1,.21.94v9.5c0,1.11-.3,1.66-.92,1.66a.77.77,0,0,1-.66-.34A1.64,1.64,0,0,1,76.09,20.6Z"/><path class="cls-4" d="M17.65,12.69a12.4,12.4,0,0,0-.42,3.19h0A12.7,12.7,0,0,0,30,28.5h0A12.71,12.71,0,0,0,42.81,15.88h0a12.4,12.4,0,0,0-.43-3.19Z"/><rect class="cls-2" x="1.01" y="40.33" width="99.28" height="92.58" rx="13.28" ry="13.28"/><path class="cls-1" d="M87,133.92H14.29A14.31,14.31,0,0,1,0,119.63v-66A14.31,14.31,0,0,1,14.29,39.32H87A14.31,14.31,0,0,1,101.3,53.61v66A14.31,14.31,0,0,1,87,133.92ZM14.29,41.34A12.28,12.28,0,0,0,2,53.61v66A12.28,12.28,0,0,0,14.29,131.9H87a12.28,12.28,0,0,0,12.27-12.27v-66A12.28,12.28,0,0,0,87,41.34Z"/><path class="cls-1" d="M26.46,84.77v3.57h2a.53.53,0,0,1,.37.12.37.37,0,0,1,.13.29.37.37,0,0,1-.13.3.56.56,0,0,1-.37.11h-2.4a.66.66,0,0,1-.47-.14.65.65,0,0,1-.14-.47V84.77a.67.67,0,0,1,.13-.46.51.51,0,0,1,.72,0A.62.62,0,0,1,26.46,84.77Z"/><path class="cls-1" d="M32.12,87.61H30.33a1.35,1.35,0,0,0,.13.55.87.87,0,0,0,.32.36.89.89,0,0,0,.45.12,1.36,1.36,0,0,0,.3,0,1.23,1.23,0,0,0,.26-.12L32,88.3l.28-.25a.3.3,0,0,1,.2-.06.35.35,0,0,1,.23.07.33.33,0,0,1,.08.22.64.64,0,0,1-.09.29,1.27,1.27,0,0,1-.3.32,1.5,1.5,0,0,1-.49.25,2,2,0,0,1-.68.1,1.79,1.79,0,0,1-1.37-.5,1.85,1.85,0,0,1-.49-1.36,2.37,2.37,0,0,1,.12-.76,1.65,1.65,0,0,1,.35-.59,1.5,1.5,0,0,1,.57-.38,2,2,0,0,1,.75-.13,1.77,1.77,0,0,1,.92.22,1.49,1.49,0,0,1,.58.59,1.62,1.62,0,0,1,.19.73.47.47,0,0,1-.2.45A1.37,1.37,0,0,1,32.12,87.61Zm-1.79-.52H32a1.07,1.07,0,0,0-.25-.7.75.75,0,0,0-.58-.24.73.73,0,0,0-.56.24A1.22,1.22,0,0,0,30.33,87.09Z"/><path class="cls-1" d="M36.93,88.11a.79.79,0,0,1-.1.37,1.3,1.3,0,0,1-.31.37,1.77,1.77,0,0,1-.53.28,2.27,2.27,0,0,1-.72.11,1.74,1.74,0,0,1-1.32-.5,1.82,1.82,0,0,1-.48-1.32,2.14,2.14,0,0,1,.22-1,1.51,1.51,0,0,1,.63-.67,1.91,1.91,0,0,1,1-.23,2,2,0,0,1,.65.1,1.7,1.7,0,0,1,.5.27,1.31,1.31,0,0,1,.32.35.69.69,0,0,1,.1.35.34.34,0,0,1-.12.27.41.41,0,0,1-.3.12.28.28,0,0,1-.18-.06.83.83,0,0,1-.17-.19,1.31,1.31,0,0,0-.35-.38.85.85,0,0,0-1.12.19,1.33,1.33,0,0,0-.25.86,1.8,1.8,0,0,0,.06.48,1.43,1.43,0,0,0,.19.37.8.8,0,0,0,.29.23.92.92,0,0,0,.38.08.89.89,0,0,0,.47-.13,1.2,1.2,0,0,0,.34-.39,1.25,1.25,0,0,1,.18-.24.36.36,0,0,1,.24-.09.34.34,0,0,1,.28.13A.4.4,0,0,1,36.93,88.11Z"/><path class="cls-1" d="M41,88.11a.79.79,0,0,1-.1.37,1.3,1.3,0,0,1-.31.37,1.77,1.77,0,0,1-.53.28,2.27,2.27,0,0,1-.72.11,1.74,1.74,0,0,1-1.32-.5,1.82,1.82,0,0,1-.48-1.32,2.14,2.14,0,0,1,.22-1,1.63,1.63,0,0,1,.63-.67,1.91,1.91,0,0,1,1-.23,2,2,0,0,1,.65.1,1.7,1.7,0,0,1,.5.27,1.31,1.31,0,0,1,.32.35.69.69,0,0,1,.1.35.34.34,0,0,1-.12.27.41.41,0,0,1-.3.12.28.28,0,0,1-.18-.06.83.83,0,0,1-.17-.19,1.31,1.31,0,0,0-.35-.38.85.85,0,0,0-1.12.19,1.33,1.33,0,0,0-.25.86,1.8,1.8,0,0,0,.06.48,1.43,1.43,0,0,0,.19.37.8.8,0,0,0,.29.23.92.92,0,0,0,.38.08.89.89,0,0,0,.47-.13A1.2,1.2,0,0,0,40.2,88a1.25,1.25,0,0,1,.18-.24.36.36,0,0,1,.24-.09.34.34,0,0,1,.28.13A.4.4,0,0,1,41,88.11Z"/><path class="cls-1" d="M42.27,85.1A.45.45,0,0,1,42,85a.39.39,0,0,1-.14-.33.42.42,0,0,1,.14-.32.44.44,0,0,1,.32-.13.47.47,0,0,1,.32.12.39.39,0,0,1,.13.33.42.42,0,0,1-.13.33A.45.45,0,0,1,42.27,85.1Zm.45.94v2.65a.56.56,0,0,1-.13.41.39.39,0,0,1-.33.14.39.39,0,0,1-.32-.14.58.58,0,0,1-.13-.41V86.07a.56.56,0,0,1,.13-.41.42.42,0,0,1,.32-.14.42.42,0,0,1,.33.14A.52.52,0,0,1,42.72,86Z"/><path class="cls-1" d="M47.1,87.38a2.28,2.28,0,0,1-.13.76,1.69,1.69,0,0,1-.37.59,1.54,1.54,0,0,1-.58.38,2.23,2.23,0,0,1-1.5,0,1.73,1.73,0,0,1-.57-.38,1.59,1.59,0,0,1-.37-.59,2.06,2.06,0,0,1-.13-.76,2.09,2.09,0,0,1,.13-.76,1.77,1.77,0,0,1,.36-.59,1.6,1.6,0,0,1,.58-.37,2,2,0,0,1,.75-.14,2,2,0,0,1,.75.14,1.54,1.54,0,0,1,.58.38,1.64,1.64,0,0,1,.37.59A2.27,2.27,0,0,1,47.1,87.38Zm-.92,0a1.35,1.35,0,0,0-.25-.87.78.78,0,0,0-.66-.31.82.82,0,0,0-.47.14.84.84,0,0,0-.32.41,1.86,1.86,0,0,0,0,1.26.88.88,0,0,0,.31.41.8.8,0,0,0,.48.14.78.78,0,0,0,.66-.31A1.35,1.35,0,0,0,46.18,87.38Z"/><path class="cls-1" d="M48.65,86v.11a1.55,1.55,0,0,1,.53-.47,1.38,1.38,0,0,1,.65-.15,1.36,1.36,0,0,1,.65.16,1,1,0,0,1,.43.45.89.89,0,0,1,.11.36,3.28,3.28,0,0,1,0,.49v1.71a.61.61,0,0,1-.12.41.42.42,0,0,1-.33.14.39.39,0,0,1-.33-.14.58.58,0,0,1-.13-.41V87.16a1.44,1.44,0,0,0-.13-.69.51.51,0,0,0-.5-.24.71.71,0,0,0-.44.15.76.76,0,0,0-.3.4,3.13,3.13,0,0,0-.06.76v1.15a.61.61,0,0,1-.13.41.42.42,0,0,1-.34.14.39.39,0,0,1-.32-.14.58.58,0,0,1-.13-.41V86a.62.62,0,0,1,.11-.39.42.42,0,0,1,.31-.13.43.43,0,0,1,.38.23A.61.61,0,0,1,48.65,86Z"/><path class="cls-1" d="M54.52,87.61H52.73a1.2,1.2,0,0,0,.12.55.83.83,0,0,0,.33.36.84.84,0,0,0,.45.12,1.45,1.45,0,0,0,.3,0,1.51,1.51,0,0,0,.26-.12l.23-.18c.08-.06.17-.15.28-.25a.32.32,0,0,1,.2-.06.33.33,0,0,1,.23.07.29.29,0,0,1,.09.22.56.56,0,0,1-.1.29,1.07,1.07,0,0,1-.29.32,1.56,1.56,0,0,1-.5.25,2,2,0,0,1-.68.1,1.81,1.81,0,0,1-1.37-.5,1.89,1.89,0,0,1-.49-1.36,2.37,2.37,0,0,1,.12-.76,1.65,1.65,0,0,1,.35-.59,1.59,1.59,0,0,1,.57-.38,2,2,0,0,1,.75-.13,1.83,1.83,0,0,1,.93.22,1.53,1.53,0,0,1,.57.59,1.5,1.5,0,0,1,.19.73c0,.23-.06.38-.2.45A1.32,1.32,0,0,1,54.52,87.61Zm-1.79-.52h1.66a1.12,1.12,0,0,0-.26-.7.73.73,0,0,0-.57-.24.75.75,0,0,0-.57.24A1.21,1.21,0,0,0,52.73,87.09Z"/><path class="cls-1" d="M59,88.05a1,1,0,0,1-.73,1,2.29,2.29,0,0,1-.88.14,2.14,2.14,0,0,1-.84-.15,1.18,1.18,0,0,1-.52-.37.79.79,0,0,1-.17-.46A.38.38,0,0,1,56,88a.36.36,0,0,1,.27-.1.29.29,0,0,1,.22.07.79.79,0,0,1,.15.19,1,1,0,0,0,.34.37,1,1,0,0,0,.53.12.79.79,0,0,0,.45-.12.35.35,0,0,0,.18-.28.38.38,0,0,0-.18-.35,2,2,0,0,0-.61-.21,6.38,6.38,0,0,1-.77-.25,1.39,1.39,0,0,1-.47-.34.78.78,0,0,1-.18-.52.92.92,0,0,1,.17-.52,1.18,1.18,0,0,1,.48-.39,1.79,1.79,0,0,1,.77-.15,2.49,2.49,0,0,1,.64.08,1.59,1.59,0,0,1,.47.19,1,1,0,0,1,.29.28.51.51,0,0,1,.1.29.33.33,0,0,1-.1.26.4.4,0,0,1-.3.1.32.32,0,0,1-.24-.08,1.34,1.34,0,0,1-.23-.24.79.79,0,0,0-.24-.21.94.94,0,0,0-.8,0,.3.3,0,0,0-.16.26.29.29,0,0,0,.12.24,1.06,1.06,0,0,0,.32.15l.57.15a2.87,2.87,0,0,1,.69.25,1.18,1.18,0,0,1,.41.34A.77.77,0,0,1,59,88.05Z"/><path class="cls-1" d="M59.86,86a.47.47,0,0,1,.15-.37.57.57,0,0,1,.36-.13.5.5,0,0,1,.35.14.45.45,0,0,1,.15.36.47.47,0,0,1-.16.35.51.51,0,0,1-.35.16.48.48,0,0,1-.35-.16A.47.47,0,0,1,59.86,86Zm.51,3.22a.52.52,0,0,1-.36-.13.48.48,0,0,1-.15-.38.52.52,0,0,1,.14-.35.51.51,0,0,1,.87.35.49.49,0,0,1-.15.38A.51.51,0,0,1,60.37,89.24Z"/><path class="cls-1" d="M64.23,84.29h2.23a.87.87,0,0,1,.46.1.38.38,0,0,1,.15.34.76.76,0,0,1-.17.37l-.39.51a5.56,5.56,0,0,0-.44.69,4.9,4.9,0,0,0-.42,1c-.06.18-.09.32-.12.44s0,.27-.07.45,0,.33-.07.43a.94.94,0,0,1-.2.47.45.45,0,0,1-.34.13.39.39,0,0,1-.33-.14.57.57,0,0,1-.13-.42,2.57,2.57,0,0,1,.09-.58,6.65,6.65,0,0,1,.3-.89,10,10,0,0,1,.51-1A8.55,8.55,0,0,1,66,85.08H64.23a.74.74,0,0,1-.43-.1.38.38,0,0,1-.13-.32c0-.16,0-.26.14-.3A1.14,1.14,0,0,1,64.23,84.29Z"/><circle class="cls-2" cx="16.68" cy="86.18" r="4.04"/><path class="cls-5" d="M16.68,90.38a4.2,4.2,0,1,1,4.2-4.2A4.21,4.21,0,0,1,16.68,90.38Zm0-8.09a3.89,3.89,0,1,0,3.88,3.89A3.89,3.89,0,0,0,16.68,82.29Z"/><rect class="cls-2" x="12.63" y="89.73" width="8.09" height="1.41" rx="0.7" ry="0.7"/><path class="cls-5" d="M20,91.3H13.34a.87.87,0,1,1,0-1.73H20a.87.87,0,0,1,0,1.73Zm-6.68-1.41a.55.55,0,0,0-.55.55.55.55,0,0,0,.55.54H20a.54.54,0,0,0,.54-.54.55.55,0,0,0-.54-.55Z"/><circle class="cls-2" cx="19.59" cy="83.55" r="1.53"/><circle class="cls-4" cx="19.59" cy="83.55" r="1.26"/><path class="cls-1" d="M19.33,84.28h0a.14.14,0,0,1-.12-.06l-.34-.38a.16.16,0,1,1,.24-.21l.22.25.75-.85a.16.16,0,0,1,.22,0,.15.15,0,0,1,0,.22l-.86,1A.16.16,0,0,1,19.33,84.28Z"/><path class="cls-1" d="M26.1,66.24h1.3a3.15,3.15,0,0,1,.87.1,1.63,1.63,0,0,1,.66.35,2.49,2.49,0,0,1,.76,2,4,4,0,0,1-.07.8,2.15,2.15,0,0,1-.24.66,2.35,2.35,0,0,1-.41.53,1.72,1.72,0,0,1-.44.28,1.94,1.94,0,0,1-.5.15,3.67,3.67,0,0,1-.61,0h-1.3a.9.9,0,0,1-.41-.08.37.37,0,0,1-.17-.24,1.3,1.3,0,0,1-.05-.38V66.85a.53.53,0,0,1,.61-.61Zm.39.79v3.34h.75l.39,0a1.5,1.5,0,0,0,.29-.06.92.92,0,0,0,.27-.16,1.81,1.81,0,0,0,.49-1.45,2.12,2.12,0,0,0-.22-1.09,1,1,0,0,0-.54-.46,2.48,2.48,0,0,0-.77-.1Z"/><path class="cls-1" d="M31.26,66.21h.45c.12,0,.18,0,.18.05a1.44,1.44,0,0,1-.19.21l-.38.37a1.22,1.22,0,0,1-.27.21.79.79,0,0,1-.4.1q-.15,0-.15-.09a.48.48,0,0,1,.09-.19l.15-.29a1,1,0,0,1,.23-.31A.55.55,0,0,1,31.26,66.21ZM31.42,68v2.64a.57.57,0,0,1-.13.42.45.45,0,0,1-.33.14.42.42,0,0,1-.33-.14.66.66,0,0,1-.13-.42V68.07a.61.61,0,0,1,.13-.41.42.42,0,0,1,.33-.14.45.45,0,0,1,.33.14A.52.52,0,0,1,31.42,68Z"/><path class="cls-1" d="M34.68,70.72a2.5,2.5,0,0,1-.64.39,1.75,1.75,0,0,1-.7.13,1.38,1.38,0,0,1-.62-.14,1,1,0,0,1-.55-.89.93.93,0,0,1,.24-.64,1.12,1.12,0,0,1,.65-.36l.43-.09c.23,0,.43-.09.59-.13s.35-.08.54-.14a.9.9,0,0,0-.15-.53.64.64,0,0,0-.53-.17,1.09,1.09,0,0,0-.53.1.91.91,0,0,0-.3.29,2.52,2.52,0,0,1-.18.26.29.29,0,0,1-.22.06.45.45,0,0,1-.27-.1.34.34,0,0,1-.11-.25A.78.78,0,0,1,32.5,68a1.19,1.19,0,0,1,.54-.38,2.35,2.35,0,0,1,.9-.15,2.45,2.45,0,0,1,1,.15.82.82,0,0,1,.48.45,1.83,1.83,0,0,1,.15.81c0,.22,0,.4,0,.55V70a2.14,2.14,0,0,0,.08.54,1.72,1.72,0,0,1,.09.36.35.35,0,0,1-.13.26.48.48,0,0,1-.3.11.38.38,0,0,1-.28-.13A2,2,0,0,1,34.68,70.72Zm-.06-1.32a5.61,5.61,0,0,1-.59.16l-.53.12a.59.59,0,0,0-.28.15.37.37,0,0,0-.13.31.49.49,0,0,0,.15.36.64.64,0,0,0,.42.14,1.08,1.08,0,0,0,.5-.12.77.77,0,0,0,.33-.31,1.27,1.27,0,0,0,.13-.68Z"/><path class="cls-1" d="M39.39,70a1.13,1.13,0,0,1-.18.65,1.16,1.16,0,0,1-.55.41,2.48,2.48,0,0,1-.87.14,2.19,2.19,0,0,1-.85-.15,1.26,1.26,0,0,1-.52-.38.77.77,0,0,1-.17-.45.36.36,0,0,1,.11-.26.37.37,0,0,1,.27-.11.34.34,0,0,1,.22.07.62.62,0,0,1,.15.2,1,1,0,0,0,.34.37,1,1,0,0,0,.53.12.75.75,0,0,0,.45-.12.36.36,0,0,0,.18-.28.39.39,0,0,0-.18-.36,2.48,2.48,0,0,0-.6-.21,5.54,5.54,0,0,1-.77-.24,1.34,1.34,0,0,1-.48-.34.78.78,0,0,1-.18-.52.9.9,0,0,1,.17-.52,1,1,0,0,1,.48-.39,1.84,1.84,0,0,1,.78-.15,2.43,2.43,0,0,1,.63.07,1.78,1.78,0,0,1,.48.2,1.11,1.11,0,0,1,.29.28.57.57,0,0,1,.09.29.34.34,0,0,1-.1.26.4.4,0,0,1-.3.1.36.36,0,0,1-.24-.08,1.34,1.34,0,0,1-.23-.24,1,1,0,0,0-.24-.22.82.82,0,0,0-.38-.08.77.77,0,0,0-.42.11.3.3,0,0,0-.16.26.29.29,0,0,0,.12.24,1.06,1.06,0,0,0,.32.15l.57.15a2.87,2.87,0,0,1,.69.25,1.08,1.08,0,0,1,.41.34A.7.7,0,0,1,39.39,70Z"/><path class="cls-1" d="M45.17,70.11a.78.78,0,0,1-.11.36,1.18,1.18,0,0,1-.31.37,1.58,1.58,0,0,1-.53.29,2.28,2.28,0,0,1-.72.1,1.75,1.75,0,0,1-1.32-.49,1.82,1.82,0,0,1-.47-1.33,2.25,2.25,0,0,1,.21-1,1.63,1.63,0,0,1,.63-.67,2,2,0,0,1,1-.24,1.93,1.93,0,0,1,.65.11,1.58,1.58,0,0,1,.5.27,1.16,1.16,0,0,1,.32.35.71.71,0,0,1,.11.34.36.36,0,0,1-.12.28.43.43,0,0,1-.3.11.29.29,0,0,1-.19,0,1.12,1.12,0,0,1-.17-.19,1.51,1.51,0,0,0-.35-.39.83.83,0,0,0-.46-.12.79.79,0,0,0-.66.31,1.43,1.43,0,0,0-.25.87,1.51,1.51,0,0,0,.07.48,1,1,0,0,0,.18.36.71.71,0,0,0,.29.23.81.81,0,0,0,.38.08.89.89,0,0,0,.47-.12,1.22,1.22,0,0,0,.35-.39.58.58,0,0,1,.18-.24.35.35,0,0,1,.51,0A.37.37,0,0,1,45.17,70.11Z"/><path class="cls-1" d="M49.39,69.38a2,2,0,0,1-.13.75,1.6,1.6,0,0,1-.37.6,1.73,1.73,0,0,1-.57.38,2.26,2.26,0,0,1-1.51,0,1.61,1.61,0,0,1-.57-.39,1.56,1.56,0,0,1-.37-.59,2.19,2.19,0,0,1-.12-.75,2.29,2.29,0,0,1,.12-.76,1.69,1.69,0,0,1,.37-.59,1.73,1.73,0,0,1,.57-.38,2.26,2.26,0,0,1,1.51,0,1.65,1.65,0,0,1,.58.39,1.54,1.54,0,0,1,.36.59A2,2,0,0,1,49.39,69.38Zm-.92,0a1.35,1.35,0,0,0-.25-.87.78.78,0,0,0-.66-.31.77.77,0,0,0-.47.14.9.9,0,0,0-.32.41,1.86,1.86,0,0,0,0,1.26.93.93,0,0,0,.31.41.87.87,0,0,0,.48.14.78.78,0,0,0,.66-.31A1.35,1.35,0,0,0,48.47,69.38Z"/><path class="cls-1" d="M50.94,68v.11a1.54,1.54,0,0,1,.53-.47,1.4,1.4,0,0,1,.66-.15,1.24,1.24,0,0,1,.64.16,1,1,0,0,1,.43.44,1.23,1.23,0,0,1,.12.37c0,.13,0,.29,0,.49v1.7a.62.62,0,0,1-.12.42.46.46,0,0,1-.66,0,.6.6,0,0,1-.13-.42V69.16a1.58,1.58,0,0,0-.12-.69.52.52,0,0,0-.5-.24.77.77,0,0,0-.45.14.94.94,0,0,0-.3.4,3.29,3.29,0,0,0-.06.77v1.14a.57.57,0,0,1-.13.42.45.45,0,0,1-.33.14.42.42,0,0,1-.33-.14.66.66,0,0,1-.13-.42V68a.57.57,0,0,1,.12-.39.37.37,0,0,1,.31-.13.43.43,0,0,1,.22.06.42.42,0,0,1,.15.17A.58.58,0,0,1,50.94,68Z"/><path class="cls-1" d="M54.31,67.6h.1v-.55a3.44,3.44,0,0,1,0-.35.65.65,0,0,1,.06-.21.41.41,0,0,1,.16-.16.54.54,0,0,1,.22,0,.45.45,0,0,1,.32.13.4.4,0,0,1,.12.21,2.93,2.93,0,0,1,0,.36v.62h.34a.4.4,0,0,1,.29.09.3.3,0,0,1,.11.24.27.27,0,0,1-.15.26,1,1,0,0,1-.42.07h-.17v1.68a2.38,2.38,0,0,0,0,.33.3.3,0,0,0,.08.19.25.25,0,0,0,.21.07l.22,0,.21,0a.27.27,0,0,1,.2.09.29.29,0,0,1,.09.22.36.36,0,0,1-.24.33,1.58,1.58,0,0,1-.69.12,1.23,1.23,0,0,1-.65-.14.65.65,0,0,1-.29-.4,2.53,2.53,0,0,1-.07-.68V68.26h-.12a.46.46,0,0,1-.31-.09.35.35,0,0,1-.1-.24.3.3,0,0,1,.11-.24A.49.49,0,0,1,54.31,67.6Z"/><path class="cls-1" d="M57.15,67.09a.47.47,0,0,1-.33-.11.42.42,0,0,1-.13-.33.39.39,0,0,1,.14-.32.44.44,0,0,1,.32-.13.49.49,0,0,1,.31.11.4.4,0,0,1,.14.34.42.42,0,0,1-.13.33A.52.52,0,0,1,57.15,67.09Zm.45,1v2.64a.57.57,0,0,1-.13.42.45.45,0,0,1-.33.14.44.44,0,0,1-.33-.14.66.66,0,0,1-.12-.42V68.07a.61.61,0,0,1,.12-.41.44.44,0,0,1,.33-.14.45.45,0,0,1,.33.14A.52.52,0,0,1,57.6,68Z"/><path class="cls-1" d="M59.38,68v.11a1.46,1.46,0,0,1,.53-.47,1.38,1.38,0,0,1,.65-.15,1.25,1.25,0,0,1,.65.16,1,1,0,0,1,.43.44,1,1,0,0,1,.11.37,3.28,3.28,0,0,1,0,.49v1.7a.62.62,0,0,1-.12.42.45.45,0,0,1-.33.14A.42.42,0,0,1,61,71.1a.6.6,0,0,1-.13-.42V69.16a1.44,1.44,0,0,0-.13-.69.51.51,0,0,0-.5-.24.77.77,0,0,0-.44.14.81.81,0,0,0-.3.4,3.29,3.29,0,0,0-.06.77v1.14a.62.62,0,0,1-.13.42.46.46,0,0,1-.34.14.42.42,0,0,1-.32-.14.6.6,0,0,1-.13-.42V68a.62.62,0,0,1,.11-.39.39.39,0,0,1,.32-.13.37.37,0,0,1,.21.06.38.38,0,0,1,.16.17A.58.58,0,0,1,59.38,68Z"/><path class="cls-1" d="M65,70.72v-.11a2.31,2.31,0,0,1-.35.35,1.47,1.47,0,0,1-.39.21,1.83,1.83,0,0,1-.49.06,1.32,1.32,0,0,1-.6-.13,1,1,0,0,1-.4-.38,1.65,1.65,0,0,1-.17-.84V68.07a.59.59,0,0,1,.12-.41.46.46,0,0,1,.66,0,.56.56,0,0,1,.13.41v1.46a2.76,2.76,0,0,0,0,.54.62.62,0,0,0,.2.33.51.51,0,0,0,.37.13.79.79,0,0,0,.44-.14.75.75,0,0,0,.3-.36,2.88,2.88,0,0,0,.08-.85V68.07a.61.61,0,0,1,.12-.41.45.45,0,0,1,.33-.14.42.42,0,0,1,.33.14.55.55,0,0,1,.13.41v2.65a.57.57,0,0,1-.12.39.39.39,0,0,1-.31.13.4.4,0,0,1-.31-.13A.59.59,0,0,1,65,70.72Z"/><path class="cls-1" d="M70.17,69.38a2.27,2.27,0,0,1-.12.75,1.74,1.74,0,0,1-.37.6,1.67,1.67,0,0,1-.58.38,2.23,2.23,0,0,1-1.5,0,1.61,1.61,0,0,1-.57-.39,1.45,1.45,0,0,1-.37-.59,2,2,0,0,1-.13-.75,2.06,2.06,0,0,1,.13-.76A1.67,1.67,0,0,1,67,68a1.77,1.77,0,0,1,.58-.38,2,2,0,0,1,.75-.13,2,2,0,0,1,.75.13,1.68,1.68,0,0,1,1,1A2.23,2.23,0,0,1,70.17,69.38Zm-.91,0a1.41,1.41,0,0,0-.25-.87.78.78,0,0,0-.66-.31.75.75,0,0,0-.47.14.84.84,0,0,0-.32.41,1.86,1.86,0,0,0,0,1.26.93.93,0,0,0,.31.41.87.87,0,0,0,.48.14.78.78,0,0,0,.66-.31A1.41,1.41,0,0,0,69.26,69.38Z"/><path class="cls-1" d="M73.84,70a1.13,1.13,0,0,1-.18.65,1.12,1.12,0,0,1-.55.41,2.48,2.48,0,0,1-.87.14,2.19,2.19,0,0,1-.85-.15,1.26,1.26,0,0,1-.52-.38.77.77,0,0,1-.17-.45.36.36,0,0,1,.11-.26.37.37,0,0,1,.27-.11.34.34,0,0,1,.22.07.62.62,0,0,1,.15.2,1,1,0,0,0,.34.37,1,1,0,0,0,.53.12.75.75,0,0,0,.45-.12.36.36,0,0,0,.18-.28.39.39,0,0,0-.18-.36,2.48,2.48,0,0,0-.6-.21,5.54,5.54,0,0,1-.77-.24,1.34,1.34,0,0,1-.48-.34.78.78,0,0,1-.17-.52.89.89,0,0,1,.16-.52,1,1,0,0,1,.48-.39,1.84,1.84,0,0,1,.78-.15,2.43,2.43,0,0,1,.63.07,1.78,1.78,0,0,1,.48.2,1.11,1.11,0,0,1,.29.28.57.57,0,0,1,.09.29.34.34,0,0,1-.1.26.4.4,0,0,1-.3.1.38.38,0,0,1-.24-.08,1.34,1.34,0,0,1-.23-.24,1,1,0,0,0-.24-.22.82.82,0,0,0-.38-.08.77.77,0,0,0-.42.11.3.3,0,0,0-.16.26.29.29,0,0,0,.12.24,1,1,0,0,0,.33.15l.56.15a2.87,2.87,0,0,1,.69.25,1.08,1.08,0,0,1,.41.34A.7.7,0,0,1,73.84,70Z"/><path class="cls-1" d="M74.71,68a.47.47,0,0,1,.15-.37.56.56,0,0,1,.72,0,.5.5,0,0,1,.14.37.49.49,0,0,1-.16.35.5.5,0,0,1-.35.15.51.51,0,0,1-.5-.5Zm.51,3.22a.52.52,0,0,1-.36-.13.49.49,0,0,1-.15-.38.47.47,0,0,1,.15-.35.45.45,0,0,1,.35-.15.49.49,0,0,1,.36.15.45.45,0,0,1,.15.35.5.5,0,0,1-.15.38A.49.49,0,0,1,75.22,71.24Z"/><path class="cls-1" d="M79.08,66.29h2.23a.82.82,0,0,1,.47.1.39.39,0,0,1,.14.33.69.69,0,0,1-.17.37l-.38.52a4.13,4.13,0,0,0-.45.69,6.3,6.3,0,0,0-.42,1,4,4,0,0,0-.11.44c0,.11,0,.26-.08.45a4,4,0,0,1-.07.42,1,1,0,0,1-.2.48.44.44,0,0,1-.34.13.42.42,0,0,1-.33-.14.66.66,0,0,1-.12-.42,2.73,2.73,0,0,1,.09-.59,8.07,8.07,0,0,1,.29-.88,10,10,0,0,1,.51-1,8.92,8.92,0,0,1,.73-1.08H79.08a.76.76,0,0,1-.42-.1.36.36,0,0,1-.14-.32q0-.24.15-.3A.89.89,0,0,1,79.08,66.29Z"/><path class="cls-6" d="M14.08,65.62a1.2,1.2,0,0,1,.76.62c.36.58.87.69,1.07-.31s.43-1.83-.58-2.81a2.25,2.25,0,0,1,2,1.32,6.77,6.77,0,0,1,.2,1.49c0,.6.61.36.88-.07a1.77,1.77,0,0,0,0-1.22,2,2,0,0,1,.8,1,11.8,11.8,0,0,1,0,2.1A2.83,2.83,0,0,1,20,70.17,3,3,0,0,1,17,72.85c-1.21,0-3.18-.06-3.65-2.77a4.24,4.24,0,0,1,.52-2.39A2.56,2.56,0,0,0,14.08,65.62Z"/><path class="cls-7" d="M16.54,67.25a1.11,1.11,0,0,1,.28,1.34c-.39.81-.6,1.31.14,1.43s.57-.5.5-.86a1.5,1.5,0,0,1,.89,1.7c-.22.86-.61,1.5-1.55,1.4s-1.44-.46-1.54-1.87c.1-1.24,1.24-2.08,1.28-2.52A3.07,3.07,0,0,0,16.54,67.25Z"/><path class="cls-1" d="M28.43,124.93l-.78-3.13v3.39a.57.57,0,0,1-.13.42.46.46,0,0,1-.66,0,.57.57,0,0,1-.13-.42V121.3a.48.48,0,0,1,.17-.43.75.75,0,0,1,.45-.11h.31a1,1,0,0,1,.4,0,.31.31,0,0,1,.19.18,2.5,2.5,0,0,1,.14.42l.71,2.69.72-2.69A2.71,2.71,0,0,1,30,121a.33.33,0,0,1,.19-.18,1,1,0,0,1,.4,0h.31a.75.75,0,0,1,.45.11.46.46,0,0,1,.17.43v3.89a.62.62,0,0,1-.12.42.42.42,0,0,1-.34.14.42.42,0,0,1-.33-.14.62.62,0,0,1-.12-.42V121.8l-.79,3.13a3.93,3.93,0,0,1-.13.45.61.61,0,0,1-.18.26.53.53,0,0,1-.36.11.54.54,0,0,1-.29-.07.57.57,0,0,1-.19-.19,1.19,1.19,0,0,1-.11-.26C28.49,125.13,28.46,125,28.43,124.93Z"/><path class="cls-1" d="M34.74,125.24a3,3,0,0,1-.64.39,1.92,1.92,0,0,1-.69.12,1.23,1.23,0,0,1-.62-.14.93.93,0,0,1-.41-.37,1,1,0,0,1-.15-.52.93.93,0,0,1,.24-.64,1.17,1.17,0,0,1,.66-.35l.43-.1.59-.12.53-.15a1,1,0,0,0-.14-.53.68.68,0,0,0-.54-.17,1.17,1.17,0,0,0-.52.1.83.83,0,0,0-.3.29l-.18.26a.3.3,0,0,1-.22.06.36.36,0,0,1-.27-.1.3.3,0,0,1-.11-.25.74.74,0,0,1,.17-.47,1.23,1.23,0,0,1,.53-.38A2.58,2.58,0,0,1,34,122a2.44,2.44,0,0,1,1,.14.87.87,0,0,1,.49.45,2.09,2.09,0,0,1,.14.82v1a1.73,1.73,0,0,0,.08.54,1.72,1.72,0,0,1,.09.36.34.34,0,0,1-.14.26.44.44,0,0,1-.3.11.38.38,0,0,1-.27-.13A1.86,1.86,0,0,1,34.74,125.24Zm-.06-1.33a5.3,5.3,0,0,1-.58.16l-.53.12a.85.85,0,0,0-.28.15.4.4,0,0,0-.14.31.46.46,0,0,0,.16.36.55.55,0,0,0,.41.14,1.18,1.18,0,0,0,.5-.11.8.8,0,0,0,.34-.31,1.47,1.47,0,0,0,.12-.69Zm-.55-3.19h.46c.11,0,.17,0,.17,0a1.23,1.23,0,0,1-.19.22c-.13.12-.25.25-.38.36a1.6,1.6,0,0,1-.26.21.86.86,0,0,1-.41.1c-.1,0-.15,0-.15-.08a.45.45,0,0,1,.09-.2l.15-.28a.78.78,0,0,1,.23-.31A.46.46,0,0,1,34.13,120.72Z"/><path class="cls-1" d="M39.46,124.56a1.08,1.08,0,0,1-.19.65,1.07,1.07,0,0,1-.54.4,2.29,2.29,0,0,1-.88.14,2.1,2.1,0,0,1-.84-.15,1.18,1.18,0,0,1-.52-.37.79.79,0,0,1-.17-.46.36.36,0,0,1,.38-.36.31.31,0,0,1,.22.07.79.79,0,0,1,.15.19.93.93,0,0,0,.33.37,1.05,1.05,0,0,0,.54.12.79.79,0,0,0,.45-.12.35.35,0,0,0,.18-.28.38.38,0,0,0-.19-.35,1.84,1.84,0,0,0-.6-.21A6.38,6.38,0,0,1,37,124a1.3,1.3,0,0,1-.47-.34.78.78,0,0,1-.18-.52,1,1,0,0,1,.16-.52,1.15,1.15,0,0,1,.49-.39,1.79,1.79,0,0,1,.77-.15,2.49,2.49,0,0,1,.64.08,1.59,1.59,0,0,1,.47.19,1,1,0,0,1,.29.28.51.51,0,0,1,.1.29.33.33,0,0,1-.11.26.4.4,0,0,1-.3.1.35.35,0,0,1-.24-.08,1.35,1.35,0,0,1-.22-.24.72.72,0,0,0-.25-.21.69.69,0,0,0-.38-.08.76.76,0,0,0-.41.1.3.3,0,0,0-.16.26.29.29,0,0,0,.12.24,1,1,0,0,0,.32.15l.56.15a2.81,2.81,0,0,1,.7.25,1.18,1.18,0,0,1,.41.34A.77.77,0,0,1,39.46,124.56Z"/><path class="cls-1" d="M26.39,103.3l1.12,3.3,1.11-3.32c.06-.17.1-.3.13-.36a.53.53,0,0,1,.15-.19.43.43,0,0,1,.27-.08.48.48,0,0,1,.24.06.55.55,0,0,1,.17.17.42.42,0,0,1,.06.21.44.44,0,0,1,0,.16.84.84,0,0,1-.05.17l-.06.17-1.19,3.21a2.84,2.84,0,0,1-.13.35,1.57,1.57,0,0,1-.14.29.58.58,0,0,1-.23.21.68.68,0,0,1-.34.08.62.62,0,0,1-.56-.29,1.13,1.13,0,0,1-.15-.29c0-.11-.09-.22-.13-.35l-1.17-3.18-.06-.17a1.21,1.21,0,0,1-.05-.18.61.61,0,0,1,0-.17.44.44,0,0,1,.14-.31.48.48,0,0,1,.35-.14.39.39,0,0,1,.36.16A2,2,0,0,1,26.39,103.3Z"/><path class="cls-1" d="M33.41,105.87a2.13,2.13,0,0,1-.13.76,1.52,1.52,0,0,1-.37.59,1.73,1.73,0,0,1-.57.38,2.06,2.06,0,0,1-.76.13,2,2,0,0,1-.74-.13,1.56,1.56,0,0,1-.58-.39,1.69,1.69,0,0,1-.37-.59,2.19,2.19,0,0,1-.12-.75,2.29,2.29,0,0,1,.12-.76,1.69,1.69,0,0,1,.37-.59,1.67,1.67,0,0,1,.58-.38,2,2,0,0,1,.74-.13,2.06,2.06,0,0,1,.76.13,1.65,1.65,0,0,1,.58.39,1.54,1.54,0,0,1,.36.59A2,2,0,0,1,33.41,105.87Zm-.92,0a1.41,1.41,0,0,0-.24-.87.81.81,0,0,0-.67-.31.77.77,0,0,0-.47.14.82.82,0,0,0-.31.41,1.54,1.54,0,0,0-.12.63,1.73,1.73,0,0,0,.11.63,1,1,0,0,0,.32.41.87.87,0,0,0,1.14-.17A1.41,1.41,0,0,0,32.49,105.87Z"/><path class="cls-1" d="M37.41,106.6a.76.76,0,0,1-.1.36,1.18,1.18,0,0,1-.31.37,1.58,1.58,0,0,1-.53.29,2.28,2.28,0,0,1-.72.1,1.75,1.75,0,0,1-1.32-.49A1.82,1.82,0,0,1,34,105.9a2.25,2.25,0,0,1,.22-1,1.63,1.63,0,0,1,.63-.67,1.94,1.94,0,0,1,1-.24,2,2,0,0,1,.65.11,1.7,1.7,0,0,1,.5.27,1.31,1.31,0,0,1,.32.35.71.71,0,0,1,.11.34.34.34,0,0,1-.13.28.39.39,0,0,1-.29.11.29.29,0,0,1-.19,0,1.12,1.12,0,0,1-.17-.19,1.51,1.51,0,0,0-.35-.39.84.84,0,0,0-.47-.12.79.79,0,0,0-.65.31,1.36,1.36,0,0,0-.25.87,1.51,1.51,0,0,0,.07.48,1,1,0,0,0,.18.36.71.71,0,0,0,.29.23.81.81,0,0,0,.38.08.89.89,0,0,0,.47-.12,1.2,1.2,0,0,0,.34-.39.69.69,0,0,1,.19-.24.32.32,0,0,1,.23-.09.33.33,0,0,1,.28.13A.36.36,0,0,1,37.41,106.6Z"/><path class="cls-1" d="M40.52,107.21a2.34,2.34,0,0,1-.64.39,1.73,1.73,0,0,1-.69.13,1.35,1.35,0,0,1-.62-.14,1,1,0,0,1-.41-.38,1,1,0,0,1,.09-1.15,1.19,1.19,0,0,1,.66-.36l.43-.09c.23,0,.42-.09.59-.13l.53-.14a1,1,0,0,0-.14-.53.68.68,0,0,0-.54-.17,1,1,0,0,0-.52.1.76.76,0,0,0-.3.29l-.18.26a.3.3,0,0,1-.22.06.41.41,0,0,1-.27-.1.31.31,0,0,1-.11-.25.72.72,0,0,1,.17-.47,1.23,1.23,0,0,1,.53-.38,2.35,2.35,0,0,1,.9-.15,2.42,2.42,0,0,1,.95.15.84.84,0,0,1,.49.45,2.05,2.05,0,0,1,.14.82v1a1.77,1.77,0,0,0,.08.54,1.72,1.72,0,0,1,.09.36.36.36,0,0,1-.14.26.44.44,0,0,1-.3.11.38.38,0,0,1-.27-.13A2,2,0,0,1,40.52,107.21Zm-.06-1.32a5.3,5.3,0,0,1-.58.16l-.53.12a.59.59,0,0,0-.28.15.38.38,0,0,0-.14.31.46.46,0,0,0,.16.36.6.6,0,0,0,.41.14A1.06,1.06,0,0,0,40,107a.78.78,0,0,0,.34-.3,1.47,1.47,0,0,0,.12-.69Z"/><path class="cls-1" d="M43,103.17v1.4a2.11,2.11,0,0,1,.53-.41,1.36,1.36,0,0,1,.67-.14,1.46,1.46,0,0,1,.79.21,1.52,1.52,0,0,1,.54.63,2.4,2.4,0,0,1,.19,1,2.65,2.65,0,0,1-.11.77,1.71,1.71,0,0,1-.31.6,1.29,1.29,0,0,1-.48.39,1.47,1.47,0,0,1-.64.14,1.6,1.6,0,0,1-.39,0,1.19,1.19,0,0,1-.32-.13,1.4,1.4,0,0,1-.22-.17l-.25-.26v.09a.57.57,0,0,1-.12.39.4.4,0,0,1-.31.13.37.37,0,0,1-.31-.13.57.57,0,0,1-.12-.39v-4a.72.72,0,0,1,.11-.42.4.4,0,0,1,.32-.14.36.36,0,0,1,.32.14A.54.54,0,0,1,43,103.17Zm.05,2.72a1.24,1.24,0,0,0,.25.84A.78.78,0,0,0,44,107a.77.77,0,0,0,.6-.3,1.34,1.34,0,0,0,.25-.86,1.67,1.67,0,0,0-.11-.62.8.8,0,0,0-.29-.4.72.72,0,0,0-.45-.15.75.75,0,0,0-.46.15.84.84,0,0,0-.32.41A1.56,1.56,0,0,0,43.09,105.89Z"/><path class="cls-1" d="M48.78,107.21v-.11a2.31,2.31,0,0,1-.35.35,1.47,1.47,0,0,1-.39.21,1.88,1.88,0,0,1-.49.06,1.32,1.32,0,0,1-.6-.13,1.07,1.07,0,0,1-.41-.38,1.76,1.76,0,0,1-.17-.84v-1.81a.59.59,0,0,1,.13-.41.42.42,0,0,1,.33-.14.44.44,0,0,1,.33.14.56.56,0,0,1,.13.41V106a2.76,2.76,0,0,0,.05.54.62.62,0,0,0,.2.33.49.49,0,0,0,.37.13.79.79,0,0,0,.44-.14.88.88,0,0,0,.3-.36,3,3,0,0,0,.07-.85v-1.11a.61.61,0,0,1,.13-.41.45.45,0,0,1,.33-.14.42.42,0,0,1,.33.14.59.59,0,0,1,.13.41v2.65a.57.57,0,0,1-.12.39.4.4,0,0,1-.31.13.39.39,0,0,1-.31-.13A.59.59,0,0,1,48.78,107.21Z"/><path class="cls-1" d="M50.55,107.17v-4a.62.62,0,0,1,.12-.42.46.46,0,0,1,.66,0,.57.57,0,0,1,.13.42v4a.57.57,0,0,1-.13.42.42.42,0,0,1-.33.14.45.45,0,0,1-.33-.14A.66.66,0,0,1,50.55,107.17Z"/><path class="cls-1" d="M54.72,107.21a2.34,2.34,0,0,1-.64.39,1.75,1.75,0,0,1-.7.13,1.38,1.38,0,0,1-.62-.14,1.07,1.07,0,0,1-.41-.38,1,1,0,0,1-.14-.51.93.93,0,0,1,.24-.64,1.16,1.16,0,0,1,.65-.36l.43-.09.6-.13.53-.14a.9.9,0,0,0-.15-.53.64.64,0,0,0-.53-.17,1,1,0,0,0-.52.1.85.85,0,0,0-.31.29l-.17.26a.32.32,0,0,1-.23.06.4.4,0,0,1-.26-.1.32.32,0,0,1-.12-.25.78.78,0,0,1,.17-.47,1.33,1.33,0,0,1,.54-.38A2.35,2.35,0,0,1,54,104a2.45,2.45,0,0,1,1,.15.87.87,0,0,1,.49.45,2.05,2.05,0,0,1,.14.82V106c0,.15,0,.32,0,.5a1.79,1.79,0,0,0,.09.54,2.24,2.24,0,0,1,.08.36.35.35,0,0,1-.13.26.48.48,0,0,1-.3.11.4.4,0,0,1-.28-.13A2,2,0,0,1,54.72,107.21Zm-.06-1.32a5.3,5.3,0,0,1-.58.16l-.54.12a.64.64,0,0,0-.28.15.37.37,0,0,0-.13.31.46.46,0,0,0,.16.36.6.6,0,0,0,.41.14,1.06,1.06,0,0,0,.5-.12.91.91,0,0,0,.34-.3,1.47,1.47,0,0,0,.12-.69Z"/><path class="cls-1" d="M57.4,106.41v.76a.57.57,0,0,1-.14.42.42.42,0,0,1-.33.14.42.42,0,0,1-.32-.14.57.57,0,0,1-.13-.42v-2.54c0-.41.15-.62.45-.62a.36.36,0,0,1,.32.14.81.81,0,0,1,.12.43,1.56,1.56,0,0,1,.33-.43.74.74,0,0,1,.46-.14,1.22,1.22,0,0,1,.56.14.46.46,0,0,1,.28.39.34.34,0,0,1-.12.27.34.34,0,0,1-.25.11,1.1,1.1,0,0,1-.24-.06,1.22,1.22,0,0,0-.34-.06.48.48,0,0,0-.33.1.68.68,0,0,0-.2.32,2.11,2.11,0,0,0-.1.49C57.4,105.9,57.4,106.14,57.4,106.41Z"/><path class="cls-1" d="M60,103.58a.47.47,0,0,1-.33-.11.42.42,0,0,1-.14-.33.42.42,0,0,1,.14-.32.46.46,0,0,1,.33-.13.49.49,0,0,1,.31.11.43.43,0,0,1,.14.34.45.45,0,0,1-.13.33A.52.52,0,0,1,60,103.58Zm.45,1v2.64a.57.57,0,0,1-.13.42.45.45,0,0,1-.33.14.42.42,0,0,1-.33-.14.66.66,0,0,1-.13-.42v-2.61a.61.61,0,0,1,.13-.41A.42.42,0,0,1,60,104a.45.45,0,0,1,.33.14A.52.52,0,0,1,60.41,104.53Z"/><path class="cls-1" d="M64.78,105.87a2.13,2.13,0,0,1-.13.76,1.52,1.52,0,0,1-.37.59,1.73,1.73,0,0,1-.57.38,2.06,2.06,0,0,1-.76.13,2,2,0,0,1-.74-.13,1.56,1.56,0,0,1-.58-.39,1.69,1.69,0,0,1-.37-.59,2.19,2.19,0,0,1-.12-.75,2.29,2.29,0,0,1,.12-.76,1.69,1.69,0,0,1,.37-.59,1.67,1.67,0,0,1,.58-.38A2,2,0,0,1,63,104a2.06,2.06,0,0,1,.76.13,1.65,1.65,0,0,1,.58.39,1.54,1.54,0,0,1,.36.59A2,2,0,0,1,64.78,105.87Zm-.92,0a1.41,1.41,0,0,0-.24-.87.81.81,0,0,0-.67-.31.77.77,0,0,0-.47.14.82.82,0,0,0-.31.41,1.54,1.54,0,0,0-.12.63,1.73,1.73,0,0,0,.11.63,1,1,0,0,0,.32.41.87.87,0,0,0,1.14-.17A1.41,1.41,0,0,0,63.86,105.87Z"/><path class="cls-1" d="M65.6,104.51a.47.47,0,0,1,.15-.37.52.52,0,0,1,.36-.13.51.51,0,0,1,.35.13.47.47,0,0,1,.15.37.53.53,0,0,1-.16.35.52.52,0,0,1-.35.15.45.45,0,0,1-.35-.15A.49.49,0,0,1,65.6,104.51Zm.51,3.22a.52.52,0,0,1-.36-.13.49.49,0,0,1-.15-.38.5.5,0,0,1,.14-.35.51.51,0,0,1,.72,0,.45.45,0,0,1,.15.35.48.48,0,0,1-.5.51Z"/><path class="cls-1" d="M70,102.78H72.2a.78.78,0,0,1,.46.1.37.37,0,0,1,.15.33.69.69,0,0,1-.17.37l-.39.52a5.94,5.94,0,0,0-.45.69,6.3,6.3,0,0,0-.42,1,4,4,0,0,0-.11.44c0,.11,0,.26-.07.45s0,.33-.07.43a1.1,1.1,0,0,1-.2.47.46.46,0,0,1-.35.13.45.45,0,0,1-.33-.14.66.66,0,0,1-.12-.42,2.73,2.73,0,0,1,.09-.59,6.58,6.58,0,0,1,.3-.88,7.19,7.19,0,0,1,.51-1,7.08,7.08,0,0,1,.73-1.08H70a.79.79,0,0,1-.42-.1.39.39,0,0,1-.14-.32q0-.24.15-.3A.94.94,0,0,1,70,102.78Z"/><rect class="cls-8" x="13.99" y="99.23" width="0.74" height="1.88" rx="0.37" ry="0.37"/><rect class="cls-9" x="12.72" y="100.64" width="7.01" height="10.2" rx="1.75" ry="1.75"/><path class="cls-10" d="M18,111.32H14.47a2.23,2.23,0,0,1-2.23-2.22v-6.71a2.23,2.23,0,0,1,2.23-2.23H18a2.23,2.23,0,0,1,2.23,2.23v6.71A2.23,2.23,0,0,1,18,111.32Zm-3.51-10.2a1.27,1.27,0,0,0-1.27,1.27v6.71a1.27,1.27,0,0,0,1.27,1.27H18a1.27,1.27,0,0,0,1.27-1.27v-6.71A1.27,1.27,0,0,0,18,101.12Z"/><rect class="cls-8" x="17.48" y="101.12" width="0.64" height="9.25"/><path class="cls-8" d="M14.55,104.17h.86a2.4,2.4,0,0,1,.58.06,1.1,1.1,0,0,1,.44.23,1.66,1.66,0,0,1,.51,1.33,2.92,2.92,0,0,1-.05.54,1.75,1.75,0,0,1-.16.44,1.19,1.19,0,0,1-.56.54,1.33,1.33,0,0,1-.34.1,2.41,2.41,0,0,1-.4,0h-.87a.62.62,0,0,1-.27,0,.28.28,0,0,1-.12-.16.88.88,0,0,1,0-.26v-2.4a.41.41,0,0,1,.1-.31A.43.43,0,0,1,14.55,104.17Zm.25.52v2.22h.77l.19,0a.4.4,0,0,0,.17-.1,1.19,1.19,0,0,0,.34-1,1.42,1.42,0,0,0-.15-.73.64.64,0,0,0-.36-.3,1.6,1.6,0,0,0-.52-.07Z"/><line class="cls-2" x1="1.01" y1="59" x2="100.29" y2="59"/><rect class="cls-1" x="1.01" y="58.18" width="99.28" height="1.65"/><line class="cls-2" x1="1.01" y1="77.53" x2="100.29" y2="77.53"/><rect class="cls-1" x="1.01" y="76.7" width="99.28" height="1.65"/><line class="cls-2" x1="1.01" y1="96.28" x2="100.29" y2="96.28"/><rect class="cls-1" x="1.01" y="95.46" width="99.28" height="1.65"/><line class="cls-2" x1="1.01" y1="114.25" x2="100.29" y2="114.25"/><rect class="cls-1" x="1.01" y="113.42" width="99.28" height="1.65"/><path class="cls-3" d="M25.92,47.79V51h1.83a.5.5,0,0,1,.34.11.34.34,0,0,1,.12.27.32.32,0,0,1-.12.26.49.49,0,0,1-.34.1H25.57a.58.58,0,0,1-.43-.13.6.6,0,0,1-.13-.42V47.79a.55.55,0,0,1,.13-.41.39.39,0,0,1,.32-.14.42.42,0,0,1,.33.13A.57.57,0,0,1,25.92,47.79Z"/><path class="cls-3" d="M28.75,49l.67,1.89.73-2a1,1,0,0,1,.16-.33.3.3,0,0,1,.25-.1.36.36,0,0,1,.27.1.36.36,0,0,1,.09.38.5.5,0,0,1,0,.13l-.06.15-.8,2c0,.06-.05.13-.09.22a.66.66,0,0,1-.12.22.39.39,0,0,1-.16.15.52.52,0,0,1-.23,0,.47.47,0,0,1-.28-.08A.55.55,0,0,1,29,51.6c0-.06-.09-.19-.17-.38l-.79-2L28,49.12a.83.83,0,0,1,0-.15.34.34,0,0,1,0-.13.26.26,0,0,1,.05-.17.38.38,0,0,1,.14-.14.35.35,0,0,1,.2-.05.32.32,0,0,1,.28.11A2,2,0,0,1,28.75,49Z"/><path class="cls-3" d="M31,51.86a.48.48,0,0,1-.33-.12.44.44,0,0,1-.14-.34.43.43,0,0,1,.14-.32.42.42,0,0,1,.32-.14.45.45,0,0,1,.33.14.41.41,0,0,1,.13.32.45.45,0,0,1-.13.34A.47.47,0,0,1,31,51.86Z"/><path class="cls-3" d="M34.16,51.37V48.59a2.5,2.5,0,0,1-1,.6.31.31,0,0,1-.23-.11.29.29,0,0,1-.1-.23.25.25,0,0,1,.1-.23,2.16,2.16,0,0,1,.34-.19,2.41,2.41,0,0,0,.59-.37,2,2,0,0,0,.39-.43c.12-.15.19-.25.23-.29a.29.29,0,0,1,.19-.05.31.31,0,0,1,.26.12.54.54,0,0,1,.1.35v3.49c0,.41-.14.61-.42.61a.41.41,0,0,1-.3-.12A.58.58,0,0,1,34.16,51.37Z"/><path class="cls-3" d="M37.86,50.17a4.57,4.57,0,0,1,.08-.86,5.53,5.53,0,0,1,.24-.79,5.76,5.76,0,0,1,.4-.78,2.23,2.23,0,0,1,.24-.34.54.54,0,0,1,.19-.14l.22,0c.1,0,.15,0,.15.08a1.61,1.61,0,0,1-.14.33c-.09.2-.18.42-.26.64a6.29,6.29,0,0,0-.23.83,5,5,0,0,0,0,2.09,7.76,7.76,0,0,0,.23.85c.09.24.18.45.27.64a2.25,2.25,0,0,1,.13.31q0,.09-.15.09a.65.65,0,0,1-.22,0,.54.54,0,0,1-.19-.14,2.92,2.92,0,0,1-.24-.34,5.67,5.67,0,0,1-.39-.78A3.44,3.44,0,0,1,38,51,4,4,0,0,1,37.86,50.17Z"/><path class="cls-3" d="M42.44,51.28l-.21-.56H40.41l-.21.57a2.16,2.16,0,0,1-.21.45.34.34,0,0,1-.29.12.45.45,0,0,1-.31-.12.43.43,0,0,1-.13-.29.68.68,0,0,1,0-.19c0-.06.06-.15.1-.27l1.15-2.9c0-.08.07-.18.11-.3a1.54,1.54,0,0,1,.15-.29.61.61,0,0,1,.2-.19.63.63,0,0,1,.32-.07.59.59,0,0,1,.31.07.63.63,0,0,1,.21.18,2,2,0,0,1,.13.25l.13.34L43.27,51a1.52,1.52,0,0,1,.14.48.38.38,0,0,1-.13.28.42.42,0,0,1-.31.13.38.38,0,0,1-.19,0,.29.29,0,0,1-.12-.1.87.87,0,0,1-.12-.2ZM40.65,50H42l-.68-1.85Z"/><path class="cls-3" d="M44.2,47.71V49a1.67,1.67,0,0,1,.48-.38,1.33,1.33,0,0,1,.6-.13,1.35,1.35,0,0,1,.73.2,1.29,1.29,0,0,1,.48.57,2,2,0,0,1,.17.88,2.53,2.53,0,0,1-.09.7,1.9,1.9,0,0,1-.28.55,1.24,1.24,0,0,1-.44.35,1.27,1.27,0,0,1-.58.13,1.36,1.36,0,0,1-.36,0,1.1,1.1,0,0,1-.29-.12,1.15,1.15,0,0,1-.2-.15,1.88,1.88,0,0,1-.22-.24v.08a.49.49,0,0,1-.12.36.36.36,0,0,1-.28.12.35.35,0,0,1-.28-.12.53.53,0,0,1-.11-.36V47.75a.58.58,0,0,1,.1-.38.35.35,0,0,1,.29-.13.36.36,0,0,1,.29.12A.52.52,0,0,1,44.2,47.71Zm0,2.48a1.15,1.15,0,0,0,.22.76.76.76,0,0,0,.6.27.66.66,0,0,0,.54-.28,1.19,1.19,0,0,0,.23-.78,1.42,1.42,0,0,0-.1-.57.82.82,0,0,0-.26-.36.67.67,0,0,0-.41-.13.68.68,0,0,0-.42.13.86.86,0,0,0-.3.37A1.52,1.52,0,0,0,44.24,50.19Z"/><path class="cls-3" d="M49.42,50.77a1,1,0,0,1-.16.59,1,1,0,0,1-.5.37,2.1,2.1,0,0,1-.8.13,2,2,0,0,1-.77-.14,1.08,1.08,0,0,1-.47-.34.69.69,0,0,1-.15-.41.33.33,0,0,1,.1-.24.34.34,0,0,1,.45,0,.7.7,0,0,1,.13.18.83.83,0,0,0,.31.33.92.92,0,0,0,.48.11.71.71,0,0,0,.41-.11.3.3,0,0,0,.16-.25.36.36,0,0,0-.16-.33,2.6,2.6,0,0,0-.55-.19,4.18,4.18,0,0,1-.7-.22,1.16,1.16,0,0,1-.43-.31.71.71,0,0,1-.16-.47.85.85,0,0,1,.15-.48,1.05,1.05,0,0,1,.44-.35,1.65,1.65,0,0,1,.7-.13,2.58,2.58,0,0,1,.58.06,1.92,1.92,0,0,1,.43.18,1,1,0,0,1,.26.25.48.48,0,0,1,.09.27.32.32,0,0,1-.09.24.41.41,0,0,1-.28.09.35.35,0,0,1-.22-.08,1.58,1.58,0,0,1-.2-.22.79.79,0,0,0-.22-.19A.73.73,0,0,0,47.9,49a.74.74,0,0,0-.38.09.28.28,0,0,0-.14.24.27.27,0,0,0,.1.22,1.4,1.4,0,0,0,.3.14l.51.13a2.39,2.39,0,0,1,.63.23,1,1,0,0,1,.38.31A.68.68,0,0,1,49.42,50.77Z"/><path class="cls-3" d="M52.66,50.17a1.87,1.87,0,0,1-.12.68,1.63,1.63,0,0,1-.33.54,1.58,1.58,0,0,1-.53.35,1.83,1.83,0,0,1-.68.12,1.79,1.79,0,0,1-.68-.12,1.46,1.46,0,0,1-.86-.89,1.83,1.83,0,0,1-.12-.68,1.92,1.92,0,0,1,.12-.69,1.63,1.63,0,0,1,.33-.54,1.46,1.46,0,0,1,.53-.34,2,2,0,0,1,1.36,0,1.37,1.37,0,0,1,.53.35,1.32,1.32,0,0,1,.33.53A1.92,1.92,0,0,1,52.66,50.17Zm-.84,0a1.22,1.22,0,0,0-.22-.79.73.73,0,0,0-.6-.29.69.69,0,0,0-.43.13.78.78,0,0,0-.29.37,1.5,1.5,0,0,0-.1.58,1.42,1.42,0,0,0,.1.57.76.76,0,0,0,.28.37.79.79,0,0,0,1-.15A1.26,1.26,0,0,0,51.82,50.17Z"/><path class="cls-3" d="M52.73,51.35V47.74a.51.51,0,0,1,.11-.37.35.35,0,0,1,.3-.13.39.39,0,0,1,.3.12.56.56,0,0,1,.12.38v3.61a.52.52,0,0,1-.12.38.41.41,0,0,1-.6,0A.54.54,0,0,1,52.73,51.35Z"/><path class="cls-3" d="M56,51.39v-.11a1.58,1.58,0,0,1-.31.32,1,1,0,0,1-.36.19,1.53,1.53,0,0,1-.45.06,1.19,1.19,0,0,1-.54-.12.89.89,0,0,1-.37-.35,1.55,1.55,0,0,1-.15-.76V49a.51.51,0,0,1,.11-.37.43.43,0,0,1,.6,0,.51.51,0,0,1,.12.37v1.34a2.14,2.14,0,0,0,0,.48.58.58,0,0,0,.17.31.54.54,0,0,0,.35.11.69.69,0,0,0,.39-.12.71.71,0,0,0,.27-.33,2.52,2.52,0,0,0,.07-.77V49a.51.51,0,0,1,.12-.37.41.41,0,0,1,.3-.12.38.38,0,0,1,.3.12.51.51,0,0,1,.11.37v2.41a.53.53,0,0,1-.1.36.38.38,0,0,1-.28.12.38.38,0,0,1-.29-.12A.54.54,0,0,1,56,51.39Z"/><path class="cls-3" d="M57.06,48.55h.09v-.5c0-.13,0-.24,0-.32a.53.53,0,0,1,.06-.19.38.38,0,0,1,.14-.14.37.37,0,0,1,.21-.06.39.39,0,0,1,.28.12.33.33,0,0,1,.11.2A1.27,1.27,0,0,1,58,48v.57h.3a.41.41,0,0,1,.27.08.29.29,0,0,1,.09.22.23.23,0,0,1-.13.23.78.78,0,0,1-.38.07H58v1.53a2.45,2.45,0,0,0,0,.3.29.29,0,0,0,.07.17.24.24,0,0,0,.2.07l.19,0a.83.83,0,0,1,.2,0,.22.22,0,0,1,.18.08.28.28,0,0,1,.08.2.32.32,0,0,1-.22.3,1.34,1.34,0,0,1-.63.11,1.05,1.05,0,0,1-.59-.13.59.59,0,0,1-.26-.36,2.12,2.12,0,0,1-.07-.62v-1.6H57a.37.37,0,0,1-.27-.09.27.27,0,0,1-.1-.21.3.3,0,0,1,.1-.22A.5.5,0,0,1,57.06,48.55Z"/><path class="cls-3" d="M61,50.37H59.33a1.27,1.27,0,0,0,.12.5.69.69,0,0,0,.3.33.77.77,0,0,0,.4.11.77.77,0,0,0,.27,0,.66.66,0,0,0,.24-.11l.22-.16.25-.23a.3.3,0,0,1,.18-.05.28.28,0,0,1,.21.07.25.25,0,0,1,.08.2.54.54,0,0,1-.09.26,1.16,1.16,0,0,1-.26.29,1.58,1.58,0,0,1-.45.23,2,2,0,0,1-.62.09,1.65,1.65,0,0,1-1.25-.46,1.69,1.69,0,0,1-.45-1.24,2.15,2.15,0,0,1,.11-.68,1.61,1.61,0,0,1,.32-.54,1.45,1.45,0,0,1,.52-.35,1.92,1.92,0,0,1,.69-.12,1.57,1.57,0,0,1,.83.21,1.29,1.29,0,0,1,.53.53,1.47,1.47,0,0,1,.17.66c0,.21-.06.35-.18.41A1.16,1.16,0,0,1,61,50.37Zm-1.63-.47h1.51a1,1,0,0,0-.23-.64.67.67,0,0,0-.52-.21.66.66,0,0,0-.51.21A1.07,1.07,0,0,0,59.33,49.9Z"/><path class="cls-3" d="M63.51,47.71V49a1.67,1.67,0,0,1,.48-.38,1.33,1.33,0,0,1,.6-.13,1.35,1.35,0,0,1,.73.2,1.29,1.29,0,0,1,.48.57,2,2,0,0,1,.17.88,2.53,2.53,0,0,1-.09.7,1.9,1.9,0,0,1-.28.55,1.24,1.24,0,0,1-.44.35,1.27,1.27,0,0,1-.58.13,1.36,1.36,0,0,1-.36,0,1.1,1.1,0,0,1-.29-.12,1.15,1.15,0,0,1-.2-.15,1.88,1.88,0,0,1-.22-.24v.08a.49.49,0,0,1-.12.36.36.36,0,0,1-.28.12.35.35,0,0,1-.28-.12.49.49,0,0,1-.11-.36V47.75a.58.58,0,0,1,.1-.38.35.35,0,0,1,.29-.13.36.36,0,0,1,.29.12A.52.52,0,0,1,63.51,47.71Zm0,2.48a1.15,1.15,0,0,0,.22.76.74.74,0,0,0,.6.27.66.66,0,0,0,.54-.28,1.19,1.19,0,0,0,.23-.78,1.42,1.42,0,0,0-.1-.57.82.82,0,0,0-.26-.36.67.67,0,0,0-.41-.13.68.68,0,0,0-.42.13.8.8,0,0,0-.3.37A1.52,1.52,0,0,0,63.55,50.19Z"/><path class="cls-3" d="M68.38,50.37H66.75a1.12,1.12,0,0,0,.11.5.77.77,0,0,0,.71.44.77.77,0,0,0,.27,0,.86.86,0,0,0,.24-.11,1.16,1.16,0,0,0,.21-.16,2.3,2.3,0,0,0,.25-.23.36.36,0,0,1,.19-.05.31.31,0,0,1,.21.07A.24.24,0,0,1,69,51a.51.51,0,0,1-.08.26,1,1,0,0,1-.27.29,1.58,1.58,0,0,1-.45.23,2,2,0,0,1-.62.09,1.66,1.66,0,0,1-1.25-.46,1.72,1.72,0,0,1-.44-1.24,1.9,1.9,0,0,1,.11-.68,1.46,1.46,0,0,1,.32-.54,1.37,1.37,0,0,1,.52-.35,1.83,1.83,0,0,1,.68-.12,1.64,1.64,0,0,1,.84.21,1.32,1.32,0,0,1,.52.53,1.47,1.47,0,0,1,.17.66c0,.21-.06.35-.18.41A1.15,1.15,0,0,1,68.38,50.37Zm-1.63-.47h1.51a1,1,0,0,0-.23-.64.71.71,0,0,0-.53-.21.68.68,0,0,0-.51.21A1.13,1.13,0,0,0,66.75,49.9Z"/><path class="cls-3" d="M72.16,49.09V51.5a2.53,2.53,0,0,1-.09.72,1.13,1.13,0,0,1-.28.49,1.2,1.2,0,0,1-.52.29,2.85,2.85,0,0,1-.78.1,2.3,2.3,0,0,1-.77-.13,1.31,1.31,0,0,1-.52-.31.54.54,0,0,1-.18-.39.33.33,0,0,1,.1-.25.37.37,0,0,1,.25-.09.4.4,0,0,1,.32.16l.14.16a.75.75,0,0,0,.16.15.67.67,0,0,0,.21.09,1.39,1.39,0,0,0,.78-.06.53.53,0,0,0,.25-.26.94.94,0,0,0,.08-.34c0-.12,0-.32,0-.59a1.5,1.5,0,0,1-.44.4,1.16,1.16,0,0,1-.6.14,1.28,1.28,0,0,1-.73-.21,1.31,1.31,0,0,1-.48-.6,2.19,2.19,0,0,1-.17-.88,2.07,2.07,0,0,1,.1-.68,1.58,1.58,0,0,1,.29-.51,1.22,1.22,0,0,1,.44-.31,1.33,1.33,0,0,1,.54-.11,1.28,1.28,0,0,1,.61.14,1.47,1.47,0,0,1,.49.42v-.11a.51.51,0,0,1,.1-.34.39.39,0,0,1,.28-.11.33.33,0,0,1,.32.15A1.12,1.12,0,0,1,72.16,49.09Zm-2.41,1a1.16,1.16,0,0,0,.22.77.7.7,0,0,0,.57.26.69.69,0,0,0,.39-.12.81.81,0,0,0,.3-.33,1.15,1.15,0,0,0,.12-.55,1.24,1.24,0,0,0-.23-.79.7.7,0,0,0-.59-.28.68.68,0,0,0-.57.27A1.24,1.24,0,0,0,69.75,50.14Z"/><path class="cls-3" d="M72.83,48.09a.44.44,0,0,1-.29-.11.35.35,0,0,1-.13-.3.35.35,0,0,1,.13-.29.4.4,0,0,1,.29-.12.44.44,0,0,1,.29.11.44.44,0,0,1,0,.6A.44.44,0,0,1,72.83,48.09Zm.41.86v2.4a.57.57,0,0,1-.11.38.39.39,0,0,1-.31.13.35.35,0,0,1-.29-.13.54.54,0,0,1-.12-.38V49a.51.51,0,0,1,.12-.37.37.37,0,0,1,.29-.12.41.41,0,0,1,.31.12A.52.52,0,0,1,73.24,49Z"/><path class="cls-3" d="M74.27,48.94V49a1.46,1.46,0,0,1,.48-.43,1.32,1.32,0,0,1,.6-.13,1.15,1.15,0,0,1,.59.14.94.94,0,0,1,.39.4,1,1,0,0,1,.1.33,2.86,2.86,0,0,1,0,.46v1.54a.52.52,0,0,1-.12.38.35.35,0,0,1-.29.13.35.35,0,0,1-.3-.13.54.54,0,0,1-.12-.38V50a1.45,1.45,0,0,0-.11-.63.47.47,0,0,0-.46-.22.69.69,0,0,0-.41.13.72.72,0,0,0-.26.37,2.21,2.21,0,0,0-.06.69v1a.52.52,0,0,1-.12.38.39.39,0,0,1-.31.13.36.36,0,0,1-.29-.13.54.54,0,0,1-.12-.38V49a.53.53,0,0,1,.11-.36.38.38,0,0,1,.28-.11.35.35,0,0,1,.2.05.34.34,0,0,1,.14.15A.67.67,0,0,1,74.27,48.94Z"/><path class="cls-3" d="M77.46,48.94V49a1.29,1.29,0,0,1,.48-.43,1.26,1.26,0,0,1,.6-.13,1.17,1.17,0,0,1,.59.14.87.87,0,0,1,.38.4,1.07,1.07,0,0,1,.11.33,3,3,0,0,1,0,.46v1.54a.52.52,0,0,1-.11.38.41.41,0,0,1-.6,0,.54.54,0,0,1-.12-.38V50a1.32,1.32,0,0,0-.11-.63.47.47,0,0,0-.46-.22.66.66,0,0,0-.4.13.8.8,0,0,0-.27.37,2.58,2.58,0,0,0-.06.69v1a.52.52,0,0,1-.12.38.41.41,0,0,1-.6,0,.59.59,0,0,1-.11-.38V49a.53.53,0,0,1,.1-.36.38.38,0,0,1,.28-.11.33.33,0,0,1,.2.05.29.29,0,0,1,.14.15A.53.53,0,0,1,77.46,48.94Z"/><path class="cls-3" d="M82.21,50.37H80.58a1,1,0,0,0,.12.5.73.73,0,0,0,.29.33.81.81,0,0,0,.41.11.77.77,0,0,0,.27,0,.86.86,0,0,0,.24-.11,1.16,1.16,0,0,0,.21-.16c.07,0,.15-.13.26-.23a.35.35,0,0,1,.39,0,.25.25,0,0,1,.08.2.54.54,0,0,1-.09.26,1,1,0,0,1-.27.29,1.58,1.58,0,0,1-.45.23,1.93,1.93,0,0,1-.62.09,1.62,1.62,0,0,1-1.24-.46,1.69,1.69,0,0,1-.45-1.24,2.15,2.15,0,0,1,.11-.68,1.46,1.46,0,0,1,.32-.54,1.37,1.37,0,0,1,.52-.35,1.83,1.83,0,0,1,.68-.12,1.59,1.59,0,0,1,.84.21,1.26,1.26,0,0,1,.52.53,1.37,1.37,0,0,1,.18.66.44.44,0,0,1-.18.41A1.16,1.16,0,0,1,82.21,50.37Zm-1.63-.47h1.51a1,1,0,0,0-.23-.64.75.75,0,0,0-1,0A1.13,1.13,0,0,0,80.58,49.9Z"/><path class="cls-3" d="M83.84,50.66v.69a.52.52,0,0,1-.12.38.41.41,0,0,1-.6,0,.52.52,0,0,1-.12-.38V49c0-.38.14-.56.41-.56a.33.33,0,0,1,.3.13.72.72,0,0,1,.1.38,1.24,1.24,0,0,1,.31-.38.59.59,0,0,1,.41-.13,1,1,0,0,1,.51.13.38.38,0,0,1,.25.35.33.33,0,0,1-.1.25.37.37,0,0,1-.23.1l-.22-.06a1,1,0,0,0-.31-.06.44.44,0,0,0-.3.1.57.57,0,0,0-.18.28,2.55,2.55,0,0,0-.09.45A6.13,6.13,0,0,0,83.84,50.66Z"/><path class="cls-3" d="M86.55,50.17a4.2,4.2,0,0,1-.18,1.25,5.51,5.51,0,0,1-.54,1.17,1.56,1.56,0,0,1-.32.42.53.53,0,0,1-.32.09c-.11,0-.16,0-.16-.09l.13-.29a5.89,5.89,0,0,0,.27-.64,6.09,6.09,0,0,0,.24-.86,5.19,5.19,0,0,0,.1-1,5.06,5.06,0,0,0-.1-1.05,5.89,5.89,0,0,0-.24-.87c-.1-.24-.18-.46-.27-.64s-.13-.27-.13-.29,0-.08.16-.08a.54.54,0,0,1,.33.08,1.46,1.46,0,0,1,.31.42,5.7,5.7,0,0,1,.32.59,4.07,4.07,0,0,1,.22.58,3.75,3.75,0,0,1,.14.6A4.68,4.68,0,0,1,86.55,50.17Z"/><rect class="cls-2" x="11.66" y="45.01" width="9.52" height="9.52" rx="4.76" ry="4.76"/><path class="cls-3" d="M16.43,55.1a5.33,5.33,0,1,1,5.32-5.33A5.33,5.33,0,0,1,16.43,55.1Zm0-9.52a4.2,4.2,0,1,0,4.2,4.19A4.2,4.2,0,0,0,16.43,45.58Z"/><path class="cls-4" d="M12.36,48.78a4.42,4.42,0,0,0-.14,1h0A4.18,4.18,0,0,0,16.43,54h0a4.18,4.18,0,0,0,4.2-4.15h0a4,4,0,0,0-.14-1Z"/><path class="cls-1" d="M33.7,39.93l1.84-3.28a.74.74,0,0,1,1.28,0L38.66,40"/></g></g></svg>