<svg xmlns="http://www.w3.org/2000/svg" viewBox="0 0 82.24 95.48"><defs><style>.cls-1{fill:#fff;}.cls-2{fill:#020e18;}.cls-3{fill:#ffe000;}.cls-4{fill:#1fc93b;}.cls-13,.cls-5{fill:none;stroke:#020e18;}.cls-5{stroke-miterlimit:10;stroke-width:0.82px;}.cls-6{fill:#239ac4;}.cls-7{fill:#fe3e00;}.cls-8{fill:#fdd734;}.cls-9{fill:#6d6247;}.cls-10{fill:#dbc691;}.cls-11{fill:#ad9d71;}.cls-12{fill:#fffdfd;}.cls-13{stroke-linecap:round;stroke-linejoin:round;stroke-width:0.7px;}.cls-14{fill:#f9ea95;}.cls-15{fill:#d346b5;}</style></defs><title>examen_progreso</title><g id="Capa_2" data-name="Capa 2"><g id="Capa_1-2" data-name="Capa 1"><circle class="cls-1" cx="73.54" cy="66.4" r="1.47"/><circle class="cls-1" cx="57.77" cy="81.37" r="0.71"/><circle class="cls-1" cx="27.95" cy="16.21" r="1.46"/><circle class="cls-2" cx="17.5" cy="17.5" r="16.95"/><path class="cls-3" d="M17.5,35A17.51,17.51,0,1,1,35,17.5,17.53,17.53,0,0,1,17.5,35Zm0-33.89A16.39,16.39,0,1,0,33.89,17.5,16.4,16.4,0,0,0,17.5,1.12Z"/><rect class="cls-2" x="0.56" y="32.4" width="33.89" height="5.9" rx="2.95" ry="2.95"/><path class="cls-3" d="M31.5,38.85h-28a3.51,3.51,0,1,1,0-7h28a3.51,3.51,0,1,1,0,7ZM3.51,33a2.39,2.39,0,1,0,0,4.78h28a2.39,2.39,0,0,0,0-4.78Z"/><path class="cls-2" d="M48.78,47.34a7.4,7.4,0,1,1,7.39-7.4A7.41,7.41,0,0,1,48.78,47.34Zm0-13.63A6.24,6.24,0,1,0,55,39.94,6.24,6.24,0,0,0,48.78,33.71Z"/><path class="cls-2" d="M59.43,37.65v4.17h1.91a.45.45,0,0,1,.35.13.53.53,0,0,1,.12.35.49.49,0,0,1-.12.34.43.43,0,0,1-.35.13H59.07a.53.53,0,0,1-.44-.17.85.85,0,0,1-.14-.54V37.65a.83.83,0,0,1,.13-.52.41.41,0,0,1,.68,0A.83.83,0,0,1,59.43,37.65Z"/><path class="cls-2" d="M63,39.2l.7,2.42.75-2.53a1.67,1.67,0,0,1,.18-.43.29.29,0,0,1,.26-.12.35.35,0,0,1,.28.13.52.52,0,0,1,.11.32.47.47,0,0,1,0,.16,1.21,1.21,0,0,1,0,.18c0,.05,0,.12-.06.19l-.83,2.53c0,.07,0,.17-.09.28a2.85,2.85,0,0,1-.12.29.59.59,0,0,1-.17.18.48.48,0,0,1-.24.07.42.42,0,0,1-.3-.11.82.82,0,0,1-.16-.22l-.17-.49-.83-2.51-.06-.18a1.46,1.46,0,0,1-.05-.2,1.15,1.15,0,0,1,0-.16.54.54,0,0,1,0-.22.65.65,0,0,1,.15-.18.42.42,0,0,1,.21-.06.32.32,0,0,1,.3.15A3.39,3.39,0,0,1,63,39.2Z"/><path class="cls-2" d="M66,42.87a.43.43,0,0,1-.34-.16.6.6,0,0,1-.14-.44.67.67,0,0,1,.13-.41.43.43,0,0,1,.68,0,.66.66,0,0,1,.14.41.66.66,0,0,1-.14.44A.44.44,0,0,1,66,42.87Z"/><path class="cls-2" d="M70.45,42.23V38.68c-.54.51-.9.77-1.09.77a.28.28,0,0,1-.23-.14A.44.44,0,0,1,69,39a.37.37,0,0,1,.11-.29,2,2,0,0,1,.35-.24A3,3,0,0,0,70.1,38a2.77,2.77,0,0,0,.4-.55c.12-.2.2-.33.24-.38a.25.25,0,0,1,.2-.07.33.33,0,0,1,.27.16.82.82,0,0,1,.1.44v4.47c0,.53-.14.79-.43.79a.4.4,0,0,1-.32-.16A.9.9,0,0,1,70.45,42.23Z"/><path class="cls-4" d="M42.74,38.47A6,6,0,0,0,42.53,40h0a6.21,6.21,0,0,0,6.25,6.16h0A6.21,6.21,0,0,0,55,40h0a6,6,0,0,0-.21-1.55Z"/><rect class="cls-5" x="35.13" y="51.52" width="46.7" height="43.55" rx="6.25" ry="6.25"/><path class="cls-2" d="M47.1,72.42V74.1h.95a.24.24,0,0,1,.18.06.16.16,0,0,1,.06.13.17.17,0,0,1-.06.14.24.24,0,0,1-.18.06H46.92a.24.24,0,0,1-.28-.29V72.42a.34.34,0,0,1,.06-.22.24.24,0,0,1,.17-.07.26.26,0,0,1,.17.07A.34.34,0,0,1,47.1,72.42Z"/><path class="cls-2" d="M49.77,73.76h-.85A.92.92,0,0,0,49,74a.38.38,0,0,0,.16.17.37.37,0,0,0,.21.06l.14,0a.34.34,0,0,0,.12-.06l.11-.08.13-.12a.17.17,0,0,1,.1,0,.21.21,0,0,1,.11,0,.15.15,0,0,1,0,.1.3.3,0,0,1-.05.14.64.64,0,0,1-.14.15.71.71,0,0,1-.23.12,1,1,0,0,1-.32,0,.86.86,0,0,1-.65-.23.9.9,0,0,1-.23-.64,1,1,0,0,1,.06-.36.73.73,0,0,1,.17-.28.81.81,0,0,1,.26-.18,1,1,0,0,1,.36-.06.83.83,0,0,1,.43.11.7.7,0,0,1,.27.27.76.76,0,0,1,.09.35.23.23,0,0,1-.09.21A.6.6,0,0,1,49.77,73.76Zm-.85-.25h.79a.56.56,0,0,0-.12-.33.38.38,0,0,0-.28-.11.36.36,0,0,0-.26.11A.62.62,0,0,0,48.92,73.51Z"/><path class="cls-2" d="M52,74a.37.37,0,0,1-.05.17.6.6,0,0,1-.15.18.73.73,0,0,1-.25.13,1.09,1.09,0,0,1-.33,0,.85.85,0,0,1-.63-.23.9.9,0,0,1-.22-.62,1,1,0,0,1,.1-.47.77.77,0,0,1,.3-.32,1,1,0,0,1,.46-.11,1,1,0,0,1,.31,0,.7.7,0,0,1,.24.13.52.52,0,0,1,.14.16.29.29,0,0,1,.06.16.18.18,0,0,1-.06.14.24.24,0,0,1-.14,0,.12.12,0,0,1-.09,0l-.08-.09a.73.73,0,0,0-.16-.18.38.38,0,0,0-.22-.06.37.37,0,0,0-.31.15.65.65,0,0,0-.12.41.78.78,0,0,0,0,.22.51.51,0,0,0,.09.18.36.36,0,0,0,.14.1.33.33,0,0,0,.17,0,.38.38,0,0,0,.22-.06.49.49,0,0,0,.17-.18.36.36,0,0,1,.08-.12.21.21,0,0,1,.11,0,.18.18,0,0,1,.14.06A.24.24,0,0,1,52,74Z"/><path class="cls-2" d="M54,74a.37.37,0,0,1-.05.17.6.6,0,0,1-.15.18.73.73,0,0,1-.25.13,1.14,1.14,0,0,1-.33,0,.78.78,0,0,1-.85-.85,1,1,0,0,1,.1-.47.77.77,0,0,1,.3-.32,1,1,0,0,1,.46-.11,1,1,0,0,1,.31,0,.7.7,0,0,1,.24.13.52.52,0,0,1,.14.16.29.29,0,0,1,.06.16.18.18,0,0,1-.06.14.24.24,0,0,1-.14,0,.12.12,0,0,1-.09,0l-.08-.09a.59.59,0,0,0-.17-.18.35.35,0,0,0-.21-.06.37.37,0,0,0-.31.15.65.65,0,0,0-.12.41.78.78,0,0,0,0,.22.51.51,0,0,0,.09.18.36.36,0,0,0,.14.1.33.33,0,0,0,.17,0,.38.38,0,0,0,.22-.06.49.49,0,0,0,.17-.18.36.36,0,0,1,.08-.12.21.21,0,0,1,.11,0,.18.18,0,0,1,.14.06A.24.24,0,0,1,54,74Z"/><path class="cls-2" d="M54.54,72.57a.2.2,0,0,1-.15,0,.19.19,0,0,1-.07-.16.18.18,0,0,1,.07-.15.22.22,0,0,1,.3,0,.18.18,0,0,1,.06.15.21.21,0,0,1-.06.16A.2.2,0,0,1,54.54,72.57Zm.21.45v1.24a.3.3,0,0,1-.06.2.2.2,0,0,1-.15.06.21.21,0,0,1-.16-.06.3.3,0,0,1-.06-.2V73a.27.27,0,0,1,.06-.19.22.22,0,0,1,.16-.07.21.21,0,0,1,.15.07A.24.24,0,0,1,54.75,73Z"/><path class="cls-2" d="M56.81,73.65a1,1,0,0,1-.06.35.78.78,0,0,1-.17.28.75.75,0,0,1-.28.18,1.05,1.05,0,0,1-.7,0,.64.64,0,0,1-.27-.18.75.75,0,0,1-.18-.28,1.23,1.23,0,0,1,0-.35,1,1,0,0,1,.06-.36.7.7,0,0,1,.44-.45.91.91,0,0,1,.7,0,.75.75,0,0,1,.28.18,1,1,0,0,1,.17.27A1,1,0,0,1,56.81,73.65Zm-.43,0a.63.63,0,0,0-.12-.41.37.37,0,0,0-.31-.15.34.34,0,0,0-.22.07.36.36,0,0,0-.15.19.73.73,0,0,0,0,.3.65.65,0,0,0,0,.29.37.37,0,0,0,.37.26.37.37,0,0,0,.31-.14A.65.65,0,0,0,56.38,73.65Z"/><path class="cls-2" d="M57.54,73v0a.74.74,0,0,1,.25-.22.74.74,0,0,1,.31-.07.61.61,0,0,1,.3.08.45.45,0,0,1,.2.21.49.49,0,0,1,.06.17,1.55,1.55,0,0,1,0,.23v.8a.3.3,0,0,1-.06.2.2.2,0,0,1-.15.06.21.21,0,0,1-.16-.06.3.3,0,0,1-.06-.2v-.71a.69.69,0,0,0-.06-.33.23.23,0,0,0-.23-.11.31.31,0,0,0-.21.07.32.32,0,0,0-.14.18,1.48,1.48,0,0,0,0,.36v.54a.28.28,0,0,1-.06.2.25.25,0,0,1-.16.06.2.2,0,0,1-.15-.06.3.3,0,0,1-.06-.2V73a.24.24,0,0,1,0-.18.16.16,0,0,1,.15-.07.19.19,0,0,1,.1,0,.27.27,0,0,1,.07.08A.28.28,0,0,1,57.54,73Z"/><path class="cls-2" d="M60.3,73.76h-.84a.51.51,0,0,0,.06.25.42.42,0,0,0,.15.17.37.37,0,0,0,.21.06l.14,0a.38.38,0,0,0,.13-.06l.11-.08.13-.12a.12.12,0,0,1,.09,0,.18.18,0,0,1,.11,0,.12.12,0,0,1,0,.1.3.3,0,0,1-.05.14.58.58,0,0,1-.13.15.77.77,0,0,1-.24.12,1,1,0,0,1-.32,0,.84.84,0,0,1-.64-.23.85.85,0,0,1-.23-.64,1,1,0,0,1,.06-.36.71.71,0,0,1,.16-.28.75.75,0,0,1,.27-.18,1,1,0,0,1,.35-.06.83.83,0,0,1,.43.11.59.59,0,0,1,.27.27.65.65,0,0,1,.09.35.23.23,0,0,1-.09.21A.6.6,0,0,1,60.3,73.76Zm-.84-.25h.78a.5.5,0,0,0-.12-.33.39.39,0,0,0-.54,0A.55.55,0,0,0,59.46,73.51Z"/><path class="cls-2" d="M62.4,74a.62.62,0,0,1-.08.31.57.57,0,0,1-.26.19,1.22,1.22,0,0,1-.41.06,1,1,0,0,1-.4-.07.5.5,0,0,1-.24-.17.33.33,0,0,1-.08-.22.15.15,0,0,1,0-.12.17.17,0,0,1,.13,0,.15.15,0,0,1,.1,0,.86.86,0,0,1,.07.1.52.52,0,0,0,.16.17.44.44,0,0,0,.25.06.33.33,0,0,0,.21-.06.15.15,0,0,0,.08-.13.18.18,0,0,0-.08-.17,1.22,1.22,0,0,0-.28-.1,3.46,3.46,0,0,1-.37-.11,1,1,0,0,1-.22-.16.36.36,0,0,1-.08-.25A.4.4,0,0,1,61,73a.62.62,0,0,1,.23-.19,1,1,0,0,1,.37-.07,1.36,1.36,0,0,1,.3,0,.73.73,0,0,1,.22.09.4.4,0,0,1,.13.13.3.3,0,0,1,0,.14.17.17,0,0,1,0,.12.2.2,0,0,1-.14,0,.15.15,0,0,1-.11,0,.56.56,0,0,1-.11-.11.35.35,0,0,0-.11-.1.34.34,0,0,0-.18,0,.39.39,0,0,0-.2,0,.14.14,0,0,0-.08.12.13.13,0,0,0,.06.11.53.53,0,0,0,.15.08l.27.06.33.12a.77.77,0,0,1,.19.16A.37.37,0,0,1,62.4,74Z"/><path class="cls-2" d="M62.81,73a.22.22,0,0,1,.07-.17.23.23,0,0,1,.17-.07.26.26,0,0,1,.17.07.21.21,0,0,1,.07.17.28.28,0,0,1-.24.24.23.23,0,0,1-.17-.08A.24.24,0,0,1,62.81,73Zm.24,1.51a.27.27,0,0,1-.17-.06.25.25,0,0,1-.07-.18.26.26,0,0,1,.07-.16.22.22,0,0,1,.17-.07.23.23,0,0,1,.17.07.2.2,0,0,1,.07.16.21.21,0,0,1-.07.18A.25.25,0,0,1,63.05,74.52Z"/><path class="cls-2" d="M64.87,72.2h1a.43.43,0,0,1,.22,0,.2.2,0,0,1,.06.16.28.28,0,0,1-.08.17,1.88,1.88,0,0,1-.18.24l-.21.33a2.82,2.82,0,0,0-.19.48,1.15,1.15,0,0,0-.06.21s0,.12,0,.21l0,.2a.41.41,0,0,1-.09.22.24.24,0,0,1-.32,0,.37.37,0,0,1,0-.2A1,1,0,0,1,65,74a2.57,2.57,0,0,1,.14-.42,3.23,3.23,0,0,1,.24-.5,3.16,3.16,0,0,1,.34-.5h-.84a.34.34,0,0,1-.2,0,.18.18,0,0,1-.07-.15.14.14,0,0,1,.07-.14A.53.53,0,0,1,64.87,72.2Z"/><circle class="cls-2" cx="42.5" cy="73.08" r="1.9"/><path class="cls-6" d="M42.5,75.06a2,2,0,1,1,2-2A2,2,0,0,1,42.5,75.06Zm0-3.81a1.83,1.83,0,1,0,1.83,1.83A1.83,1.83,0,0,0,42.5,71.25Z"/><rect class="cls-2" x="40.6" y="74.75" width="3.8" height="0.66" rx="0.31" ry="0.31"/><path class="cls-6" d="M44.07,75.49H40.93a.41.41,0,1,1,0-.81h3.14a.41.41,0,1,1,0,.81Zm-3.14-.66a.26.26,0,1,0,0,.51h3.14a.26.26,0,1,0,0-.51Z"/><circle class="cls-2" cx="43.87" cy="71.85" r="0.72"/><circle class="cls-4" cx="43.87" cy="71.85" r="0.59"/><path class="cls-1" d="M43.75,72.19h0a.09.09,0,0,1-.06,0L43.53,72a.07.07,0,0,1,.11-.1l.11.12.35-.4a.08.08,0,0,1,.11,0,.07.07,0,0,1,0,.1l-.41.46A.05.05,0,0,1,43.75,72.19Z"/><path class="cls-2" d="M46.93,63.71h.61a1.62,1.62,0,0,1,.41,0,.71.71,0,0,1,.31.16,1.18,1.18,0,0,1,.36.94,2.17,2.17,0,0,1,0,.38,1.25,1.25,0,0,1-.11.31,1,1,0,0,1-.2.25.9.9,0,0,1-.2.14l-.24.07-.29,0h-.61a.45.45,0,0,1-.19,0,.18.18,0,0,1-.08-.11.5.5,0,0,1,0-.18V64a.24.24,0,0,1,.28-.28Zm.19.37v1.56h.53l.14,0a.35.35,0,0,0,.12-.07.86.86,0,0,0,.24-.69,1.09,1.09,0,0,0-.1-.51.49.49,0,0,0-.26-.22,1.31,1.31,0,0,0-.37,0Z"/><path class="cls-2" d="M49.36,63.69h.21c.06,0,.08,0,.08,0s0,0-.08.1l-.18.18-.13.1a.41.41,0,0,1-.19,0s-.07,0-.07,0A.31.31,0,0,1,49,64l.08-.13a.42.42,0,0,1,.1-.15A.26.26,0,0,1,49.36,63.69Zm.08.86v1.24a.28.28,0,0,1-.07.2.21.21,0,0,1-.15.07.22.22,0,0,1-.16-.07.3.3,0,0,1-.05-.2V64.56a.27.27,0,0,1,.05-.19.21.21,0,0,1,.16-.06.2.2,0,0,1,.15.06A.25.25,0,0,1,49.44,64.55Z"/><path class="cls-2" d="M51,65.81a1.81,1.81,0,0,1-.3.19.88.88,0,0,1-.33.06.65.65,0,0,1-.29-.07.44.44,0,0,1-.2-.18.48.48,0,0,1-.06-.24.4.4,0,0,1,.11-.3.58.58,0,0,1,.31-.17l.2,0,.28-.06.25-.07a.53.53,0,0,0-.07-.25.31.31,0,0,0-.25-.08.55.55,0,0,0-.25.05.37.37,0,0,0-.14.14l-.08.12a.14.14,0,0,1-.11,0,.17.17,0,0,1-.12,0,.14.14,0,0,1-.06-.12.37.37,0,0,1,.08-.22.66.66,0,0,1,.26-.18,1.22,1.22,0,0,1,.42-.07,1.32,1.32,0,0,1,.45.07.47.47,0,0,1,.23.21,1.07,1.07,0,0,1,.06.39v.49a.77.77,0,0,0,0,.25.69.69,0,0,1,0,.17.14.14,0,0,1-.06.12.2.2,0,0,1-.14.06.16.16,0,0,1-.13-.07A.7.7,0,0,1,51,65.81Zm0-.62a1.59,1.59,0,0,1-.28.07l-.25.06a.42.42,0,0,0-.13.07.2.2,0,0,0-.06.15.23.23,0,0,0,.07.17.32.32,0,0,0,.2.06.46.46,0,0,0,.23,0,.39.39,0,0,0,.16-.15.62.62,0,0,0,.06-.32Z"/><path class="cls-2" d="M53.19,65.49a.54.54,0,0,1-.09.31.52.52,0,0,1-.26.19,1.21,1.21,0,0,1-.41.07A1.19,1.19,0,0,1,52,66a.58.58,0,0,1-.24-.18.37.37,0,0,1-.08-.22.21.21,0,0,1,0-.12.19.19,0,0,1,.13,0,.12.12,0,0,1,.1,0,.22.22,0,0,1,.07.09.53.53,0,0,0,.16.17.44.44,0,0,0,.25.06.33.33,0,0,0,.21-.06c.06,0,.09-.08.09-.13a.19.19,0,0,0-.09-.17,1.22,1.22,0,0,0-.28-.1,1.73,1.73,0,0,1-.36-.11.67.67,0,0,1-.23-.16.41.41,0,0,1-.08-.25.38.38,0,0,1,.08-.24.52.52,0,0,1,.22-.19,1,1,0,0,1,.37-.06,1.39,1.39,0,0,1,.3,0,.63.63,0,0,1,.22.09.89.89,0,0,1,.14.13.27.27,0,0,1,0,.14.13.13,0,0,1-.05.12.2.2,0,0,1-.14.05.15.15,0,0,1-.11,0,.56.56,0,0,1-.11-.11.35.35,0,0,0-.11-.1.34.34,0,0,0-.18,0,.39.39,0,0,0-.2,0,.13.13,0,0,0-.07.12s0,.09,0,.11a.48.48,0,0,0,.16.08l.26.07a1.82,1.82,0,0,1,.33.11.62.62,0,0,1,.19.16A.38.38,0,0,1,53.19,65.49Z"/><path class="cls-2" d="M55.9,65.52a.45.45,0,0,1,0,.18.7.7,0,0,1-.14.17.84.84,0,0,1-.25.13.9.9,0,0,1-.34,0,.79.79,0,0,1-.62-.23.85.85,0,0,1-.23-.62,1,1,0,0,1,.11-.47.69.69,0,0,1,.29-.32,1,1,0,0,1,.47-.11.94.94,0,0,1,.3,0,.78.78,0,0,1,.24.13.75.75,0,0,1,.15.16.41.41,0,0,1,.05.17.18.18,0,0,1-.06.13.22.22,0,0,1-.14,0,.16.16,0,0,1-.09,0l-.08-.09a.57.57,0,0,0-.16-.18.38.38,0,0,0-.22-.06.37.37,0,0,0-.31.15.64.64,0,0,0-.11.41.73.73,0,0,0,0,.22.49.49,0,0,0,.08.18.36.36,0,0,0,.32.14.4.4,0,0,0,.22-.06.57.57,0,0,0,.16-.18.35.35,0,0,1,.09-.11.14.14,0,0,1,.11,0,.18.18,0,0,1,.13.06A.21.21,0,0,1,55.9,65.52Z"/><path class="cls-2" d="M57.89,65.18a1,1,0,0,1-.06.36.84.84,0,0,1-.18.28.73.73,0,0,1-.27.17.91.91,0,0,1-.7,0,.64.64,0,0,1-.27-.18.8.8,0,0,1-.18-.27,1.11,1.11,0,0,1,0-.72.71.71,0,0,1,.18-.27.64.64,0,0,1,.27-.18,1.05,1.05,0,0,1,.7,0,.75.75,0,0,1,.28.18.88.88,0,0,1,.17.28A1,1,0,0,1,57.89,65.18Zm-.43,0a.65.65,0,0,0-.12-.41.37.37,0,0,0-.31-.15.38.38,0,0,0-.22.07.36.36,0,0,0-.15.19.93.93,0,0,0,0,.6.45.45,0,0,0,.14.19.45.45,0,0,0,.23.07.37.37,0,0,0,.31-.15A.65.65,0,0,0,57.46,65.18Z"/><path class="cls-2" d="M58.62,64.54v.06a.64.64,0,0,1,.25-.22.62.62,0,0,1,.31-.07.6.6,0,0,1,.3.07.45.45,0,0,1,.2.21.49.49,0,0,1,.06.17c0,.06,0,.14,0,.23v.8a.28.28,0,0,1-.06.2.21.21,0,0,1-.15.07.22.22,0,0,1-.16-.07.3.3,0,0,1-.06-.2v-.71a.75.75,0,0,0-.06-.33.25.25,0,0,0-.24-.11.35.35,0,0,0-.21.07.38.38,0,0,0-.13.19,1.25,1.25,0,0,0,0,.36v.53a.28.28,0,0,1-.06.2.21.21,0,0,1-.15.07.24.24,0,0,1-.16-.07.3.3,0,0,1-.06-.2V64.55a.24.24,0,0,1,.06-.18.17.17,0,0,1,.14-.06.2.2,0,0,1,.11,0,.27.27,0,0,1,.07.08A.28.28,0,0,1,58.62,64.54Z"/><path class="cls-2" d="M60.2,64.34h0v-.42l0-.1a.27.27,0,0,1,.08-.07.17.17,0,0,1,.1,0,.2.2,0,0,1,.15.06.21.21,0,0,1,.06.1s0,.1,0,.17v.29h.16a.22.22,0,0,1,.14,0,.14.14,0,0,1,0,.11.12.12,0,0,1-.06.12.56.56,0,0,1-.2,0h-.08v.8a.62.62,0,0,0,0,.15.12.12,0,0,0,0,.09.15.15,0,0,0,.1,0H61a.12.12,0,0,1,.09,0,.13.13,0,0,1,0,.1.18.18,0,0,1-.11.16.75.75,0,0,1-.33.06.6.6,0,0,1-.3-.07.33.33,0,0,1-.14-.19,1.39,1.39,0,0,1,0-.32v-.83h-.06a.2.2,0,0,1-.14,0,.16.16,0,0,1,0-.11.14.14,0,0,1,0-.11A.25.25,0,0,1,60.2,64.34Z"/><path class="cls-2" d="M61.54,64.11a.25.25,0,0,1-.16-.06.21.21,0,0,1-.06-.16.18.18,0,0,1,.07-.15.2.2,0,0,1,.15-.06.24.24,0,0,1,.15.06.19.19,0,0,1,.06.15.21.21,0,0,1-.06.16A.2.2,0,0,1,61.54,64.11Zm.21.44v1.24a.28.28,0,0,1-.06.2.22.22,0,0,1-.16.07.21.21,0,0,1-.15-.07.3.3,0,0,1-.06-.2V64.56a.27.27,0,0,1,.06-.19.2.2,0,0,1,.15-.06.21.21,0,0,1,.16.06A.24.24,0,0,1,61.75,64.55Z"/><path class="cls-2" d="M62.59,64.54v.06a.64.64,0,0,1,.25-.22.6.6,0,0,1,.3-.07.62.62,0,0,1,.31.07.45.45,0,0,1,.2.21.34.34,0,0,1,.05.17,1.4,1.4,0,0,1,0,.23v.8a.28.28,0,0,1-.06.2.22.22,0,0,1-.16.07.21.21,0,0,1-.15-.07.3.3,0,0,1-.06-.2v-.71a.75.75,0,0,0-.06-.33.25.25,0,0,0-.24-.11.35.35,0,0,0-.21.07.4.4,0,0,0-.14.19,1.37,1.37,0,0,0,0,.36v.53a.28.28,0,0,1-.06.2.21.21,0,0,1-.15.07.22.22,0,0,1-.16-.07.3.3,0,0,1-.06-.2V64.55a.24.24,0,0,1,.06-.18.17.17,0,0,1,.14-.06.2.2,0,0,1,.11,0,.27.27,0,0,1,.07.08A.28.28,0,0,1,62.59,64.54Z"/><path class="cls-2" d="M65.22,65.81v0a.81.81,0,0,1-.16.16.5.5,0,0,1-.19.1.75.75,0,0,1-.23,0,.67.67,0,0,1-.28-.06.47.47,0,0,1-.19-.18.81.81,0,0,1-.08-.39v-.86a.27.27,0,0,1,.06-.19.2.2,0,0,1,.15-.06.21.21,0,0,1,.16.06.27.27,0,0,1,.06.19v.69a.85.85,0,0,0,0,.25.26.26,0,0,0,.26.22.37.37,0,0,0,.21-.06.46.46,0,0,0,.14-.17,1.49,1.49,0,0,0,0-.4v-.53a.27.27,0,0,1,.06-.19.2.2,0,0,1,.15-.06.21.21,0,0,1,.16.06.27.27,0,0,1,.06.19v1.25a.24.24,0,0,1-.06.18.18.18,0,0,1-.15.07.21.21,0,0,1-.14-.07A.24.24,0,0,1,65.22,65.81Z"/><path class="cls-2" d="M67.67,65.18a1,1,0,0,1-.06.36.84.84,0,0,1-.18.28.73.73,0,0,1-.27.17.78.78,0,0,1-.35.07.86.86,0,0,1-.36-.07.8.8,0,0,1-.27-.18,1,1,0,0,1-.17-.27,1.11,1.11,0,0,1,0-.72.83.83,0,0,1,.17-.27.8.8,0,0,1,.27-.18,1,1,0,0,1,.36-.06,1,1,0,0,1,.35.06.64.64,0,0,1,.27.18.75.75,0,0,1,.18.28A1,1,0,0,1,67.67,65.18Zm-.44,0a.71.71,0,0,0-.11-.41.37.37,0,0,0-.31-.15.45.45,0,0,0-.23.07.4.4,0,0,0-.14.19.73.73,0,0,0-.06.3.94.94,0,0,0,.05.3.58.58,0,0,0,.15.19.45.45,0,0,0,.23.07.37.37,0,0,0,.31-.15A.71.71,0,0,0,67.23,65.18Z"/><path class="cls-2" d="M69.39,65.49a.54.54,0,0,1-.09.31.49.49,0,0,1-.25.19,1.27,1.27,0,0,1-.42.07,1.13,1.13,0,0,1-.39-.07.7.7,0,0,1-.25-.18.37.37,0,0,1-.08-.22.21.21,0,0,1,0-.12.21.21,0,0,1,.13,0,.14.14,0,0,1,.11,0l.07.09a.42.42,0,0,0,.15.17.5.5,0,0,0,.26.06.37.37,0,0,0,.21-.06.17.17,0,0,0,.08-.13.19.19,0,0,0-.09-.17,1.06,1.06,0,0,0-.28-.1,1.73,1.73,0,0,1-.36-.11.63.63,0,0,1-.22-.16.37.37,0,0,1-.09-.25.46.46,0,0,1,.08-.24.55.55,0,0,1,.23-.19,1,1,0,0,1,.36-.06,1.39,1.39,0,0,1,.3,0,.56.56,0,0,1,.22.09.6.6,0,0,1,.14.13.3.3,0,0,1,0,.14.17.17,0,0,1,0,.12.22.22,0,0,1-.14.05.16.16,0,0,1-.12,0,.57.57,0,0,1-.1-.11.38.38,0,0,0-.12-.1.3.3,0,0,0-.18,0,.36.36,0,0,0-.19,0,.14.14,0,0,0-.08.12.11.11,0,0,0,.06.11.53.53,0,0,0,.15.08l.27.07a1.48,1.48,0,0,1,.32.11.52.52,0,0,1,.19.16A.31.31,0,0,1,69.39,65.49Z"/><path class="cls-2" d="M69.8,64.54a.21.21,0,0,1,.07-.17.25.25,0,0,1,.17-.06.27.27,0,0,1,.17.06.24.24,0,0,1,.06.17.21.21,0,0,1-.07.16.24.24,0,0,1-.16.08.26.26,0,0,1-.17-.07A.23.23,0,0,1,69.8,64.54ZM70,66.06a.22.22,0,0,1-.17-.07.21.21,0,0,1-.07-.17.22.22,0,0,1,.07-.17.21.21,0,0,1,.17-.07.2.2,0,0,1,.16.07.22.22,0,0,1,.07.17.21.21,0,0,1-.07.17A.24.24,0,0,1,70,66.06Z"/><path class="cls-2" d="M71.85,63.73H72.9a.41.41,0,0,1,.22,0,.19.19,0,0,1,.07.16.38.38,0,0,1-.08.18l-.18.24a1.77,1.77,0,0,0-.21.32,2.78,2.78,0,0,0-.2.48c0,.08,0,.15,0,.21s0,.12,0,.21,0,.15,0,.2a.41.41,0,0,1-.09.22.21.21,0,0,1-.17.07A.21.21,0,0,1,72,66a.3.3,0,0,1-.06-.2,1.76,1.76,0,0,1,0-.27,4.11,4.11,0,0,1,.14-.42c.07-.16.15-.33.24-.5a3.79,3.79,0,0,1,.35-.5h-.85a.33.33,0,0,1-.19,0,.16.16,0,0,1-.07-.15c0-.07,0-.12.07-.14A.5.5,0,0,1,71.85,63.73Z"/><path class="cls-7" d="M41.28,63.41a.6.6,0,0,1,.36.3c.16.27.41.32.5-.15a1.18,1.18,0,0,0-.27-1.32,1,1,0,0,1,.91.62,2.69,2.69,0,0,1,.1.7c0,.28.28.17.41,0a.8.8,0,0,0,0-.57.92.92,0,0,1,.38.47,6.29,6.29,0,0,1,0,1,1.34,1.34,0,0,1,.38,1.14,1.38,1.38,0,0,1-1.38,1.26A1.47,1.47,0,0,1,41,65.51a2,2,0,0,1,.24-1.12A1.2,1.2,0,0,0,41.28,63.41Z"/><path class="cls-8" d="M42.43,64.18a.52.52,0,0,1,.14.63c-.18.38-.29.61.06.67s.27-.23.24-.4c.16,0,.52.4.42.8s-.29.7-.73.66-.68-.22-.73-.88.59-1,.6-1.19A1,1,0,0,0,42.43,64.18Z"/><path class="cls-2" d="M47.07,81.14l.52,1.55.53-1.56.06-.17a.16.16,0,0,1,.07-.09.17.17,0,0,1,.13,0,.2.2,0,0,1,.11,0,.3.3,0,0,1,.08.08.19.19,0,0,1,0,.1.17.17,0,0,1,0,.07s0,.06,0,.08l0,.08L48,82.78l-.06.17a.61.61,0,0,1-.07.14.24.24,0,0,1-.11.09.25.25,0,0,1-.16,0,.29.29,0,0,1-.16,0,.28.28,0,0,1-.1-.09.61.61,0,0,1-.07-.14l-.06-.17-.55-1.49,0-.08,0-.09s0-.06,0-.08a.17.17,0,0,1,.07-.14.19.19,0,0,1,.16-.07.18.18,0,0,1,.17.07A1,1,0,0,1,47.07,81.14Z"/><path class="cls-2" d="M50.37,82.35a1,1,0,0,1-.06.35.88.88,0,0,1-.17.28.8.8,0,0,1-.27.18,1,1,0,0,1-.36.06,1,1,0,0,1-.35-.06.8.8,0,0,1-.27-.18.73.73,0,0,1-.17-.28,1,1,0,0,1-.06-.35,1,1,0,0,1,.06-.36.73.73,0,0,1,.17-.28.64.64,0,0,1,.27-.18,1,1,0,0,1,.35-.06,1,1,0,0,1,.36.06,1.27,1.27,0,0,1,.27.18.73.73,0,0,1,.17.28A1,1,0,0,1,50.37,82.35Zm-.43,0a.61.61,0,0,0-.12-.41.36.36,0,0,0-.31-.15.4.4,0,0,0-.22.06.53.53,0,0,0-.15.2.85.85,0,0,0,0,.3.84.84,0,0,0,0,.29.41.41,0,0,0,.15.19.34.34,0,0,0,.22.07.36.36,0,0,0,.31-.15A.62.62,0,0,0,49.94,82.35Z"/><path class="cls-2" d="M52.25,82.69a.38.38,0,0,1,0,.17.59.59,0,0,1-.15.17.86.86,0,0,1-.25.14,1.16,1.16,0,0,1-.34,0,.85.85,0,0,1-.62-.23.88.88,0,0,1-.22-.63,1,1,0,0,1,.1-.47.75.75,0,0,1,.3-.31.85.85,0,0,1,.46-.11.81.81,0,0,1,.31,0,.71.71,0,0,1,.23.12.47.47,0,0,1,.15.17.27.27,0,0,1,0,.16.16.16,0,0,1-.06.13.15.15,0,0,1-.13.05s-.07,0-.09,0a.36.36,0,0,1-.08-.09.74.74,0,0,0-.17-.18.38.38,0,0,0-.22-.06.36.36,0,0,0-.3.15.62.62,0,0,0-.12.4.8.8,0,0,0,0,.23.46.46,0,0,0,.09.17.28.28,0,0,0,.13.11.39.39,0,0,0,.18,0,.38.38,0,0,0,.22-.06.44.44,0,0,0,.16-.19l.09-.11a.15.15,0,0,1,.11,0,.16.16,0,0,1,.13.06A.17.17,0,0,1,52.25,82.69Z"/><path class="cls-2" d="M53.72,83a1.69,1.69,0,0,1-.3.18.88.88,0,0,1-.33.06.65.65,0,0,1-.29-.06.59.59,0,0,1-.2-.18.53.53,0,0,1-.06-.24.44.44,0,0,1,.11-.31.58.58,0,0,1,.31-.16l.2,0,.28-.06.25-.06a.47.47,0,0,0-.07-.25c0-.06-.12-.08-.25-.08a.57.57,0,0,0-.25,0A.47.47,0,0,0,53,82l-.08.12a.14.14,0,0,1-.11,0,.17.17,0,0,1-.12,0,.14.14,0,0,1-.06-.12.4.4,0,0,1,.08-.22.56.56,0,0,1,.26-.17,1,1,0,0,1,.42-.07,1.36,1.36,0,0,1,.45.06.49.49,0,0,1,.23.22,1,1,0,0,1,.06.38v.49a.82.82,0,0,0,0,.26.54.54,0,0,1,0,.17.17.17,0,0,1-.06.12.24.24,0,0,1-.14,0,.18.18,0,0,1-.13-.06A.7.7,0,0,1,53.72,83Zm0-.63a1.68,1.68,0,0,1-.28.08l-.25,0a.46.46,0,0,0-.13.08.17.17,0,0,0-.06.14.22.22,0,0,0,.07.17.27.27,0,0,0,.2.07.46.46,0,0,0,.23-.06.32.32,0,0,0,.16-.14.65.65,0,0,0,.06-.32Z"/><path class="cls-2" d="M54.9,81.08v.65a1.38,1.38,0,0,1,.25-.19.74.74,0,0,1,.31-.07.68.68,0,0,1,.38.11.6.6,0,0,1,.25.29,1.08,1.08,0,0,1,.09.46,1.36,1.36,0,0,1,0,.36A.82.82,0,0,1,56,83a.83.83,0,0,1-.23.19.73.73,0,0,1-.3.06l-.19,0a.52.52,0,0,1-.15-.07.39.39,0,0,1-.1-.08.66.66,0,0,1-.12-.12v0a.31.31,0,0,1,0,.19.22.22,0,0,1-.3,0,.31.31,0,0,1,0-.19V81.1a.28.28,0,0,1,0-.2.16.16,0,0,1,.15-.07.2.2,0,0,1,.15.06A.29.29,0,0,1,54.9,81.08Zm0,1.27a.58.58,0,0,0,.12.4.4.4,0,0,0,.31.14.37.37,0,0,0,.28-.14.63.63,0,0,0,.12-.41.84.84,0,0,0,0-.29.4.4,0,0,0-.14-.19.31.31,0,0,0-.21-.07.36.36,0,0,0-.22.07.49.49,0,0,0-.15.19A.73.73,0,0,0,54.92,82.35Z"/><path class="cls-2" d="M57.6,83v-.06a1.33,1.33,0,0,1-.16.17l-.19.1a.8.8,0,0,1-.23,0,.53.53,0,0,1-.28-.07.47.47,0,0,1-.19-.18.81.81,0,0,1-.08-.39v-.85a.3.3,0,0,1,.06-.2.2.2,0,0,1,.15-.06.21.21,0,0,1,.16.06.3.3,0,0,1,.06.2v.69a.9.9,0,0,0,0,.25.26.26,0,0,0,.26.22.4.4,0,0,0,.21-.07.39.39,0,0,0,.14-.17,1.6,1.6,0,0,0,0-.4v-.52a.3.3,0,0,1,.06-.2.23.23,0,0,1,.16-.06.21.21,0,0,1,.16.06.37.37,0,0,1,0,.2V83a.26.26,0,0,1,0,.19.2.2,0,0,1-.15.06.18.18,0,0,1-.14-.06A.28.28,0,0,1,57.6,83Z"/><path class="cls-2" d="M58.43,83V81.09a.27.27,0,0,1,.06-.19.19.19,0,0,1,.16-.07.18.18,0,0,1,.15.07.25.25,0,0,1,.06.19V83a.3.3,0,0,1-.06.2.2.2,0,0,1-.15.06.19.19,0,0,1-.16-.07A.27.27,0,0,1,58.43,83Z"/><path class="cls-2" d="M60.4,83a1.45,1.45,0,0,1-.31.18.79.79,0,0,1-.32.06.65.65,0,0,1-.29-.06.59.59,0,0,1-.2-.18.55.55,0,0,1-.07-.24.45.45,0,0,1,.12-.31.54.54,0,0,1,.3-.16l.21,0,.28-.06.25-.06a.47.47,0,0,0-.07-.25c0-.06-.13-.08-.25-.08a.57.57,0,0,0-.25,0,.47.47,0,0,0-.14.14l-.08.12a.16.16,0,0,1-.11,0,.21.21,0,0,1-.13,0,.17.17,0,0,1-.05-.12.4.4,0,0,1,.08-.22.58.58,0,0,1,.25-.17,1.11,1.11,0,0,1,.43-.07,1.25,1.25,0,0,1,.44.06.41.41,0,0,1,.23.22.81.81,0,0,1,.07.38v.49a.82.82,0,0,0,0,.26,1.2,1.2,0,0,1,0,.17.15.15,0,0,1-.07.12.19.19,0,0,1-.27,0A.7.7,0,0,1,60.4,83Zm0-.63-.28.08-.25,0a.46.46,0,0,0-.13.08.17.17,0,0,0-.06.14.22.22,0,0,0,.07.17.25.25,0,0,0,.19.07.48.48,0,0,0,.24-.06.32.32,0,0,0,.16-.14.65.65,0,0,0,.06-.32Z"/><path class="cls-2" d="M61.65,82.6V83a.3.3,0,0,1-.06.2.2.2,0,0,1-.15.06.19.19,0,0,1-.16-.07.25.25,0,0,1-.06-.19v-1.2c0-.19.07-.29.21-.29a.18.18,0,0,1,.16.07.34.34,0,0,1,0,.2.56.56,0,0,1,.16-.2.29.29,0,0,1,.22-.07.51.51,0,0,1,.26.07.2.2,0,0,1,.13.18.18.18,0,0,1-.06.13.17.17,0,0,1-.12.05l-.11,0-.16,0a.25.25,0,0,0-.15,0,.28.28,0,0,0-.1.15,1.2,1.2,0,0,0,0,.23A2.92,2.92,0,0,0,61.65,82.6Z"/><path class="cls-2" d="M62.86,81.27a.2.2,0,0,1-.15-.06.16.16,0,0,1-.07-.15.18.18,0,0,1,.07-.15.2.2,0,0,1,.15-.06.3.3,0,0,1,.15.05.21.21,0,0,1,.06.16.18.18,0,0,1-.06.15A.2.2,0,0,1,62.86,81.27Zm.21.45V83a.25.25,0,0,1-.06.19.19.19,0,0,1-.16.07.18.18,0,0,1-.15-.07.27.27,0,0,1-.06-.19V81.73a.3.3,0,0,1,.06-.2.2.2,0,0,1,.15-.06.21.21,0,0,1,.16.06A.29.29,0,0,1,63.07,81.72Z"/><path class="cls-2" d="M65.13,82.35a1,1,0,0,1-.06.35.75.75,0,0,1-.18.28.64.64,0,0,1-.27.18,1.05,1.05,0,0,1-.7,0,.64.64,0,0,1-.27-.18.75.75,0,0,1-.18-.28,1,1,0,0,1-.06-.35,1,1,0,0,1,.06-.36.75.75,0,0,1,.18-.28.64.64,0,0,1,.27-.18,1.05,1.05,0,0,1,.7,0,1.12,1.12,0,0,1,.28.18.88.88,0,0,1,.17.28A1,1,0,0,1,65.13,82.35Zm-.43,0a.61.61,0,0,0-.12-.41.37.37,0,0,0-.31-.15.37.37,0,0,0-.37.26.67.67,0,0,0,0,.3.65.65,0,0,0,0,.29.4.4,0,0,0,.14.19.37.37,0,0,0,.23.07.37.37,0,0,0,.31-.15A.62.62,0,0,0,64.7,82.35Z"/><path class="cls-2" d="M65.51,81.71a.25.25,0,0,1,.07-.18.27.27,0,0,1,.17-.06.25.25,0,0,1,.17.06.25.25,0,0,1,.07.18.24.24,0,0,1-.08.16.21.21,0,0,1-.16.07.22.22,0,0,1-.17-.07A.26.26,0,0,1,65.51,81.71Zm.24,1.51a.27.27,0,0,1-.17-.06.25.25,0,0,1-.07-.18.24.24,0,0,1,.07-.16.22.22,0,0,1,.17-.07.27.27,0,0,1,.17.06A.28.28,0,0,1,66,83a.27.27,0,0,1-.07.18A.25.25,0,0,1,65.75,83.22Z"/><path class="cls-2" d="M67.57,80.89h1.05a.36.36,0,0,1,.21,0,.17.17,0,0,1,.07.16.28.28,0,0,1-.08.17l-.18.24a2.37,2.37,0,0,0-.21.33,2.78,2.78,0,0,0-.2.48c0,.08,0,.15,0,.2s0,.13,0,.22,0,.15,0,.2a.45.45,0,0,1-.09.22.23.23,0,0,1-.16.06.19.19,0,0,1-.16-.07.27.27,0,0,1-.06-.19,1.28,1.28,0,0,1,0-.28,4.17,4.17,0,0,1,.38-.91,3.77,3.77,0,0,1,.34-.51h-.84a.28.28,0,0,1-.2-.05.16.16,0,0,1-.07-.15.15.15,0,0,1,.07-.14A.53.53,0,0,1,67.57,80.89Z"/><rect class="cls-9" x="41.24" y="79.22" width="0.35" height="0.89" rx="0.16" ry="0.16"/><rect class="cls-10" x="40.64" y="79.89" width="3.3" height="4.8" rx="1.56" ry="1.56"/><path class="cls-11" d="M43.11,84.91H41.46a1,1,0,0,1-1.05-1V80.71a1,1,0,0,1,1.05-1h1.65a1,1,0,0,1,1,1v3.15A1,1,0,0,1,43.11,84.91Zm-1.65-4.8a.6.6,0,0,0-.6.6v3.15a.6.6,0,0,0,.6.6h1.65a.6.6,0,0,0,.6-.6V80.71a.6.6,0,0,0-.6-.6Z"/><rect class="cls-9" x="42.88" y="80.11" width="0.3" height="4.35"/><path class="cls-9" d="M41.5,81.54h.41a1.12,1.12,0,0,1,.27,0,.56.56,0,0,1,.2.11.79.79,0,0,1,.24.63,1,1,0,0,1,0,.25,1,1,0,0,1-.07.21.7.7,0,0,1-.13.16.42.42,0,0,1-.14.09.43.43,0,0,1-.16,0h-.59a.24.24,0,0,1-.13,0,.13.13,0,0,1-.06-.07.53.53,0,0,1,0-.13V81.73a.2.2,0,0,1,0-.14A.21.21,0,0,1,41.5,81.54Zm.12.25v1H42l.09,0,.08,0a.54.54,0,0,0,.16-.45.62.62,0,0,0-.07-.34.3.3,0,0,0-.17-.15.88.88,0,0,0-.24,0Z"/><line class="cls-2" x1="35.13" y1="60.3" x2="81.83" y2="60.3"/><rect class="cls-2" x="35.13" y="59.91" width="46.7" height="0.78"/><line class="cls-2" x1="35.13" y1="69.01" x2="81.83" y2="69.01"/><rect class="cls-2" x="35.13" y="68.63" width="46.7" height="0.78"/><line class="cls-2" x1="35.13" y1="77.84" x2="81.83" y2="77.84"/><rect class="cls-2" x="35.13" y="77.45" width="46.7" height="0.78"/><line class="cls-2" x1="35.13" y1="86.34" x2="81.83" y2="86.34"/><rect class="cls-2" x="35.13" y="85.96" width="46.7" height="0.78"/><path class="cls-2" d="M46.85,55v1.53h.86a.25.25,0,0,1,.16.05.19.19,0,0,1,0,.26.25.25,0,0,1-.16,0h-1a.28.28,0,0,1-.2-.06.27.27,0,0,1-.06-.2V55a.27.27,0,0,1,.06-.19.2.2,0,0,1,.15-.06.21.21,0,0,1,.16.06A.27.27,0,0,1,46.85,55Z"/><path class="cls-2" d="M48.18,55.59l.31.89.35-.93a.48.48,0,0,1,.08-.16.12.12,0,0,1,.11,0,.17.17,0,0,1,.13,0,.16.16,0,0,1,.05.11.13.13,0,0,1,0,.06.14.14,0,0,1,0,.07l0,.07-.37.93,0,.1-.06.11a.27.27,0,0,1-.08.07l-.11,0a.2.2,0,0,1-.13,0,.18.18,0,0,1-.07-.08s0-.09-.08-.18l-.37-.92,0-.07a.19.19,0,0,1,0-.07.18.18,0,0,1,0-.06.19.19,0,0,1,0-.08l.07-.07.09,0a.18.18,0,0,1,.14,0A1.35,1.35,0,0,1,48.18,55.59Z"/><path class="cls-2" d="M49.26,56.94a.25.25,0,0,1-.16-.06.21.21,0,0,1-.06-.16.21.21,0,0,1,.21-.21.25.25,0,0,1,.16.06.2.2,0,0,1,.06.15.21.21,0,0,1-.06.16A.24.24,0,0,1,49.26,56.94Z"/><path class="cls-2" d="M50.72,56.71V55.4a1.09,1.09,0,0,1-.49.28.11.11,0,0,1-.1,0,.14.14,0,0,1-.05-.11.11.11,0,0,1,.05-.1.45.45,0,0,1,.16-.09,1.7,1.7,0,0,0,.28-.18.86.86,0,0,0,.18-.2l.1-.14a.22.22,0,0,1,.1,0,.14.14,0,0,1,.12.06.25.25,0,0,1,0,.16v1.64c0,.19-.06.29-.19.29a.17.17,0,0,1-.14-.06A.24.24,0,0,1,50.72,56.71Z"/><path class="cls-2" d="M52.47,56.14a2.5,2.5,0,0,1,0-.4,2.29,2.29,0,0,1,.12-.37,2.16,2.16,0,0,1,.19-.37.85.85,0,0,1,.11-.16.24.24,0,0,1,.09-.06h.1s.07,0,.07,0a.88.88,0,0,1-.06.16,2.71,2.71,0,0,0-.13.3,3.33,3.33,0,0,0-.11.39,2.54,2.54,0,0,0-.05.49,2.46,2.46,0,0,0,.05.49c0,.16.07.29.11.4l.13.31.06.14s0,0-.07,0H53a.23.23,0,0,1-.08-.07.61.61,0,0,1-.11-.16,2.09,2.09,0,0,1-.19-.36,1.58,1.58,0,0,1-.11-.37A1.73,1.73,0,0,1,52.47,56.14Z"/><path class="cls-2" d="M54.62,56.67l-.1-.27h-.85l-.11.27a.5.5,0,0,1-.1.21.14.14,0,0,1-.13.06.18.18,0,0,1-.14-.06.16.16,0,0,1-.07-.13.29.29,0,0,1,0-.09.79.79,0,0,1,0-.13l.53-1.36.06-.15a.4.4,0,0,1,.07-.13.2.2,0,0,1,.09-.09.39.39,0,0,1,.3,0,.28.28,0,0,1,.1.09l.06.11s0,.1.06.16L55,56.52a.85.85,0,0,1,.07.22.21.21,0,0,1-.07.14.2.2,0,0,1-.14.06l-.09,0-.06-.05a.36.36,0,0,1,0-.09Zm-.84-.59h.63l-.32-.87Z"/><path class="cls-2" d="M55.45,55v.6a.73.73,0,0,1,.22-.18.61.61,0,0,1,.28-.06.68.68,0,0,1,.35.09.6.6,0,0,1,.22.27.93.93,0,0,1,.09.42,1,1,0,0,1,0,.32.71.71,0,0,1-.13.26.68.68,0,0,1-.21.17.6.6,0,0,1-.27.06l-.17,0a.39.39,0,0,1-.13-.06l-.1-.07-.1-.11v0a.2.2,0,0,1-.06.16.16.16,0,0,1-.13.06.15.15,0,0,1-.13-.06.19.19,0,0,1-.05-.16V55a.3.3,0,0,1,0-.18.18.18,0,0,1,.14-.06.22.22,0,0,1,.14,0A.29.29,0,0,1,55.45,55Zm0,1.16a.53.53,0,0,0,.11.36.34.34,0,0,0,.28.13.35.35,0,0,0,.26-.13.58.58,0,0,0,.1-.37.77.77,0,0,0,0-.27A.37.37,0,0,0,56,55.7a.31.31,0,0,0-.19-.06.36.36,0,0,0-.2.06.44.44,0,0,0-.14.18A.76.76,0,0,0,55.46,56.15Z"/><path class="cls-2" d="M57.9,56.43a.51.51,0,0,1-.07.28.61.61,0,0,1-.24.17,1,1,0,0,1-.37.06,1,1,0,0,1-.36-.06.6.6,0,0,1-.23-.17.37.37,0,0,1-.07-.19.17.17,0,0,1,.16-.16.13.13,0,0,1,.1,0,.35.35,0,0,1,.06.09.43.43,0,0,0,.37.21.32.32,0,0,0,.2-.06.13.13,0,0,0,.07-.12.17.17,0,0,0-.08-.15,1,1,0,0,0-.25-.09,2.25,2.25,0,0,1-.33-.1.66.66,0,0,1-.21-.15.32.32,0,0,1-.07-.22.36.36,0,0,1,.07-.22.51.51,0,0,1,.21-.17.81.81,0,0,1,.33-.06,1.12,1.12,0,0,1,.27,0,.76.76,0,0,1,.2.08.51.51,0,0,1,.13.12.33.33,0,0,1,0,.13.16.16,0,0,1,0,.11.21.21,0,0,1-.23,0,.53.53,0,0,1-.09-.11l-.11-.09a.35.35,0,0,0-.16,0,.34.34,0,0,0-.18,0,.13.13,0,0,0-.07.12.14.14,0,0,0,.05.1l.14.06.24.06a1.46,1.46,0,0,1,.3.11.36.36,0,0,1,.17.15A.31.31,0,0,1,57.9,56.43Z"/><path class="cls-2" d="M59.43,56.14a.88.88,0,0,1-.06.33.72.72,0,0,1-.16.25.63.63,0,0,1-.24.16.88.88,0,0,1-.33.06.83.83,0,0,1-.32-.06.78.78,0,0,1-.24-.16.82.82,0,0,1-.16-.25.88.88,0,0,1-.05-.33.86.86,0,0,1,.05-.32.72.72,0,0,1,.16-.25.81.81,0,0,1,.24-.17,1.13,1.13,0,0,1,.32,0,.88.88,0,0,1,.33.06.56.56,0,0,1,.24.16.6.6,0,0,1,.16.25A.87.87,0,0,1,59.43,56.14Zm-.4,0a.58.58,0,0,0-.1-.37.35.35,0,0,0-.29-.13.36.36,0,0,0-.2.06.37.37,0,0,0-.13.17.76.76,0,0,0-.05.27.68.68,0,0,0,.05.27.35.35,0,0,0,.13.18.36.36,0,0,0,.2.06.36.36,0,0,0,.29-.14A.56.56,0,0,0,59,56.14Z"/><path class="cls-2" d="M59.46,56.7V55a.23.23,0,0,1,0-.17.19.19,0,0,1,.28,0,.22.22,0,0,1,.06.17v1.7a.24.24,0,0,1-.06.18.17.17,0,0,1-.14.06.18.18,0,0,1-.14-.06A.3.3,0,0,1,59.46,56.7Z"/><path class="cls-2" d="M61,56.72v0a.67.67,0,0,1-.14.15.56.56,0,0,1-.17.09.66.66,0,0,1-.21,0,.55.55,0,0,1-.26-.06.44.44,0,0,1-.17-.16.74.74,0,0,1-.07-.36v-.78c0-.08,0-.14.05-.17a.19.19,0,0,1,.28,0,.22.22,0,0,1,.06.17v.63a1.4,1.4,0,0,0,0,.23.27.27,0,0,0,.08.14.22.22,0,0,0,.16.05.41.41,0,0,0,.19-.05.34.34,0,0,0,.13-.16,1.27,1.27,0,0,0,0-.36v-.48a.22.22,0,0,1,.06-.17.17.17,0,0,1,.14-.06.18.18,0,0,1,.14.06.25.25,0,0,1,0,.17v1.14a.23.23,0,0,1,0,.16.17.17,0,0,1-.26,0A.21.21,0,0,1,61,56.72Z"/><path class="cls-2" d="M61.5,55.38h0v-.23a.58.58,0,0,1,0-.15.2.2,0,0,1,0-.09.23.23,0,0,1,.07-.07.15.15,0,0,1,.09,0,.19.19,0,0,1,.14,0,.2.2,0,0,1,.05.09.71.71,0,0,1,0,.16v.26h.14a.22.22,0,0,1,.13,0,.14.14,0,0,1,0,.1.1.1,0,0,1-.07.11.42.42,0,0,1-.18,0h-.07v.73a.57.57,0,0,0,0,.14.11.11,0,0,0,0,.08.12.12,0,0,0,.09,0h.1l.09,0a.12.12,0,0,1,.08,0,.12.12,0,0,1,0,.09.15.15,0,0,1-.1.15.78.78,0,0,1-.3,0,.55.55,0,0,1-.28-.06.3.3,0,0,1-.12-.17,1.17,1.17,0,0,1,0-.29v-.76h0a.17.17,0,0,1-.13,0,.12.12,0,0,1,0-.1.13.13,0,0,1,0-.1A.26.26,0,0,1,61.5,55.38Z"/><path class="cls-2" d="M63.33,56.24h-.76a.6.6,0,0,0,0,.24.5.5,0,0,0,.14.15.41.41,0,0,0,.19,0l.13,0a.22.22,0,0,0,.11,0l.1-.07.12-.11a.12.12,0,0,1,.09,0,.14.14,0,0,1,.13.13.21.21,0,0,1,0,.12.43.43,0,0,1-.13.14.68.68,0,0,1-.21.11.85.85,0,0,1-.29,0,.75.75,0,0,1-.58-.22.78.78,0,0,1-.21-.58.86.86,0,0,1,0-.32.68.68,0,0,1,.15-.26.67.67,0,0,1,.24-.16.86.86,0,0,1,.32,0,.82.82,0,0,1,.4.09.64.64,0,0,1,.24.25.61.61,0,0,1,.09.31.2.2,0,0,1-.09.2A.55.55,0,0,1,63.33,56.24ZM62.57,56h.71a.46.46,0,0,0-.11-.3.32.32,0,0,0-.25-.1.3.3,0,0,0-.24.1A.51.51,0,0,0,62.57,56Z"/><path class="cls-2" d="M64.53,55v.6a.87.87,0,0,1,.22-.18.65.65,0,0,1,.29-.06.64.64,0,0,1,.34.09.62.62,0,0,1,.23.27,1.08,1.08,0,0,1,.08.42,1,1,0,0,1,0,.32.71.71,0,0,1-.13.26.51.51,0,0,1-.21.17.6.6,0,0,1-.27.06l-.17,0a.52.52,0,0,1-.13-.06l-.1-.07-.1-.11v0a.23.23,0,0,1,0,.16.18.18,0,0,1-.14.06.16.16,0,0,1-.13-.06.23.23,0,0,1,0-.16V55a.24.24,0,0,1,0-.18.15.15,0,0,1,.13-.06.2.2,0,0,1,.14,0A.29.29,0,0,1,64.53,55Zm0,1.16a.53.53,0,0,0,.1.36.35.35,0,0,0,.28.13.35.35,0,0,0,.26-.13.58.58,0,0,0,.11-.37.76.76,0,0,0,0-.27.43.43,0,0,0-.12-.17.34.34,0,0,0-.2-.06.31.31,0,0,0-.19.06.37.37,0,0,0-.14.18A.59.59,0,0,0,64.55,56.15Z"/><path class="cls-2" d="M66.82,56.24h-.77a.48.48,0,0,0,.06.24.4.4,0,0,0,.14.15.38.38,0,0,0,.19,0l.13,0a.27.27,0,0,0,.11,0l.1-.07.12-.11a.11.11,0,0,1,.08,0,.12.12,0,0,1,.1,0,.1.1,0,0,1,0,.09.21.21,0,0,1,0,.12.43.43,0,0,1-.13.14.68.68,0,0,1-.21.11.85.85,0,0,1-.29,0,.77.77,0,0,1-.59-.22.78.78,0,0,1-.21-.58.87.87,0,0,1,.06-.32.68.68,0,0,1,.15-.26.6.6,0,0,1,.24-.16.83.83,0,0,1,.32,0,.78.78,0,0,1,.39.09.67.67,0,0,1,.25.25.71.71,0,0,1,.08.31.22.22,0,0,1-.08.2A.55.55,0,0,1,66.82,56.24ZM66.05,56h.71a.46.46,0,0,0-.1-.3.33.33,0,0,0-.25-.1.3.3,0,0,0-.24.1A.59.59,0,0,0,66.05,56Z"/><path class="cls-2" d="M68.6,55.63v1.14a1.67,1.67,0,0,1,0,.34.59.59,0,0,1-.14.23.57.57,0,0,1-.24.14,1.31,1.31,0,0,1-.37,0,1,1,0,0,1-.36-.06.51.51,0,0,1-.24-.14.26.26,0,0,1-.09-.19.16.16,0,0,1,0-.11.17.17,0,0,1,.12-.05.22.22,0,0,1,.15.08l.06.08.08.06a.15.15,0,0,0,.1,0l.13,0a.63.63,0,0,0,.23,0,.23.23,0,0,0,.12-.12.47.47,0,0,0,0-.17c0-.05,0-.15,0-.27a.76.76,0,0,1-.21.19.61.61,0,0,1-.28.06.6.6,0,0,1-.35-.1.63.63,0,0,1-.22-.28,1.07,1.07,0,0,1-.08-.41,1,1,0,0,1,.05-.32.57.57,0,0,1,.14-.24.43.43,0,0,1,.2-.15.71.71,0,0,1,.26,0,.61.61,0,0,1,.28.06.72.72,0,0,1,.23.2v0a.25.25,0,0,1,0-.16.19.19,0,0,1,.13,0c.08,0,.13,0,.15.07A.41.41,0,0,1,68.6,55.63Zm-1.14.5a.53.53,0,0,0,.11.36.34.34,0,0,0,.27.12.31.31,0,0,0,.18,0,.32.32,0,0,0,.14-.16.49.49,0,0,0,.06-.25.61.61,0,0,0-.11-.38.33.33,0,0,0-.28-.13.32.32,0,0,0-.27.13A.59.59,0,0,0,67.46,56.13Z"/><path class="cls-2" d="M68.92,55.17a.2.2,0,0,1-.14-.05.2.2,0,0,1-.06-.15.16.16,0,0,1,.06-.13.18.18,0,0,1,.14-.06.21.21,0,0,1,.13,0,.19.19,0,0,1,0,.28A.18.18,0,0,1,68.92,55.17Zm.19.4V56.7a.24.24,0,0,1-.06.18.17.17,0,0,1-.14.06.18.18,0,0,1-.14-.06.3.3,0,0,1,0-.18V55.58a.26.26,0,0,1,0-.17.18.18,0,0,1,.14-.06.17.17,0,0,1,.14.06A.21.21,0,0,1,69.11,55.57Z"/><path class="cls-2" d="M69.59,55.56v0a.7.7,0,0,1,.23-.2.61.61,0,0,1,.28-.06.53.53,0,0,1,.28.07.37.37,0,0,1,.18.19.38.38,0,0,1,0,.15,1.34,1.34,0,0,1,0,.21v.73a.3.3,0,0,1-.05.18.18.18,0,0,1-.14.06.17.17,0,0,1-.14-.06.24.24,0,0,1-.06-.18v-.65a.78.78,0,0,0,0-.3.23.23,0,0,0-.22-.1.33.33,0,0,0-.19.06.3.3,0,0,0-.12.17,1.21,1.21,0,0,0,0,.33v.49a.24.24,0,0,1-.06.18.17.17,0,0,1-.14.06.18.18,0,0,1-.14-.06.24.24,0,0,1,0-.18V55.57a.29.29,0,0,1,0-.17.22.22,0,0,1,.14,0l.09,0a.19.19,0,0,1,.07.08A.36.36,0,0,1,69.59,55.56Z"/><path class="cls-2" d="M71.09,55.56v0a.62.62,0,0,1,.23-.2.61.61,0,0,1,.28-.06.55.55,0,0,1,.28.07.37.37,0,0,1,.18.19.66.66,0,0,1,0,.15,1.34,1.34,0,0,1,0,.21v.73a.3.3,0,0,1-.05.18.2.2,0,0,1-.14.06.2.2,0,0,1-.15-.06.3.3,0,0,1,0-.18v-.65a.78.78,0,0,0,0-.3.23.23,0,0,0-.22-.1.33.33,0,0,0-.19.06.37.37,0,0,0-.13.17,1.34,1.34,0,0,0,0,.33v.49a.24.24,0,0,1-.06.18.18.18,0,0,1-.14.06.17.17,0,0,1-.14-.06.24.24,0,0,1-.06-.18V55.57a.29.29,0,0,1,0-.17.2.2,0,0,1,.14,0l.09,0a.19.19,0,0,1,.07.08A.36.36,0,0,1,71.09,55.56Z"/><path class="cls-2" d="M73.33,56.24h-.77a.6.6,0,0,0,0,.24.67.67,0,0,0,.14.15.41.41,0,0,0,.19,0l.13,0a.31.31,0,0,0,.12,0l.1-.07.11-.11a.14.14,0,0,1,.09,0,.13.13,0,0,1,.1,0,.13.13,0,0,1,0,.09.24.24,0,0,1,0,.12.39.39,0,0,1-.12.14,1,1,0,0,1-.21.11.88.88,0,0,1-.29,0,.76.76,0,0,1-.59-.22.78.78,0,0,1-.21-.58,1.13,1.13,0,0,1,0-.32,1.1,1.1,0,0,1,.15-.26.72.72,0,0,1,.25-.16,1,1,0,0,1,.71,0,.75.75,0,0,1,.25.25.71.71,0,0,1,.08.31.2.2,0,0,1-.09.2A.47.47,0,0,1,73.33,56.24ZM72.56,56h.71a.46.46,0,0,0-.11-.3.3.3,0,0,0-.25-.1.33.33,0,0,0-.24.1A.51.51,0,0,0,72.56,56Z"/><path class="cls-2" d="M74.09,56.37v.33a.3.3,0,0,1,0,.18.2.2,0,0,1-.15.06.2.2,0,0,1-.14-.06.3.3,0,0,1,0-.18V55.61c0-.17.06-.26.19-.26a.16.16,0,0,1,.14.06.3.3,0,0,1,0,.18.7.7,0,0,1,.14-.18.32.32,0,0,1,.2-.06.53.53,0,0,1,.24.06.19.19,0,0,1,.12.16.17.17,0,0,1,0,.12.18.18,0,0,1-.11.05l-.1,0-.15,0a.22.22,0,0,0-.14,0,.25.25,0,0,0-.09.13,1.09,1.09,0,0,0,0,.22C74.1,56.16,74.09,56.26,74.09,56.37Z"/><path class="cls-2" d="M75.37,56.14a1.87,1.87,0,0,1-.09.59,2.24,2.24,0,0,1-.25.55.62.62,0,0,1-.15.2.24.24,0,0,1-.15,0s-.08,0-.08,0l.06-.14a2.23,2.23,0,0,0,.13-.3,2.83,2.83,0,0,0,.11-.4,2,2,0,0,0,0-.5,2,2,0,0,0,0-.49,3,3,0,0,0-.11-.41c0-.11-.09-.21-.13-.3a.71.71,0,0,1-.06-.14s0,0,.08,0a.33.33,0,0,1,.15,0A.62.62,0,0,1,75,55a1.91,1.91,0,0,1,.15.28,1.48,1.48,0,0,1,.1.27,2.86,2.86,0,0,1,.07.28C75.36,55.93,75.37,56,75.37,56.14Z"/><rect class="cls-2" x="40.14" y="53.72" width="4.48" height="4.48" rx="2.11" ry="2.11"/><path class="cls-12" d="M42.38,58.46A2.51,2.51,0,1,1,44.89,56,2.5,2.5,0,0,1,42.38,58.46Zm0-4.48a2,2,0,1,0,2,2A2,2,0,0,0,42.38,54Z"/><path class="cls-4" d="M40.47,55.49a2,2,0,0,0-.06.49h0a2,2,0,0,0,2,2h0a2,2,0,0,0,2-2h0a2,2,0,0,0-.07-.49Z"/><rect class="cls-1" x="10.62" y="7.82" width="13.59" height="19.71" rx="2.35" ry="2.35"/><line class="cls-13" x1="13.43" y1="10.94" x2="21.4" y2="10.94"/><path class="cls-2" d="M21.4,13.61h-8a.36.36,0,0,1,0-.71h8a.36.36,0,0,1,0,.71Z"/><path class="cls-2" d="M21.4,15.92h-8a.35.35,0,0,1-.35-.35.35.35,0,0,1,.35-.35h8a.34.34,0,0,1,.35.35A.35.35,0,0,1,21.4,15.92Z"/><path class="cls-2" d="M21.4,18.23h-8a.35.35,0,0,1-.35-.35.35.35,0,0,1,.35-.35h8a.35.35,0,0,1,.35.35A.34.34,0,0,1,21.4,18.23Z"/><path class="cls-2" d="M21.4,20.55h-8a.35.35,0,0,1-.35-.35.35.35,0,0,1,.35-.35h8a.34.34,0,0,1,.35.35A.35.35,0,0,1,21.4,20.55Z"/><path class="cls-2" d="M21.4,22.86h-8a.35.35,0,0,1-.35-.35.35.35,0,0,1,.35-.35h8a.35.35,0,0,1,.35.35A.34.34,0,0,1,21.4,22.86Z"/><path class="cls-2" d="M21.4,25.18h-8a.36.36,0,0,1,0-.71h8a.36.36,0,0,1,0,.71Z"/><rect class="cls-3" x="26.28" y="15.57" width="1.46" height="8.5"/><path class="cls-14" d="M26.28,15.57l.66-1.51a.08.08,0,0,1,.14,0l.66,1.51Z"/><polygon class="cls-6" points="26.85 14.27 27.17 14.27 27.01 13.92 26.85 14.27"/><rect x="26.28" y="24.06" width="1.46" height="0.16"/><path class="cls-15" d="M26.28,24.23h1.46a0,0,0,0,1,0,0v0A.73.73,0,0,1,27,25h0a.73.73,0,0,1-.73-.73v0a0,0,0,0,1,0,0Z"/><path class="cls-1" d="M5.66,35.5H5.19v.71a.32.32,0,0,1-.07.23.22.22,0,0,1-.18.08.19.19,0,0,1-.18-.08.3.3,0,0,1-.08-.23V34.28A.34.34,0,0,1,4.76,34,.41.41,0,0,1,5,34h.65a1.75,1.75,0,0,1,.45,0,.6.6,0,0,1,.26.14.69.69,0,0,1,.18.24,1.14,1.14,0,0,1,0,.33.74.74,0,0,1-.23.58A1.11,1.11,0,0,1,5.66,35.5Zm-.12-1.15H5.19v.76h.35a1.26,1.26,0,0,0,.3,0A.35.35,0,0,0,6,35a.31.31,0,0,0,.07-.22.41.41,0,0,0-.1-.27C5.92,34.38,5.77,34.35,5.54,34.35Z"/><path class="cls-1" d="M7.29,35.85v.39a.33.33,0,0,1-.07.21.24.24,0,0,1-.34,0,.33.33,0,0,1-.06-.21V34.93c0-.21.07-.31.23-.31a.18.18,0,0,1,.16.07.34.34,0,0,1,.06.22.84.84,0,0,1,.17-.22.36.36,0,0,1,.24-.07.62.62,0,0,1,.29.07.22.22,0,0,1,.14.2.2.2,0,0,1-.06.14.18.18,0,0,1-.13,0l-.13,0-.17,0a.29.29,0,0,0-.17,0,.37.37,0,0,0-.1.16,1.72,1.72,0,0,0,0,.26C7.29,35.59,7.29,35.7,7.29,35.85Z"/><path class="cls-1" d="M9.31,36.26V36.2a1,1,0,0,1-.17.18.75.75,0,0,1-.2.1.71.71,0,0,1-.26,0,.6.6,0,0,1-.3-.07.51.51,0,0,1-.21-.2.82.82,0,0,1-.09-.42V34.9a.29.29,0,0,1,.07-.21.21.21,0,0,1,.17-.07.22.22,0,0,1,.17.07.29.29,0,0,1,.06.21v.75a1,1,0,0,0,0,.27.32.32,0,0,0,.1.17.25.25,0,0,0,.19.07.41.41,0,0,0,.22-.07.42.42,0,0,0,.16-.19,1.66,1.66,0,0,0,0-.43V34.9a.29.29,0,0,1,.06-.21.22.22,0,0,1,.17-.07.21.21,0,0,1,.17.07.29.29,0,0,1,.06.21v1.35a.33.33,0,0,1-.06.21.2.2,0,0,1-.15.06.19.19,0,0,1-.16-.07A.27.27,0,0,1,9.31,36.26Z"/><path class="cls-1" d="M11.35,35.68h-.91a.68.68,0,0,0,.06.29.42.42,0,0,0,.17.18.44.44,0,0,0,.23.06l.15,0a.31.31,0,0,0,.13-.06L11.3,36l.15-.13a.15.15,0,0,1,.1,0,.16.16,0,0,1,.12,0,.12.12,0,0,1,0,.11.26.26,0,0,1-.05.15.55.55,0,0,1-.15.16.84.84,0,0,1-.25.13,1.23,1.23,0,0,1-.35.05.91.91,0,0,1-.7-.26.93.93,0,0,1-.25-.69,1.23,1.23,0,0,1,.06-.39.75.75,0,0,1,.18-.3.84.84,0,0,1,.29-.2,1.23,1.23,0,0,1,.39-.07.89.89,0,0,1,.47.12.76.76,0,0,1,.29.3.74.74,0,0,1,.1.37c0,.12,0,.2-.1.23A.58.58,0,0,1,11.35,35.68Zm-.91-.26h.85a.66.66,0,0,0-.13-.36.41.41,0,0,0-.3-.12.38.38,0,0,0-.29.12A.59.59,0,0,0,10.44,35.42Z"/><path class="cls-1" d="M12.34,34.19v.71a1.24,1.24,0,0,1,.27-.21.74.74,0,0,1,.34-.07.76.76,0,0,1,.41.11.73.73,0,0,1,.28.32,1.28,1.28,0,0,1,.09.5,1.23,1.23,0,0,1-.05.39,1,1,0,0,1-.16.31.69.69,0,0,1-.25.2.68.68,0,0,1-.32.07l-.21,0-.16-.07-.11-.09-.13-.13v0a.28.28,0,0,1-.06.2.2.2,0,0,1-.16.07.19.19,0,0,1-.16-.07.28.28,0,0,1-.06-.2v-2A.34.34,0,0,1,12,34a.19.19,0,0,1,.16-.07.21.21,0,0,1,.17.07A.37.37,0,0,1,12.34,34.19Zm0,1.39a.67.67,0,0,0,.12.43.43.43,0,0,0,.34.15.37.37,0,0,0,.3-.15.66.66,0,0,0,.13-.44,1,1,0,0,0,0-.32.57.57,0,0,0-.15-.21.37.37,0,0,0-.23-.07.4.4,0,0,0-.24.07.49.49,0,0,0-.16.21A.81.81,0,0,0,12.37,35.58Z"/><path class="cls-1" d="M15.12,36.26a2.08,2.08,0,0,1-.33.2,1,1,0,0,1-.36.06.62.62,0,0,1-.31-.07.44.44,0,0,1-.21-.19.5.5,0,0,1-.08-.27.47.47,0,0,1,.12-.32.67.67,0,0,1,.34-.19l.22,0,.3-.07.28-.07A.43.43,0,0,0,15,35q-.06-.09-.27-.09a.62.62,0,0,0-.27.05.36.36,0,0,0-.15.15l-.1.13s-.05,0-.11,0a.24.24,0,0,1-.14,0,.19.19,0,0,1-.05-.13.46.46,0,0,1,.08-.24.6.6,0,0,1,.28-.19,1.19,1.19,0,0,1,.46-.08,1.22,1.22,0,0,1,.48.08.38.38,0,0,1,.25.23,1,1,0,0,1,.08.42v.28c0,.07,0,.16,0,.25a1,1,0,0,0,.05.28.65.65,0,0,1,0,.18.16.16,0,0,1-.07.13.2.2,0,0,1-.15.06.17.17,0,0,1-.14-.07A.79.79,0,0,1,15.12,36.26Zm0-.68-.3.08-.28.06a.34.34,0,0,0-.14.08.22.22,0,0,0-.07.16.25.25,0,0,0,.08.18.31.31,0,0,0,.21.07.55.55,0,0,0,.26-.06A.36.36,0,0,0,15,36a.63.63,0,0,0,.07-.35Z"/><path class="cls-1" d="M17.83,36.25v0a.94.94,0,0,1-.18.17.78.78,0,0,1-.2.11.88.88,0,0,1-.24,0,.67.67,0,0,1-.31-.07.79.79,0,0,1-.25-.2.81.81,0,0,1-.15-.31,1.23,1.23,0,0,1-.06-.39,1,1,0,0,1,.22-.68.79.79,0,0,1,.9-.18,1,1,0,0,1,.27.21v-.69a.36.36,0,0,1,.06-.22.19.19,0,0,1,.16-.07.19.19,0,0,1,.17.07.28.28,0,0,1,.06.2v2.06a.28.28,0,0,1-.07.21.21.21,0,0,1-.16.06.18.18,0,0,1-.15-.07A.24.24,0,0,1,17.83,36.25Zm-.92-.68a.79.79,0,0,0,.06.32.41.41,0,0,0,.16.2.39.39,0,0,0,.23.07.4.4,0,0,0,.22-.06.48.48,0,0,0,.17-.2.94.94,0,0,0,0-.66.48.48,0,0,0-.17-.2.37.37,0,0,0-.23-.07.39.39,0,0,0-.23.07.47.47,0,0,0-.15.21A.79.79,0,0,0,16.91,35.57Z"/><path class="cls-1" d="M19.88,35.68H19A.57.57,0,0,0,19,36a.4.4,0,0,0,.16.18.46.46,0,0,0,.23.06l.16,0a.38.38,0,0,0,.13-.06l.12-.09.14-.13a.18.18,0,0,1,.11,0,.15.15,0,0,1,.11,0,.13.13,0,0,1,0,.11.37.37,0,0,1,0,.15,1.1,1.1,0,0,1-.15.16.79.79,0,0,1-.26.13,1.16,1.16,0,0,1-.34.05.91.91,0,0,1-.71-.26,1,1,0,0,1-.25-.69,1.23,1.23,0,0,1,.06-.39.91.91,0,0,1,.19-.3.69.69,0,0,1,.29-.2,1.12,1.12,0,0,1,.38-.07.89.89,0,0,1,.47.12.86.86,0,0,1,.3.3.84.84,0,0,1,.09.37c0,.12,0,.2-.1.23A.54.54,0,0,1,19.88,35.68ZM19,35.42h.85a.54.54,0,0,0-.13-.36.41.41,0,0,0-.58,0A.6.6,0,0,0,19,35.42Z"/><path class="cls-1" d="M21.61,34.88v0a.85.85,0,0,1,.27-.24.74.74,0,0,1,.34-.07.62.62,0,0,1,.33.08.49.49,0,0,1,.22.23.48.48,0,0,1,.06.18,1.93,1.93,0,0,1,0,.26v.87a.33.33,0,0,1-.06.21.21.21,0,0,1-.17.07.22.22,0,0,1-.17-.07.33.33,0,0,1-.06-.21v-.78a.7.7,0,0,0-.07-.36.26.26,0,0,0-.25-.12.37.37,0,0,0-.23.07.41.41,0,0,0-.15.21,1.17,1.17,0,0,0,0,.39v.59a.33.33,0,0,1-.06.21.24.24,0,0,1-.18.07.2.2,0,0,1-.16-.07.28.28,0,0,1-.07-.21V34.88a.3.3,0,0,1,.06-.2.21.21,0,0,1,.16-.06.2.2,0,0,1,.11,0,.16.16,0,0,1,.08.08A.33.33,0,0,1,21.61,34.88Z"/><path class="cls-1" d="M23.37,34.4a.27.27,0,0,1-.17-.06.24.24,0,0,1-.07-.17.24.24,0,0,1,.4-.17.19.19,0,0,1,.07.17.21.21,0,0,1-.07.17A.23.23,0,0,1,23.37,34.4Zm.23.48v1.36a.33.33,0,0,1-.06.21.23.23,0,0,1-.17.07.21.21,0,0,1-.17-.07.33.33,0,0,1-.07-.21V34.9a.29.29,0,0,1,.07-.21.21.21,0,0,1,.17-.07.23.23,0,0,1,.17.07A.27.27,0,0,1,23.6,34.88Z"/><path class="cls-1" d="M24.24,34.91,24.62,36,25,34.86a.67.67,0,0,1,.09-.19.23.23,0,0,1,.15-.05.22.22,0,0,1,.15.06.18.18,0,0,1,.06.14.2.2,0,0,1,0,.07l0,.08,0,.08L25,36.16a1.12,1.12,0,0,1-.05.13.47.47,0,0,1-.07.12.18.18,0,0,1-.09.08.25.25,0,0,1-.13,0,.27.27,0,0,1-.16,0,.24.24,0,0,1-.08-.1,1.72,1.72,0,0,1-.1-.22l-.45-1.1,0-.08,0-.09s0,0,0-.07a.22.22,0,0,1,0-.1.27.27,0,0,1,.08-.07.23.23,0,0,1,.11,0,.21.21,0,0,1,.17.06A1.57,1.57,0,0,1,24.24,34.91Z"/><path class="cls-1" d="M26.9,35.68H26a.68.68,0,0,0,.06.29.42.42,0,0,0,.17.18.44.44,0,0,0,.23.06l.15,0a.31.31,0,0,0,.13-.06l.12-.09.15-.13a.15.15,0,0,1,.1,0,.16.16,0,0,1,.12,0,.12.12,0,0,1,0,.11.37.37,0,0,1-.05.15.55.55,0,0,1-.15.16.84.84,0,0,1-.25.13,1.23,1.23,0,0,1-.35.05.89.89,0,0,1-.7-.26.93.93,0,0,1-.25-.69,1.23,1.23,0,0,1,.06-.39.83.83,0,0,1,.47-.5,1.18,1.18,0,0,1,.39-.07.89.89,0,0,1,.47.12.76.76,0,0,1,.29.3.74.74,0,0,1,.1.37.24.24,0,0,1-.1.23A.6.6,0,0,1,26.9,35.68ZM26,35.42h.85a.66.66,0,0,0-.13-.36.41.41,0,0,0-.3-.12.38.38,0,0,0-.29.12A.59.59,0,0,0,26,35.42Z"/><path class="cls-1" d="M27.51,36.24v-2a.33.33,0,0,1,.06-.21.24.24,0,0,1,.34,0,.33.33,0,0,1,.07.21v2a.33.33,0,0,1-.07.21.24.24,0,0,1-.34,0A.33.33,0,0,1,27.51,36.24Z"/><path class="cls-1" d="M29.74,36.24V34.68a1.36,1.36,0,0,1-.59.34A.18.18,0,0,1,29,35a.21.21,0,0,1-.05-.13A.16.16,0,0,1,29,34.7a.84.84,0,0,1,.2-.11,1.33,1.33,0,0,0,.33-.21,1.7,1.7,0,0,0,.22-.24,1.22,1.22,0,0,1,.12-.16A.16.16,0,0,1,30,34a.18.18,0,0,1,.15.07.27.27,0,0,1,.05.19v2c0,.23-.07.34-.23.34a.21.21,0,0,1-.17-.07A.31.31,0,0,1,29.74,36.24Z"/><path class="cls-2" d="M55.9,91.36l-.4-1.6v1.73a.34.34,0,0,1-.06.22.22.22,0,0,1-.17.07.21.21,0,0,1-.17-.07.34.34,0,0,1-.07-.22v-2a.24.24,0,0,1,.09-.22.39.39,0,0,1,.23-.06h.16a.49.49,0,0,1,.2,0,.13.13,0,0,1,.1.09,2,2,0,0,1,.07.22l.36,1.37.37-1.37a1,1,0,0,1,.07-.22.13.13,0,0,1,.09-.09.55.55,0,0,1,.21,0h.16a.41.41,0,0,1,.23.06.27.27,0,0,1,.08.22v2a.34.34,0,0,1-.06.22.24.24,0,0,1-.34,0,.34.34,0,0,1-.06-.22V89.76l-.41,1.6a1.46,1.46,0,0,1-.06.23.38.38,0,0,1-.09.13.29.29,0,0,1-.19.06.24.24,0,0,1-.15,0,.22.22,0,0,1-.09-.1.52.52,0,0,1-.06-.13A.83.83,0,0,0,55.9,91.36Z"/><path class="cls-2" d="M59,91.52a2,2,0,0,1-.33.19.86.86,0,0,1-.36.07.62.62,0,0,1-.31-.07.55.55,0,0,1-.21-.19.5.5,0,0,1-.07-.27.47.47,0,0,1,.12-.32.59.59,0,0,1,.33-.18l.22,0,.3-.07.28-.07a.58.58,0,0,0-.08-.27q-.06-.09-.27-.09a.62.62,0,0,0-.27,0,.54.54,0,0,0-.15.15l-.09.13a.17.17,0,0,1-.12,0,.15.15,0,0,1-.13,0,.14.14,0,0,1-.06-.12.36.36,0,0,1,.09-.24.58.58,0,0,1,.27-.2,1.2,1.2,0,0,1,.46-.07,1.28,1.28,0,0,1,.48.07.47.47,0,0,1,.25.23,1,1,0,0,1,.07.42v.53a1.45,1.45,0,0,0,0,.28.85.85,0,0,1,.05.18.19.19,0,0,1-.07.13.22.22,0,0,1-.15.06.21.21,0,0,1-.15-.07A1.17,1.17,0,0,1,59,91.52Zm0-.68a2,2,0,0,1-.3.08l-.27.06a.55.55,0,0,0-.15.08.22.22,0,0,0-.07.16.25.25,0,0,0,.08.18.31.31,0,0,0,.21.07.55.55,0,0,0,.26-.06.36.36,0,0,0,.17-.15.74.74,0,0,0,.07-.35Zm-.29-1.63h.24s.08,0,.08,0a.64.64,0,0,1-.09.11l-.2.19-.13.1a.41.41,0,0,1-.21,0c-.05,0-.07,0-.07,0a.22.22,0,0,1,0-.1l.08-.14a.38.38,0,0,1,.11-.16A.24.24,0,0,1,58.69,89.21Z"/><path class="cls-2" d="M61.29,91.17a.58.58,0,0,1-.09.33.56.56,0,0,1-.28.21,1.33,1.33,0,0,1-.88,0,.65.65,0,0,1-.26-.19.37.37,0,0,1-.09-.23.16.16,0,0,1,.06-.13.18.18,0,0,1,.25,0,.44.44,0,0,1,.08.1.45.45,0,0,0,.17.19.51.51,0,0,0,.27.06.41.41,0,0,0,.23-.06.19.19,0,0,0,.09-.15.2.2,0,0,0-.09-.18,1.61,1.61,0,0,0-.31-.1,2.94,2.94,0,0,1-.39-.13.61.61,0,0,1-.24-.17.38.38,0,0,1-.1-.27.43.43,0,0,1,.09-.26.51.51,0,0,1,.25-.2.9.9,0,0,1,.39-.08,1.15,1.15,0,0,1,.33,0A1.33,1.33,0,0,1,61,90a.47.47,0,0,1,.14.14.23.23,0,0,1,.05.15.14.14,0,0,1-.05.13.2.2,0,0,1-.15,0,.2.2,0,0,1-.13,0,.44.44,0,0,1-.11-.12.45.45,0,0,0-.13-.11.34.34,0,0,0-.19,0,.46.46,0,0,0-.21,0,.15.15,0,0,0-.08.14.14.14,0,0,0,.06.12.48.48,0,0,0,.16.08l.29.07a1.84,1.84,0,0,1,.36.13.58.58,0,0,1,.2.17A.37.37,0,0,1,61.29,91.17Z"/><path class="cls-2" d="M47,51.52,48.37,49a.49.49,0,0,1,.87,0l1.3,2.47"/></g></g></svg>