<svg xmlns="http://www.w3.org/2000/svg" viewBox="0 0 99.58 110.53"><defs><style>.cls-1{fill:#fff;}.cls-2{fill:#020e18;}.cls-3{fill:#ffe000;}.cls-4{fill:#f9ea95;}.cls-5{fill:#239ac4;}.cls-6{fill:#d346b5;}</style></defs><title>examen_de_progreso_1</title><g id="Capa_2" data-name="Capa 2"><g id="Capa_1-2" data-name="Capa 1"><circle class="cls-1" cx="79.5" cy="46.12" r="4.16"/><circle class="cls-1" cx="54.83" cy="108.64" r="1.5"/><circle class="cls-2" cx="49.79" cy="49.79" r="48.2"/><path class="cls-3" d="M49.79,99.58A49.79,49.79,0,1,1,99.58,49.79,49.85,49.85,0,0,1,49.79,99.58Zm0-96.41A46.62,46.62,0,1,0,96.41,49.79,46.67,46.67,0,0,0,49.79,3.17Z"/><rect class="cls-2" x="1.59" y="92.17" width="96.41" height="16.78" rx="8.39" ry="8.39"/><path class="cls-3" d="M89.61,110.53H10a10,10,0,0,1,0-20H89.61a10,10,0,0,1,0,20ZM10,93.75a6.81,6.81,0,0,0,0,13.61H89.61a6.81,6.81,0,0,0,0-13.61Z"/><rect class="cls-1" x="30.21" y="22.24" width="38.67" height="56.06" rx="6.98" ry="6.98"/><path class="cls-2" d="M60.88,38.71H38.21a1,1,0,0,1,0-2H60.88a1,1,0,0,1,0,2Z"/><path class="cls-2" d="M60.88,45.29H38.21a1,1,0,0,1,0-2H60.88a1,1,0,0,1,0,2Z"/><path class="cls-2" d="M60.88,51.87H38.21a1,1,0,0,1,0-2H60.88a1,1,0,0,1,0,2Z"/><path class="cls-2" d="M60.88,58.46H38.21a1,1,0,0,1,0-2H60.88a1,1,0,0,1,0,2Z"/><path class="cls-2" d="M60.88,65H38.21a1,1,0,0,1,0-2H60.88a1,1,0,1,1,0,2Z"/><path class="cls-2" d="M60.88,71.62H38.21a1,1,0,0,1,0-2H60.88a1,1,0,0,1,0,2Z"/><rect class="cls-3" x="74.76" y="44.29" width="4.16" height="24.17"/><path class="cls-4" d="M74.76,44.29,76.64,40a.22.22,0,0,1,.4,0l1.88,4.28Z"/><polygon class="cls-5" points="76.38 40.6 77.3 40.6 76.84 39.6 76.38 40.6"/><rect x="74.76" y="68.46" width="4.16" height="0.46"/><path class="cls-6" d="M74.76,68.92h4.16a0,0,0,0,1,0,0v1.4a.77.77,0,0,1-.77.77H75.53a.77.77,0,0,1-.77-.77v-1.4A0,0,0,0,1,74.76,68.92Z"/><path class="cls-1" d="M16.11,101H14.78v2a.93.93,0,0,1-.21.66.72.72,0,0,1-1,0,.91.91,0,0,1-.2-.65V97.5a.88.88,0,0,1,.22-.68,1,1,0,0,1,.7-.21h1.86a5.09,5.09,0,0,1,1.27.13,1.83,1.83,0,0,1,.75.41,1.71,1.71,0,0,1,.49.69,2.43,2.43,0,0,1,.17.92,2,2,0,0,1-.68,1.66A3,3,0,0,1,16.11,101Zm-.36-3.28h-1v2.19h1a3,3,0,0,0,.86-.11,1,1,0,0,0,.53-.35,1,1,0,0,0,.18-.64A1.12,1.12,0,0,0,17,98,1.88,1.88,0,0,0,15.75,97.7Z"/><path class="cls-1" d="M20.73,102v1.11a.89.89,0,0,1-.19.61.63.63,0,0,1-.49.2.59.59,0,0,1-.47-.2.91.91,0,0,1-.19-.61V99.37c0-.6.22-.9.65-.9a.54.54,0,0,1,.48.21,1.15,1.15,0,0,1,.16.62,2.57,2.57,0,0,1,.49-.62,1,1,0,0,1,.68-.21,1.69,1.69,0,0,1,.81.21.64.64,0,0,1,.4.56.53.53,0,0,1-.17.4.52.52,0,0,1-.37.16,1.87,1.87,0,0,1-.35-.09,1.66,1.66,0,0,0-.5-.09.67.67,0,0,0-.47.16.93.93,0,0,0-.29.45,2.79,2.79,0,0,0-.14.72A10,10,0,0,0,20.73,102Z"/><path class="cls-1" d="M26.5,103.14V103a3.07,3.07,0,0,1-.51.51,1.56,1.56,0,0,1-.57.3,2.26,2.26,0,0,1-.71.1,1.75,1.75,0,0,1-.87-.2,1.31,1.31,0,0,1-.59-.55,2.39,2.39,0,0,1-.25-1.22V99.27a.86.86,0,0,1,.18-.6.68.68,0,0,1,1,0,.85.85,0,0,1,.19.6v2.13a3.4,3.4,0,0,0,.08.78.91.91,0,0,0,.28.5.84.84,0,0,0,.55.17,1.07,1.07,0,0,0,.63-.2,1.12,1.12,0,0,0,.44-.52,4.41,4.41,0,0,0,.11-1.24V99.27a.9.9,0,0,1,.18-.6.66.66,0,0,1,.49-.2.63.63,0,0,1,.48.2.86.86,0,0,1,.18.6v3.86a.78.78,0,0,1-.18.57.55.55,0,0,1-.44.19.59.59,0,0,1-.46-.19A.85.85,0,0,1,26.5,103.14Z"/><path class="cls-1" d="M32.3,101.51H29.69a1.71,1.71,0,0,0,.18.8,1.22,1.22,0,0,0,.48.52A1.2,1.2,0,0,0,31,103a1.44,1.44,0,0,0,.43-.06,1.22,1.22,0,0,0,.39-.17c.12-.08.23-.17.34-.26s.24-.21.4-.37a.45.45,0,0,1,.3-.09.48.48,0,0,1,.33.12.41.41,0,0,1,.13.31.89.89,0,0,1-.15.43,1.61,1.61,0,0,1-.42.46,2.43,2.43,0,0,1-.72.37,3,3,0,0,1-1,.14,2.64,2.64,0,0,1-2-.73,2.71,2.71,0,0,1-.71-2,3.23,3.23,0,0,1,.17-1.09,2.5,2.5,0,0,1,.51-.87,2.36,2.36,0,0,1,.83-.55,3,3,0,0,1,1.1-.2,2.69,2.69,0,0,1,1.34.33,2.23,2.23,0,0,1,.84.86,2.29,2.29,0,0,1,.27,1.06c0,.34-.09.55-.28.65A1.83,1.83,0,0,1,32.3,101.51Zm-2.61-.76h2.42a1.7,1.7,0,0,0-.37-1,1.15,1.15,0,0,0-.85-.34,1.05,1.05,0,0,0-.81.35A1.64,1.64,0,0,0,29.69,100.75Z"/><path class="cls-1" d="M35.12,97.25v2a3.12,3.12,0,0,1,.76-.6,2,2,0,0,1,1-.21A2.12,2.12,0,0,1,38,98.8a2,2,0,0,1,.78.91,3.42,3.42,0,0,1,.28,1.42,3.54,3.54,0,0,1-.16,1.11,2.69,2.69,0,0,1-.44.88,2,2,0,0,1-1.64.77,2.12,2.12,0,0,1-.57-.07,1.84,1.84,0,0,1-.47-.19,2.09,2.09,0,0,1-.32-.25,3.6,3.6,0,0,1-.35-.38v.13a.81.81,0,0,1-.18.57.6.6,0,0,1-.46.19.55.55,0,0,1-.45-.19.81.81,0,0,1-.17-.57V97.31A1,1,0,0,1,34,96.7a.55.55,0,0,1,.46-.21.59.59,0,0,1,.47.2A.85.85,0,0,1,35.12,97.25Zm.06,4a1.88,1.88,0,0,0,.36,1.23,1.21,1.21,0,0,0,1,.42,1.12,1.12,0,0,0,.87-.43,1.93,1.93,0,0,0,.36-1.26,2.42,2.42,0,0,0-.15-.9,1.33,1.33,0,0,0-.43-.59,1.05,1.05,0,0,0-.65-.21,1.14,1.14,0,0,0-.68.21,1.36,1.36,0,0,0-.47.6A2.38,2.38,0,0,0,35.18,101.21Z"/><path class="cls-1" d="M43,103.14a4.32,4.32,0,0,1-.93.57,2.71,2.71,0,0,1-1,.18,1.81,1.81,0,0,1-.9-.2,1.46,1.46,0,0,1-.6-.55,1.42,1.42,0,0,1-.21-.75,1.34,1.34,0,0,1,.34-.93,1.76,1.76,0,0,1,1-.52l.63-.13.86-.19.78-.21a1.45,1.45,0,0,0-.21-.77,1,1,0,0,0-.78-.25,1.7,1.7,0,0,0-.77.14,1.29,1.29,0,0,0-.44.43,3.68,3.68,0,0,1-.26.37.42.42,0,0,1-.32.09.55.55,0,0,1-.39-.14.47.47,0,0,1-.16-.37,1.1,1.1,0,0,1,.25-.68,1.65,1.65,0,0,1,.77-.55,3.57,3.57,0,0,1,1.32-.22,3.71,3.71,0,0,1,1.38.21,1.32,1.32,0,0,1,.71.66,2.85,2.85,0,0,1,.21,1.19c0,.31,0,.58,0,.8V102a2.81,2.81,0,0,0,.12.79,2.48,2.48,0,0,1,.12.52.5.5,0,0,1-.19.38.65.65,0,0,1-.44.16.57.57,0,0,1-.4-.19A2.88,2.88,0,0,1,43,103.14Zm-.08-1.93a5.57,5.57,0,0,1-.86.23l-.77.18a1,1,0,0,0-.41.22.55.55,0,0,0-.19.45.65.65,0,0,0,.23.52.84.84,0,0,0,.6.21,1.66,1.66,0,0,0,.73-.17,1.26,1.26,0,0,0,.49-.45,2,2,0,0,0,.18-1Z"/><path class="cls-1" d="M50.73,103.13V103a3,3,0,0,1-.53.5,1.71,1.71,0,0,1-.57.29,2,2,0,0,1-.66.1,1.91,1.91,0,0,1-.89-.2,2,2,0,0,1-.7-.58,2.73,2.73,0,0,1-.46-.88,3.9,3.9,0,0,1-.15-1.1,2.87,2.87,0,0,1,.61-1.95,2.05,2.05,0,0,1,1.61-.7,2.18,2.18,0,0,1,1,.2,2.79,2.79,0,0,1,.77.61v-2a1.07,1.07,0,0,1,.16-.62.57.57,0,0,1,.47-.21.62.62,0,0,1,.47.19.86.86,0,0,1,.16.57v5.88a.78.78,0,0,1-.18.57.55.55,0,0,1-.45.19.58.58,0,0,1-.45-.19A.81.81,0,0,1,50.73,103.13Zm-2.62-2a2.34,2.34,0,0,0,.17.93,1.26,1.26,0,0,0,.46.57,1.12,1.12,0,0,0,.64.19,1.19,1.19,0,0,0,.64-.18,1.24,1.24,0,0,0,.46-.56,2.21,2.21,0,0,0,.18-1,2.11,2.11,0,0,0-.18-.91,1.33,1.33,0,0,0-.47-.59,1.13,1.13,0,0,0-.64-.2,1.1,1.1,0,0,0-.66.21,1.28,1.28,0,0,0-.44.59A2.29,2.29,0,0,0,48.11,101.17Z"/><path class="cls-1" d="M56.55,101.51H53.94a1.85,1.85,0,0,0,.18.8,1.22,1.22,0,0,0,.48.52,1.2,1.2,0,0,0,.65.18,1.51,1.51,0,0,0,.44-.06,1.17,1.17,0,0,0,.38-.17,3,3,0,0,0,.34-.26l.41-.37a.42.42,0,0,1,.29-.09.45.45,0,0,1,.33.12.37.37,0,0,1,.13.31,1,1,0,0,1-.14.43,1.83,1.83,0,0,1-.43.46,2.43,2.43,0,0,1-.72.37,3,3,0,0,1-1,.14,2.66,2.66,0,0,1-2-.73,2.75,2.75,0,0,1-.71-2,3.51,3.51,0,0,1,.17-1.09,2.38,2.38,0,0,1,.52-.87,2.2,2.2,0,0,1,.83-.55,2.94,2.94,0,0,1,1.09-.2,2.69,2.69,0,0,1,1.34.33,2.23,2.23,0,0,1,.84.86,2.3,2.3,0,0,1,.28,1.06.66.66,0,0,1-.29.65A1.77,1.77,0,0,1,56.55,101.51Zm-2.61-.76h2.42a1.64,1.64,0,0,0-.37-1,1.11,1.11,0,0,0-.84-.34,1.07,1.07,0,0,0-.82.35A1.76,1.76,0,0,0,53.94,100.75Z"/><path class="cls-1" d="M61.48,99.21v.16a2.42,2.42,0,0,1,.77-.68,2.12,2.12,0,0,1,1-.22,1.92,1.92,0,0,1,.94.23,1.63,1.63,0,0,1,.79,1.18,4.84,4.84,0,0,1,0,.72v2.48a.91.91,0,0,1-.18.61.59.59,0,0,1-.48.2.61.61,0,0,1-.48-.21.9.9,0,0,1-.19-.6v-2.22a2.28,2.28,0,0,0-.18-1,.74.74,0,0,0-.73-.35,1.11,1.11,0,0,0-.65.22,1.22,1.22,0,0,0-.43.58,4.37,4.37,0,0,0-.1,1.11v1.67a.89.89,0,0,1-.18.61.63.63,0,0,1-.49.2.59.59,0,0,1-.47-.21.85.85,0,0,1-.19-.6V99.23a.86.86,0,0,1,.17-.57.59.59,0,0,1,.45-.19.59.59,0,0,1,.32.09.62.62,0,0,1,.23.25A1,1,0,0,1,61.48,99.21Z"/><path class="cls-1" d="M66.48,97.85a.67.67,0,0,1-.47-.17.6.6,0,0,1-.2-.48.63.63,0,0,1,.2-.47.71.71,0,0,1,.47-.18.69.69,0,0,1,.46.17.57.57,0,0,1,.2.48.59.59,0,0,1-.19.48A.67.67,0,0,1,66.48,97.85Zm.66,1.38v3.85a.86.86,0,0,1-.19.61.59.59,0,0,1-.48.2.61.61,0,0,1-.48-.21.9.9,0,0,1-.18-.6V99.27a.9.9,0,0,1,.18-.6.64.64,0,0,1,.48-.2.63.63,0,0,1,.48.2A.78.78,0,0,1,67.14,99.23Z"/><path class="cls-1" d="M69,99.3l1.08,3,1.16-3.16a1.91,1.91,0,0,1,.27-.54.51.51,0,0,1,.4-.16.57.57,0,0,1,.43.18.51.51,0,0,1,.18.39.88.88,0,0,1,0,.21,1.87,1.87,0,0,1-.07.22l-.1.23L71,102.87l-.13.35a2,2,0,0,1-.2.36.68.68,0,0,1-.25.23.76.76,0,0,1-.38.08.69.69,0,0,1-.45-.13.82.82,0,0,1-.25-.28c0-.1-.14-.3-.27-.61L67.8,99.73l-.09-.23a2.25,2.25,0,0,1-.08-.24.88.88,0,0,1,0-.21.56.56,0,0,1,.08-.27.8.8,0,0,1,.23-.22.62.62,0,0,1,.32-.09.52.52,0,0,1,.46.2A2.88,2.88,0,0,1,69,99.3Z"/><path class="cls-1" d="M76.53,101.51H73.92a1.85,1.85,0,0,0,.18.8,1.26,1.26,0,0,0,1.13.7,1.51,1.51,0,0,0,.44-.06,1.17,1.17,0,0,0,.38-.17,3,3,0,0,0,.34-.26l.41-.37a.42.42,0,0,1,.29-.09.45.45,0,0,1,.33.12.37.37,0,0,1,.13.31,1,1,0,0,1-.14.43,1.83,1.83,0,0,1-.43.46,2.43,2.43,0,0,1-.72.37,3,3,0,0,1-1,.14,2.66,2.66,0,0,1-2-.73,2.75,2.75,0,0,1-.71-2,3.24,3.24,0,0,1,.18-1.09,2.23,2.23,0,0,1,.51-.87,2.2,2.2,0,0,1,.83-.55,2.94,2.94,0,0,1,1.09-.2,2.69,2.69,0,0,1,1.34.33,2.23,2.23,0,0,1,.84.86,2.18,2.18,0,0,1,.28,1.06.66.66,0,0,1-.29.65A1.77,1.77,0,0,1,76.53,101.51Zm-2.61-.76h2.42a1.64,1.64,0,0,0-.37-1,1.11,1.11,0,0,0-.84-.34,1.07,1.07,0,0,0-.82.35A1.76,1.76,0,0,0,73.92,100.75Z"/><path class="cls-1" d="M78.25,103.08V97.3a.88.88,0,0,1,.18-.6.6.6,0,0,1,.48-.21.66.66,0,0,1,.49.2.91.91,0,0,1,.18.61v5.78a.89.89,0,0,1-.18.61.63.63,0,0,1-.49.2.61.61,0,0,1-.48-.21A.9.9,0,0,1,78.25,103.08Z"/><path class="cls-1" d="M84.59,103.1V98.66a4,4,0,0,1-1.67,1,.5.5,0,0,1-.36-.16.57.57,0,0,1-.16-.38.42.42,0,0,1,.16-.37,5.25,5.25,0,0,1,.55-.3,4.33,4.33,0,0,0,1-.58,4.5,4.5,0,0,0,.62-.69,5.77,5.77,0,0,1,.36-.47.41.41,0,0,1,.31-.09.53.53,0,0,1,.42.2.9.9,0,0,1,.15.55v5.59c0,.66-.22,1-.67,1a.59.59,0,0,1-.47-.2A.85.85,0,0,1,84.59,103.1Z"/></g></g></svg>