<svg xmlns="http://www.w3.org/2000/svg" viewBox="0 0 732.04 1430.28"><defs><style>.cls-1{fill:#c1c1c1;}.cls-2{fill:#fff;}</style></defs><title>fondo_principal2</title><g id="Capa_2" data-name="Capa 2"><g id="Capa_1-2" data-name="Capa 1"><rect class="cls-1" width="732.04" height="1430.28"/><circle class="cls-2" cx="94.37" cy="1153.22" r="3.67"/><circle class="cls-2" cx="16" cy="1279.97" r="3.73"/><circle class="cls-2" cx="29.71" cy="1080.18" r="5.69"/><circle class="cls-2" cx="202.05" cy="1084.63" r="3.13"/><circle class="cls-2" cx="438.03" cy="1104.27" r="3.13"/><circle class="cls-2" cx="512.34" cy="1153.22" r="9.78"/><circle class="cls-2" cx="570.29" cy="1091.33" r="5.46"/><circle class="cls-2" cx="712.13" cy="1248.18" r="7.63"/><circle class="cls-2" cx="526.28" cy="1339.4" r="4.16"/><circle class="cls-2" cx="656.19" cy="1154.66" r="14.47"/><circle class="cls-2" cx="263.87" cy="1283.7" r="1.51"/><circle class="cls-2" cx="66.36" cy="1223.22" r="1.51"/><circle class="cls-2" cx="201.03" cy="1154.73" r="1.51"/><circle class="cls-2" cx="378.54" cy="1140.19" r="1.51"/><circle class="cls-2" cx="415.03" cy="1353.55" r="1.51"/><circle class="cls-2" cx="601.87" cy="1179.59" r="1.51"/><circle class="cls-2" cx="640.21" cy="1255.82" r="1.51"/><circle class="cls-2" cx="681.03" cy="1371.88" r="1.51"/><circle class="cls-2" cx="689.03" cy="1085.87" r="1.51"/><circle class="cls-2" cx="88.79" cy="1372.97" r="12.91"/><circle class="cls-2" cx="593.37" cy="1352.05" r="1.5"/><circle class="cls-2" cx="502.55" cy="1373.39" r="4"/><circle class="cls-2" cx="357.12" cy="1419.34" r="4"/><circle class="cls-2" cx="66.36" cy="130.02" r="3.67"/><circle class="cls-2" cx="150.54" cy="272.44" r="4.32"/><circle class="cls-2" cx="16" cy="247.86" r="3.73"/><circle class="cls-2" cx="29.71" cy="48.07" r="5.69"/><circle class="cls-2" cx="185.24" cy="52.36" r="3.13"/><circle class="cls-2" cx="438.03" cy="72.16" r="3.13"/><circle class="cls-2" cx="278.07" cy="66.21" r="3.71"/><circle class="cls-2" cx="488.77" cy="162.52" r="9.78"/><circle class="cls-2" cx="570.29" cy="59.23" r="5.46"/><circle class="cls-2" cx="712.13" cy="216.07" r="7.63"/><circle class="cls-2" cx="564.83" cy="257.26" r="4.16"/><circle class="cls-2" cx="656.19" cy="122.55" r="14.47"/><circle class="cls-2" cx="259.54" cy="251.59" r="1.51"/><circle class="cls-2" cx="135.87" cy="72.16" r="1.51"/><circle class="cls-2" cx="66.36" cy="191.11" r="1.51"/><circle class="cls-2" cx="201.03" cy="122.62" r="1.51"/><circle class="cls-2" cx="378.54" cy="108.08" r="1.51"/><circle class="cls-2" cx="438.03" cy="287.93" r="1.51"/><circle class="cls-2" cx="601.87" cy="147.48" r="1.51"/><circle class="cls-2" cx="640.21" cy="223.71" r="1.51"/><circle class="cls-2" cx="681.03" cy="339.78" r="1.51"/><circle class="cls-2" cx="689.03" cy="53.76" r="1.51"/><circle class="cls-2" cx="88.79" cy="340.86" r="12.91"/><circle class="cls-2" cx="593.37" cy="319.94" r="1.5"/><circle class="cls-2" cx="502.55" cy="341.29" r="4"/><circle class="cls-2" cx="94.37" cy="464.1" r="3.67"/><circle class="cls-2" cx="249.25" cy="513.43" r="7.29"/><circle class="cls-2" cx="150.54" cy="615.43" r="4.32"/><circle class="cls-2" cx="16" cy="590.85" r="3.73"/><circle class="cls-2" cx="29.71" cy="391.06" r="5.69"/><circle class="cls-2" cx="185.24" cy="395.34" r="3.13"/><circle class="cls-2" cx="438.03" cy="415.15" r="3.13"/><circle class="cls-2" cx="278.07" cy="409.2" r="3.71"/><circle class="cls-2" cx="512.34" cy="464.1" r="9.78"/><circle class="cls-2" cx="712.13" cy="559.06" r="7.63"/><circle class="cls-2" cx="564.83" cy="600.24" r="4.16"/><circle class="cls-2" cx="656.19" cy="465.54" r="14.47"/><circle class="cls-2" cx="256.54" cy="594.58" r="1.51"/><circle class="cls-2" cx="135.87" cy="415.15" r="1.51"/><circle class="cls-2" cx="66.36" cy="534.1" r="1.51"/><circle class="cls-2" cx="201.03" cy="436.09" r="1.51"/><circle class="cls-2" cx="378.54" cy="421.55" r="1.51"/><circle class="cls-2" cx="438.03" cy="630.92" r="1.51"/><circle class="cls-2" cx="601.87" cy="490.47" r="1.51"/><circle class="cls-2" cx="640.21" cy="566.69" r="1.51"/><circle class="cls-2" cx="681.03" cy="682.76" r="1.51"/><circle class="cls-2" cx="689.03" cy="396.75" r="1.51"/><circle class="cls-2" cx="85.12" cy="680.27" r="12.91"/><circle class="cls-2" cx="593.37" cy="662.93" r="1.5"/><circle class="cls-2" cx="317.45" cy="657.27" r="35.67"/><circle class="cls-2" cx="149.66" cy="520.72" r="35.67"/><circle class="cls-2" cx="502.55" cy="684.27" r="4"/><circle class="cls-2" cx="94.37" cy="807.08" r="3.67"/><circle class="cls-2" cx="16" cy="933.83" r="3.73"/><circle class="cls-2" cx="29.71" cy="734.04" r="5.69"/><circle class="cls-2" cx="185.24" cy="738.33" r="3.13"/><circle class="cls-2" cx="438.03" cy="758.13" r="3.13"/><circle class="cls-2" cx="512.34" cy="816.86" r="9.78"/><circle class="cls-2" cx="712.13" cy="902.05" r="7.63"/><circle class="cls-2" cx="581.64" cy="943.39" r="4.16"/><circle class="cls-2" cx="656.19" cy="816.86" r="14.47"/><circle class="cls-2" cx="273.35" cy="937.73" r="1.51"/><circle class="cls-2" cx="135.87" cy="758.13" r="1.51"/><circle class="cls-2" cx="66.36" cy="877.08" r="1.51"/><circle class="cls-2" cx="201.03" cy="808.59" r="1.51"/><circle class="cls-2" cx="378.54" cy="794.05" r="1.51"/><circle class="cls-2" cx="454.84" cy="974.07" r="1.51"/><circle class="cls-2" cx="601.87" cy="833.45" r="1.51"/><circle class="cls-2" cx="640.21" cy="909.68" r="1.51"/><circle class="cls-2" cx="681.03" cy="1025.75" r="1.51"/><circle class="cls-2" cx="689.03" cy="739.73" r="1.51"/></g></g></svg>