<svg xmlns="http://www.w3.org/2000/svg" viewBox="0 0 33.55 33.55"><defs><style>.cls-1{fill:#189def;}.cls-2{fill:#fffdfd;}.cls-3{fill:#ea1313;}</style></defs><title>ingles</title><g id="Capa_2" data-name="Capa 2"><g id="Capa_3" data-name="Capa 3"><path class="cls-1" d="M13.77.27V16.7H0A16.77,16.77,0,0,1,13.77.27Z"/><path class="cls-2" d="M10.18,8.36a.75.75,0,0,0,0-1.5.75.75,0,0,0,0,1.5Z"/><path class="cls-2" d="M10.18,5.67a.75.75,0,0,0,0-1.5.75.75,0,0,0,0,1.5Z"/><path class="cls-2" d="M3.76,11.32a.75.75,0,0,0,0-1.5.75.75,0,0,0,0,1.5Z"/><path class="cls-2" d="M7.09,11.32a.75.75,0,0,0,0-1.5.75.75,0,0,0,0,1.5Z"/><path class="cls-2" d="M7.09,8.36a.75.75,0,0,0,0-1.5.75.75,0,0,0,0,1.5Z"/><path class="cls-2" d="M10.18,11.32a.75.75,0,0,0,0-1.5.75.75,0,0,0,0,1.5Z"/><path class="cls-2" d="M10.18,14.32a.75.75,0,0,0,0-1.5.75.75,0,0,0,0,1.5Z"/><path class="cls-2" d="M7.09,14.32a.75.75,0,0,0,0-1.5.75.75,0,0,0,0,1.5Z"/><path class="cls-2" d="M3.76,14.32a.75.75,0,0,0,0-1.5.75.75,0,0,0,0,1.5Z"/><path class="cls-3" d="M16.78,0a16.6,16.6,0,0,0-3,.27V5.05h15A16.74,16.74,0,0,0,16.78,0Z"/><path class="cls-3" d="M13.77,11.26H32.62a16.25,16.25,0,0,0-1.27-2.78H13.77Z"/><path class="cls-3" d="M13.77,16.7H0v.08c0,.33,0,.67,0,1H33.52c0-.33,0-.67,0-1a17.9,17.9,0,0,0-.13-2.09H13.77Z"/><path class="cls-3" d="M1.8,24.34h30A16.2,16.2,0,0,0,33,21.21H.6A16.87,16.87,0,0,0,1.8,24.34Z"/><path class="cls-3" d="M16.78,33.55a16.7,16.7,0,0,0,12.66-5.79H4.11A16.7,16.7,0,0,0,16.78,33.55Z"/><path class="cls-2" d="M13.77,5.05V8.48H31.35a16.94,16.94,0,0,0-2.58-3.43Z"/><path class="cls-2" d="M13.77,14.69H33.42a16.81,16.81,0,0,0-.8-3.43H13.77Z"/><path class="cls-2" d="M.6,21.21H33a16.83,16.83,0,0,0,.57-3.43H0A16.83,16.83,0,0,0,.6,21.21Z"/><path class="cls-2" d="M4.11,27.76H29.44a16.84,16.84,0,0,0,2.31-3.42H1.8A16.84,16.84,0,0,0,4.11,27.76Z"/></g></g></svg>