<svg xmlns="http://www.w3.org/2000/svg" viewBox="0 0 139 70.75"><defs><style>.cls-1,.cls-2{fill:#f9ec00;stroke:#ff8103;stroke-linecap:round;stroke-linejoin:round;}.cls-1{stroke-width:3.74px;}.cls-2{stroke-width:5.98px;}</style></defs><title>lam_plus_1</title><g id="Capa_2" data-name="Capa 2"><g id="Capa_3" data-name="Capa 3"><polygon class="cls-1" points="22.3 30.01 28.61 42.81 42.73 44.86 32.52 54.82 34.93 68.88 22.3 62.24 9.67 68.88 12.08 54.82 1.87 44.86 15.99 42.81 22.3 30.01"/><polygon class="cls-1" points="116.7 30.01 123.02 42.81 137.13 44.86 126.92 54.82 129.33 68.88 116.7 62.24 104.07 68.88 106.49 54.82 96.27 44.86 110.39 42.81 116.7 30.01"/><polygon class="cls-2" points="70.1 2.99 80.21 23.47 102.82 26.76 86.46 42.7 90.32 65.21 70.1 54.58 49.89 65.21 53.75 42.7 37.39 26.76 59.99 23.47 70.1 2.99"/></g></g></svg>