<svg xmlns="http://www.w3.org/2000/svg" viewBox="0 0 9.96 9.55"><defs><style>.cls-1{fill:#f9ec00;stroke:#ff8103;stroke-linecap:round;stroke-linejoin:round;stroke-width:0.9px;}</style></defs><title>lam_plus_1</title><g id="Capa_2" data-name="Capa 2"><g id="Capa_3" data-name="Capa 3"><path class="cls-1" d="M5.26.62,6.42,3a.35.35,0,0,0,.24.17l2.58.37a.32.32,0,0,1,.18.54L7.55,5.88a.29.29,0,0,0-.09.28L7.9,8.73a.32.32,0,0,1-.46.34L5.13,7.85a.32.32,0,0,0-.3,0L2.52,9.07a.32.32,0,0,1-.46-.34L2.5,6.16a.29.29,0,0,0-.09-.28L.54,4.05a.32.32,0,0,1,.18-.54L3.3,3.14A.31.31,0,0,0,3.54,3L4.7.62A.31.31,0,0,1,5.26.62Z"/></g></g></svg>