<svg xmlns="http://www.w3.org/2000/svg" viewBox="0 0 94 94"><defs><style>.cls-1{fill:#fff;}.cls-2{fill:#239ac4;}.cls-3{fill:#1fc93b;}</style></defs><title>mundo</title><g id="Capa_2" data-name="Capa 2"><g id="Capa_1-2" data-name="Capa 1"><circle class="cls-1" cx="61.51" cy="67.39" r="1.51"/><circle class="cls-2" cx="47" cy="47" r="47"/><path class="cls-3" d="M19.65,8.79S20.55,22,26.55,28s5,14.47,5,14.47l7.34,7.47a31,31,0,0,1-9.62,9.38c-6.72,4.34-3.05,13.34-3.05,13.34s8.33,17,11.33,18A15.05,15.05,0,0,1,42.84,94l5.47-9,3.24-12.33L47,68.9V58.65l1.31-7.26,5.46-.59,7.12-8.34-4.34-8.15s-9.49-4.86-8.24-7.1,1.91-4.9,3.58-5.9,3-1,6-3.33a21.84,21.84,0,0,1,7.33-3.33h4.67l3.33-4.34,1.13-1.52S62.61,0,47,0,19.65,8.79,19.65,8.79Z"/><path class="cls-3" d="M88.57,25.05s-5.66,3.76-7.17,13.43S70.89,52.31,70.89,52.31,63.72,59,72.72,63.65s3.64,10,5.65,11.83,5.47.7,5.47.7,10-13.05,10-25.38S93.08,35.29,88.57,25.05Z"/></g></g></svg>