<svg xmlns="http://www.w3.org/2000/svg" viewBox="0 0 732.04 392.45"><defs><style>.cls-1{fill:#00070f;}.cls-2{fill:#fff;}</style></defs><title>principal_fin</title><g id="Capa_2" data-name="Capa 2"><g id="Capa_1-2" data-name="Capa 1"><path class="cls-1" d="M0,1.06H731A1.06,1.06,0,0,1,732,2.11V391.4a1.06,1.06,0,0,1-1.06,1.06H1.06A1.06,1.06,0,0,1,0,391.4V1.06a0,0,0,0,1,0,0Z"/><circle class="cls-2" cx="94.37" cy="78.73" r="3.67"/><circle class="cls-2" cx="473.87" cy="148.26" r="7.29"/><circle class="cls-2" cx="137.38" cy="257.01" r="4.32"/><circle class="cls-2" cx="16" cy="205.48" r="3.73"/><circle class="cls-2" cx="29.71" cy="5.69" r="5.69"/><circle class="cls-2" cx="185.24" cy="9.97" r="3.13"/><circle class="cls-2" cx="438.03" cy="29.78" r="3.13"/><circle class="cls-2" cx="281.79" cy="95.88" r="3.71"/><circle class="cls-2" cx="512.34" cy="78.73" r="9.78"/><circle class="cls-2" cx="570.29" cy="16.84" r="5.46"/><circle class="cls-2" cx="712.13" cy="173.69" r="7.63"/><circle class="cls-2" cx="551.67" cy="234.38" r="4.16"/><circle class="cls-2" cx="656.18" cy="80.17" r="14.47"/><circle class="cls-2" cx="256.54" cy="209.21" r="1.51"/><circle class="cls-2" cx="247.36" cy="354.17" r="1.51"/><circle class="cls-2" cx="101.7" cy="207.7" r="1.51"/><circle class="cls-2" cx="135.87" cy="29.78" r="1.51"/><circle class="cls-2" cx="201.03" cy="80.24" r="1.51"/><circle class="cls-2" cx="438.03" cy="245.55" r="1.51"/><circle class="cls-2" cx="601.87" cy="105.1" r="1.51"/><circle class="cls-2" cx="640.21" cy="181.33" r="1.51"/><circle class="cls-2" cx="681.03" cy="297.39" r="1.51"/><circle class="cls-2" cx="689.03" cy="11.38" r="1.51"/><circle class="cls-2" cx="173.51" cy="341.26" r="12.91"/><circle class="cls-2" cx="593.37" cy="277.56" r="1.5"/><circle class="cls-2" cx="321.42" cy="292.68" r="35.67"/><circle class="cls-2" cx="502.55" cy="298.9" r="4"/><circle class="cls-2" cx="29.71" cy="309.43" r="4"/></g></g></svg>