<svg xmlns="http://www.w3.org/2000/svg" viewBox="0 0 24.09 21.07"><defs><style>.cls-1,.cls-2{fill:none;stroke:#fff;}.cls-1{stroke-miterlimit:10;stroke-width:2.04px;}.cls-2{stroke-linecap:round;stroke-linejoin:round;stroke-width:2.63px;}</style></defs><title>sonido</title><g id="Capa_2" data-name="Capa 2"><g id="Capa_1-2" data-name="Capa 1"><path class="cls-1" d="M1.09,12.46l1.28,4.63a2.63,2.63,0,0,0,2,1.74L8.7,20c.86.23,1.87-.46,1.68-1.15L7,6.47c-.2-.72-1.5-.77-2.09-.07L1.73,10.15A2.57,2.57,0,0,0,1.09,12.46Z"/><path class="cls-2" d="M12.51,7.26a3.54,3.54,0,0,1,3.07,2.35c.6,2.17-1.3,4.08-1.3,4.08"/><path class="cls-2" d="M14.1,1.31s6.24.06,8.22,7.25a10.43,10.43,0,0,1-3.17,11.07"/></g></g></svg>