<svg xmlns="http://www.w3.org/2000/svg" viewBox="0 0 129.39 129.39"><defs><style>.cls-1{fill:#00070f;}.cls-2{fill:#49c0f8;}.cls-3{fill:#1fc93b;}.cls-4{fill:#31a2ff;}.cls-5{fill:#626f7a;}.cls-11,.cls-6{fill:#fff;}.cls-6{stroke:#626f7a;stroke-miterlimit:10;stroke-width:1.52px;}.cls-7{fill:#fe3e00;}.cls-8{fill:#fdd734;}.cls-9{fill:#424b51;}.cls-10{fill:#a0b6c1;}</style></defs><title>aprende_donde_quieras</title><g id="Capa_2" data-name="Capa 2"><g id="Capa_1-2" data-name="Capa 1"><circle class="cls-1" cx="64.7" cy="64.7" r="64.7"/><circle class="cls-2" cx="64.22" cy="64.13" r="43.3"/><path class="cls-3" d="M39,28.92s.83,12.18,6.35,17.69S50,60,50,60l6.76,6.88a28.73,28.73,0,0,1-8.86,8.64c-6.19,4-2.81,12.28-2.81,12.28s7.67,15.67,10.44,16.59a13.84,13.84,0,0,1,4.87,3.09l5-8.31,3-11.37-4.2-3.44V74.86l1.21-6.69,5-.54L77,60l-4-7.51S64.28,48,65.43,45.9s1.76-4.52,3.29-5.44,2.77-.92,5.53-3.07A20.13,20.13,0,0,1,81,34.32h4.3l3.07-4,1-1.4s-10.82-8.1-25.2-8.1S39,28.92,39,28.92Z"/><path class="cls-3" d="M102.52,43.9s-5.22,3.47-6.61,12.38S86.23,69,86.23,69s-6.6,6.14,1.69,10.44,3.35,9.22,5.21,10.91,5,.64,5,.64,9.21-12,9.21-23.38S106.67,53.34,102.52,43.9Z"/><path class="cls-4" d="M75.11,80.52,51,96.33a4.49,4.49,0,0,1-6-1l-7-9.13a4.48,4.48,0,0,1,.57-6L60.05,60.75A9.52,9.52,0,0,1,66.62,59l12.67.92a2,2,0,0,1,1.79,2.34L78.59,74.67A9.49,9.49,0,0,1,75.11,80.52Z"/><path class="cls-5" d="M46.62,83.76c-2.89.11-7.7,1.23-14.38,5.84a2.66,2.66,0,0,0-.59,3.8l2.5,3.28,1.94,2.55a2.66,2.66,0,0,0,3.86.39c2.83-2.44,7.59-7.13,9.31-12.39A2.66,2.66,0,0,0,46.62,83.76Z"/><circle class="cls-6" cx="67.43" cy="70.75" r="5.12"/><circle class="cls-6" cx="57.31" cy="78.46" r="3.65"/><path class="cls-1" d="M58.49,91.41s1.84,8.47-1.35,13.29-2.12-3.76-6.43-8.21Z"/><path class="cls-1" d="M45.33,74s-7.73-3.92-13.2-2,3.11,3,6.32,8.29Z"/><path class="cls-7" d="M27.09,106.28a1.7,1.7,0,0,1,.05-1.44c.35-.94,0-1.64-1.32-1S23.3,105,23,107c-1.16-1.31-.31-3.24-.19-3.46A9.74,9.74,0,0,1,24.42,102c.67-.56-.12-1-.87-1s-1.42,1.08-1.42,1.08a2.83,2.83,0,0,1,.44-1.82A18.46,18.46,0,0,1,25,98.44s0-1.65,2.13-3.11a4.33,4.33,0,0,1,5.75,1.06c1.07,1.41,2.76,3.77,0,6.73a6.44,6.44,0,0,1-3.26,1.53A3.69,3.69,0,0,0,27.09,106.28Z"/><path class="cls-8" d="M26.8,102a1.64,1.64,0,0,1,1.32-1.53c1.29-.27,2.06-.45,1.55-1.43s-1.1-.22-1.46.18a2.21,2.21,0,0,1,1.2-2.56c1.2-.51,2.29-.62,3,.57s.75,2.09-.81,3.47c-1.54,1-3.54.4-4.08.75A4.45,4.45,0,0,0,26.8,102Z"/><path class="cls-1" d="M74.18,59.5l5.31.42A1.75,1.75,0,0,1,81.08,62l-1,5.23Z"/><polygon class="cls-9" points="32.25 89.6 39.91 99.66 41.14 98.56 33.62 88.69 32.25 89.6"/><path class="cls-9" d="M31.33,90.71l7.26,9.53a2.58,2.58,0,0,1-2.5-1l-4.65-6.1A3,3,0,0,1,31.33,90.71Z"/><polygon class="cls-5" points="74.18 59.5 80.08 67.23 78.93 72.98 68.34 59.08 74.18 59.5"/><polygon class="cls-5" points="45.78 73.62 59.06 91.05 56.77 92.55 43.75 75.45 45.78 73.62"/><circle class="cls-10" cx="71.5" cy="67.65" r="0.32"/><circle class="cls-10" cx="63.35" cy="73.86" r="0.32"/><circle class="cls-10" cx="60.22" cy="76.25" r="0.32"/><circle class="cls-10" cx="54.4" cy="80.67" r="0.32"/><circle class="cls-10" cx="59.52" cy="81.37" r="0.32"/><circle class="cls-10" cx="55.1" cy="75.55" r="0.32"/><circle class="cls-10" cx="56.82" cy="82.08" r="0.32"/><circle class="cls-10" cx="57.8" cy="74.84" r="0.32"/><circle class="cls-10" cx="53.69" cy="77.97" r="0.32"/><circle class="cls-10" cx="60.93" cy="78.95" r="0.32"/><circle class="cls-10" cx="70.53" cy="74.83" r="0.32"/><circle class="cls-10" cx="64.32" cy="66.68" r="0.32"/><circle class="cls-10" cx="66.74" cy="75.83" r="0.32"/><circle class="cls-10" cx="68.11" cy="65.68" r="0.32"/><circle class="cls-10" cx="62.35" cy="70.07" r="0.32"/><circle class="cls-10" cx="72.5" cy="71.44" r="0.32"/><circle class="cls-11" cx="92.64" cy="110.14" r="0.75"/><circle class="cls-11" cx="113.74" cy="93.89" r="3.18"/><circle class="cls-11" cx="120.07" cy="67.79" r="0.17"/><circle class="cls-11" cx="123.08" cy="44.23" r="2.83"/><circle class="cls-11" cx="101.73" cy="101.11" r="0.84"/><circle class="cls-11" cx="12.89" cy="47.06" r="0.84"/><circle class="cls-11" cx="14.1" cy="64.7" r="0.84"/><circle class="cls-11" cx="12.89" cy="90.71" r="0.84"/><circle class="cls-11" cx="98.23" cy="23.14" r="0.84"/><circle class="cls-11" cx="50.05" cy="116.76" r="4.73"/><circle class="cls-11" cx="66.74" cy="117.08" r="0.32"/><circle class="cls-11" cx="74.21" cy="117.4" r="0.32"/><circle class="cls-11" cx="85.89" cy="117.71" r="0.32"/><circle class="cls-11" cx="19.46" cy="88.37" r="0.32"/><circle class="cls-11" cx="91.58" cy="105.81" r="0.32"/><circle class="cls-11" cx="50.05" cy="17.96" r="0.32"/><circle class="cls-11" cx="36.69" cy="17.64" r="0.32"/><circle class="cls-11" cx="60.22" cy="4.83" r="0.32"/><circle class="cls-11" cx="74.52" cy="14.08" r="0.32"/><circle class="cls-11" cx="26.8" cy="28.64" r="0.32"/><circle class="cls-11" cx="7.28" cy="80.27" r="0.32"/><circle class="cls-11" cx="17.83" cy="77.97" r="0.32"/><circle class="cls-11" cx="6.96" cy="65.99" r="0.32"/><circle class="cls-11" cx="82.1" cy="108.41" r="0.98"/></g></g></svg>