<svg xmlns="http://www.w3.org/2000/svg" viewBox="0 0 85 284.24"><defs><style>.cls-1,.cls-3,.cls-4{fill:#00070f;}.cls-2,.cls-21,.cls-9{fill:#fff;}.cls-21,.cls-3{stroke:#a239d3;}.cls-15,.cls-17,.cls-19,.cls-20,.cls-21,.cls-24,.cls-3,.cls-4,.cls-9{stroke-miterlimit:10;}.cls-3,.cls-4{stroke-width:0.9px;}.cls-13,.cls-14,.cls-4,.cls-6{stroke:#fff;}.cls-5{fill:#1fc93b;}.cls-13,.cls-14,.cls-20,.cls-22,.cls-24,.cls-6,.cls-8{fill:none;}.cls-12,.cls-13,.cls-14,.cls-18,.cls-22,.cls-6,.cls-7,.cls-8{stroke-linecap:round;stroke-linejoin:round;}.cls-6{stroke-width:0.66px;}.cls-7{fill:#b21957;}.cls-7,.cls-8{stroke:#771240;}.cls-7,.cls-8,.cls-9{stroke-width:0.84px;}.cls-9{stroke:#c9c9c9;}.cls-10{fill:#239ac4;}.cls-11{fill:#1c768e;}.cls-12,.cls-15,.cls-17,.cls-18{fill:#e2c481;stroke:#b59b69;}.cls-12{stroke-width:0.69px;}.cls-13{stroke-width:0.75px;}.cls-14{stroke-width:0.71px;}.cls-15{stroke-width:1.09px;}.cls-16{fill:#b59b69;}.cls-17,.cls-18{stroke-width:0.74px;}.cls-19{fill:#a5a5a5;}.cls-19,.cls-20{stroke:#727272;stroke-width:1.74px;}.cls-21{stroke-width:1.54px;}.cls-22{stroke:#020e18;stroke-width:2.1px;}.cls-23{fill:#a239d3;}.cls-24{stroke:#4f1f6b;stroke-width:2.82px;}.cls-25{fill:#4f1f6b;}</style></defs><title>aprende_eficientemente</title><g id="Capa_2" data-name="Capa 2"><g id="Capa_1-2" data-name="Capa 1"><rect class="cls-1" width="85" height="284.24" rx="21.83" ry="21.83"/><circle class="cls-2" cx="68.05" cy="18.76" r="0.75"/><circle class="cls-2" cx="75.94" cy="15.6" r="0.75"/><circle class="cls-2" cx="59.02" cy="22.67" r="0.84"/><circle class="cls-2" cx="54.97" cy="18.76" r="0.84"/><circle class="cls-2" cx="74.99" cy="44.67" r="0.32"/><circle class="cls-2" cx="75.31" cy="37.2" r="0.32"/><circle class="cls-2" cx="75.62" cy="25.51" r="0.32"/><circle class="cls-2" cx="63.72" cy="19.83" r="0.32"/><circle class="cls-2" cx="66.32" cy="29.31" r="0.98"/><circle class="cls-2" cx="15.33" cy="18.76" r="0.75"/><circle class="cls-2" cx="16.08" cy="10.67" r="3.18"/><circle class="cls-2" cx="24.36" cy="22.67" r="0.84"/><circle class="cls-2" cx="8.39" cy="44.67" r="0.32"/><circle class="cls-2" cx="8.07" cy="37.2" r="0.32"/><circle class="cls-2" cx="6.67" cy="25.34" r="0.32"/><circle class="cls-2" cx="17.06" cy="23.51" r="0.32"/><circle class="cls-2" cx="17.06" cy="29.31" r="0.98"/><circle class="cls-2" cx="26.61" cy="13.01" r="0.75"/><circle class="cls-2" cx="37.13" cy="9.92" r="0.75"/><circle class="cls-2" cx="35.59" cy="15.6" r="0.84"/><circle class="cls-2" cx="30.63" cy="17.97" r="0.32"/><circle class="cls-2" cx="63.72" cy="10.99" r="0.32"/><circle class="cls-2" cx="48.62" cy="22.67" r="0.32"/><circle class="cls-2" cx="42.82" cy="15.92" r="0.32"/><circle class="cls-2" cx="58.18" cy="4.32" r="0.32"/><circle class="cls-2" cx="30.32" cy="4.64" r="0.32"/><circle class="cls-2" cx="37.13" cy="25.34" r="0.98"/><circle class="cls-2" cx="70.52" cy="61.82" r="0.75"/><circle class="cls-2" cx="66.15" cy="60.9" r="0.32"/><circle class="cls-2" cx="67.3" cy="66.08" r="0.98"/><circle class="cls-2" cx="23" cy="38.95" r="0.75"/><circle class="cls-2" cx="13.75" cy="49.21" r="0.75"/><circle class="cls-2" cx="33.32" cy="62.26" r="0.75"/><circle class="cls-2" cx="5.6" cy="52.07" r="0.75"/><circle class="cls-2" cx="48.62" cy="30.29" r="3.18"/><circle class="cls-2" cx="15.33" cy="39.7" r="0.32"/><circle class="cls-2" cx="19.99" cy="49.21" r="0.98"/><circle class="cls-2" cx="35.67" cy="38.66" r="0.75"/><circle class="cls-2" cx="46.49" cy="40.44" r="0.75"/><circle class="cls-2" cx="37.14" cy="44.87" r="0.32"/><circle class="cls-2" cx="20.98" cy="56.63" r="0.32"/><circle class="cls-2" cx="69.98" cy="52.93" r="0.32"/><circle class="cls-2" cx="56.12" cy="37.35" r="0.32"/><circle class="cls-2" cx="30.63" cy="44.83" r="0.32"/><circle class="cls-2" cx="4.53" cy="59.28" r="0.32"/><circle class="cls-2" cx="53.83" cy="28.74" r="0.32"/><circle class="cls-2" cx="67.88" cy="44.52" r="0.32"/><circle class="cls-2" cx="42.64" cy="32.73" r="0.32"/><circle class="cls-2" cx="48.94" cy="58.96" r="0.32"/><circle class="cls-2" cx="48.3" cy="50.65" r="0.32"/><circle class="cls-2" cx="68.05" cy="80.73" r="0.75"/><circle class="cls-2" cx="75.94" cy="77.57" r="0.75"/><circle class="cls-2" cx="59.02" cy="84.64" r="0.84"/><circle class="cls-2" cx="54.97" cy="80.73" r="0.84"/><circle class="cls-2" cx="74.99" cy="106.64" r="0.32"/><circle class="cls-2" cx="75.31" cy="99.17" r="0.32"/><circle class="cls-2" cx="75.62" cy="87.48" r="0.32"/><circle class="cls-2" cx="63.72" cy="81.8" r="0.32"/><circle class="cls-2" cx="66.32" cy="91.28" r="0.98"/><circle class="cls-2" cx="15.33" cy="80.73" r="0.75"/><circle class="cls-2" cx="12.9" cy="61.82" r="0.75"/><circle class="cls-2" cx="24.36" cy="84.64" r="0.84"/><circle class="cls-2" cx="8.39" cy="106.64" r="0.32"/><circle class="cls-2" cx="8.07" cy="99.17" r="0.32"/><circle class="cls-2" cx="6.67" cy="87.31" r="0.32"/><circle class="cls-2" cx="17.06" cy="85.48" r="0.32"/><circle class="cls-2" cx="17.06" cy="91.28" r="0.98"/><circle class="cls-2" cx="19.25" cy="63.76" r="0.75"/><circle class="cls-2" cx="35.59" cy="77.57" r="0.84"/><circle class="cls-2" cx="30.63" cy="79.93" r="0.32"/><circle class="cls-2" cx="45.74" cy="64.52" r="0.32"/><circle class="cls-2" cx="2.44" cy="71.94" r="0.32"/><circle class="cls-2" cx="48.62" cy="84.64" r="0.32"/><circle class="cls-2" cx="42.82" cy="77.88" r="0.32"/><circle class="cls-2" cx="30" cy="67.06" r="0.32"/><circle class="cls-2" cx="37.13" cy="87.31" r="0.98"/><circle class="cls-2" cx="70.52" cy="123.78" r="0.75"/><circle class="cls-2" cx="66.15" cy="122.87" r="0.32"/><circle class="cls-2" cx="23" cy="100.92" r="0.75"/><circle class="cls-2" cx="13.65" cy="114.9" r="0.75"/><circle class="cls-2" cx="33.32" cy="124.23" r="0.75"/><circle class="cls-2" cx="5.6" cy="114.03" r="0.75"/><circle class="cls-2" cx="19.99" cy="111.17" r="0.98"/><circle class="cls-2" cx="46.49" cy="102.41" r="0.75"/><circle class="cls-2" cx="37.14" cy="106.84" r="0.32"/><circle class="cls-2" cx="20.98" cy="118.6" r="0.32"/><circle class="cls-2" cx="74.75" cy="114.03" r="0.32"/><circle class="cls-2" cx="56.12" cy="99.31" r="0.32"/><circle class="cls-2" cx="30.32" cy="114.58" r="0.32"/><circle class="cls-2" cx="31.32" cy="103.16" r="0.32"/><circle class="cls-2" cx="7.76" cy="121.57" r="0.32"/><circle class="cls-2" cx="53.83" cy="90.71" r="0.32"/><circle class="cls-2" cx="64.04" cy="102.41" r="0.32"/><circle class="cls-2" cx="42.64" cy="94.69" r="0.32"/><circle class="cls-2" cx="48.94" cy="120.93" r="0.32"/><circle class="cls-2" cx="48.3" cy="112.62" r="0.32"/><circle class="cls-2" cx="39.8" cy="116.3" r="0.98"/><circle class="cls-2" cx="77.76" cy="134.4" r="0.75"/><circle class="cls-2" cx="75.94" cy="151.59" r="0.75"/><circle class="cls-2" cx="66.46" cy="129.91" r="3.18"/><circle class="cls-2" cx="59.26" cy="151.59" r="0.84"/><circle class="cls-2" cx="46.49" cy="275.87" r="4.73"/><circle class="cls-2" cx="74.99" cy="180.65" r="0.32"/><circle class="cls-2" cx="75.31" cy="173.19" r="0.32"/><circle class="cls-2" cx="75.62" cy="161.5" r="0.32"/><circle class="cls-2" cx="70.52" cy="138.15" r="0.32"/><circle class="cls-2" cx="63.72" cy="155.82" r="0.32"/><circle class="cls-2" cx="66.32" cy="165.29" r="0.98"/><circle class="cls-2" cx="15.33" cy="154.75" r="0.75"/><circle class="cls-2" cx="8.07" cy="148.24" r="3.18"/><circle class="cls-2" cx="8.39" cy="180.65" r="0.32"/><circle class="cls-2" cx="8.07" cy="173.19" r="0.32"/><circle class="cls-2" cx="6.67" cy="161.33" r="0.32"/><circle class="cls-2" cx="17.06" cy="159.5" r="0.32"/><circle class="cls-2" cx="13.65" cy="165.29" r="0.98"/><circle class="cls-2" cx="26.61" cy="148.99" r="0.75"/><circle class="cls-2" cx="40.78" cy="133.65" r="0.75"/><circle class="cls-2" cx="35.59" cy="151.59" r="0.84"/><circle class="cls-2" cx="30.63" cy="153.95" r="0.32"/><circle class="cls-2" cx="52.78" cy="147.29" r="0.32"/><circle class="cls-2" cx="71.27" cy="147.29" r="0.32"/><circle class="cls-2" cx="76.69" cy="120.19" r="0.32"/><circle class="cls-2" cx="45.74" cy="126.41" r="0.32"/><circle class="cls-2" cx="48.62" cy="158.66" r="0.32"/><circle class="cls-2" cx="58.18" cy="140.31" r="0.32"/><circle class="cls-2" cx="21.37" cy="140.95" r="0.75"/><circle class="cls-2" cx="9.46" cy="133.08" r="0.75"/><circle class="cls-2" cx="70.52" cy="197.8" r="0.75"/><circle class="cls-2" cx="60.68" cy="197.41" r="0.84"/><circle class="cls-2" cx="66.15" cy="196.88" r="0.32"/><circle class="cls-2" cx="51.8" cy="206.25" r="0.98"/><circle class="cls-2" cx="23" cy="174.94" r="0.75"/><circle class="cls-2" cx="33.32" cy="198.25" r="0.75"/><circle class="cls-2" cx="5.6" cy="188.05" r="0.75"/><circle class="cls-2" cx="27.19" cy="167.97" r="3.18"/><circle class="cls-2" cx="15.33" cy="175.69" r="0.32"/><circle class="cls-2" cx="46.49" cy="176.42" r="0.75"/><circle class="cls-2" cx="20.98" cy="192.61" r="0.32"/><circle class="cls-2" cx="69.98" cy="188.91" r="0.32"/><circle class="cls-2" cx="30.32" cy="188.6" r="0.32"/><circle class="cls-2" cx="13.22" cy="188.05" r="0.32"/><circle class="cls-2" cx="53.83" cy="164.73" r="0.32"/><circle class="cls-2" cx="67.88" cy="180.51" r="0.32"/><circle class="cls-2" cx="42.64" cy="168.71" r="0.32"/><circle class="cls-2" cx="48.94" cy="194.95" r="0.32"/><circle class="cls-2" cx="48.3" cy="186.64" r="0.32"/><circle class="cls-2" cx="68.05" cy="216.72" r="0.75"/><circle class="cls-2" cx="75.94" cy="213.55" r="0.75"/><circle class="cls-2" cx="59.02" cy="220.63" r="0.84"/><circle class="cls-2" cx="54.97" cy="216.72" r="0.84"/><circle class="cls-2" cx="75.31" cy="235.15" r="0.32"/><circle class="cls-2" cx="75.62" cy="223.47" r="0.32"/><circle class="cls-2" cx="63.72" cy="217.78" r="0.32"/><circle class="cls-2" cx="66.32" cy="227.26" r="0.98"/><circle class="cls-2" cx="7.76" cy="197.5" r="0.75"/><circle class="cls-2" cx="24.36" cy="215.92" r="3.18"/><circle class="cls-2" cx="8.07" cy="235.15" r="0.32"/><circle class="cls-2" cx="6.67" cy="223.29" r="0.32"/><circle class="cls-2" cx="17.06" cy="221.47" r="0.32"/><circle class="cls-2" cx="17.06" cy="227.26" r="0.98"/><circle class="cls-2" cx="11.25" cy="208.62" r="0.75"/><circle class="cls-2" cx="19.25" cy="199.75" r="0.75"/><circle class="cls-2" cx="35.59" cy="213.55" r="0.84"/><circle class="cls-2" cx="30.63" cy="215.92" r="0.32"/><circle class="cls-2" cx="45.74" cy="200.5" r="0.32"/><circle class="cls-2" cx="6.98" cy="207.12" r="0.32"/><circle class="cls-2" cx="63.72" cy="208.94" r="0.32"/><circle class="cls-2" cx="48.62" cy="220.63" r="0.32"/><circle class="cls-2" cx="42.82" cy="213.87" r="0.32"/><circle class="cls-2" cx="30" cy="203.05" r="0.32"/><circle class="cls-2" cx="37.13" cy="223.29" r="0.98"/><circle class="cls-2" cx="75.94" cy="253.27" r="0.75"/><circle class="cls-2" cx="66.15" cy="258.85" r="0.32"/><circle class="cls-2" cx="63.4" cy="252.29" r="0.32"/><circle class="cls-2" cx="23" cy="236.91" r="0.75"/><circle class="cls-2" cx="5.6" cy="250.02" r="0.75"/><circle class="cls-2" cx="15.33" cy="237.66" r="0.32"/><circle class="cls-2" cx="14.63" cy="250.25" r="0.98"/><circle class="cls-2" cx="35.67" cy="236.61" r="0.75"/><circle class="cls-2" cx="46.49" cy="238.39" r="0.75"/><circle class="cls-2" cx="37.14" cy="242.82" r="0.32"/><circle class="cls-2" cx="20.98" cy="254.58" r="0.32"/><circle class="cls-2" cx="56.12" cy="235.3" r="0.32"/><circle class="cls-2" cx="30.32" cy="250.57" r="0.32"/><circle class="cls-2" cx="30.63" cy="242.78" r="0.32"/><circle class="cls-2" cx="7.76" cy="257.55" r="0.32"/><circle class="cls-2" cx="53.83" cy="226.69" r="0.32"/><circle class="cls-2" cx="67.88" cy="242.48" r="0.32"/><circle class="cls-2" cx="79.33" cy="246.88" r="0.32"/><circle class="cls-2" cx="79.65" cy="239.41" r="0.32"/><circle class="cls-2" cx="73.82" cy="246.88" r="0.32"/><circle class="cls-2" cx="42.64" cy="230.68" r="0.32"/><circle class="cls-2" cx="48.94" cy="256.92" r="0.32"/><circle class="cls-2" cx="48.3" cy="248.61" r="0.32"/><circle class="cls-2" cx="39.8" cy="252.29" r="0.98"/><circle class="cls-2" cx="70.52" cy="275.74" r="0.75"/><circle class="cls-2" cx="75.94" cy="269.24" r="0.75"/><circle class="cls-2" cx="60.68" cy="275.35" r="0.84"/><circle class="cls-2" cx="58.73" cy="270.07" r="0.84"/><circle class="cls-2" cx="66.15" cy="274.82" r="0.32"/><circle class="cls-2" cx="63.4" cy="268.26" r="0.32"/><circle class="cls-2" cx="13.75" cy="262.38" r="0.75"/><circle class="cls-2" cx="33.32" cy="276.19" r="0.75"/><circle class="cls-2" cx="5.6" cy="265.99" r="0.75"/><circle class="cls-2" cx="19.99" cy="263.13" r="0.98"/><circle class="cls-2" cx="21.89" cy="276.19" r="0.32"/><circle class="cls-2" cx="69.98" cy="266.85" r="0.32"/><circle class="cls-2" cx="30.32" cy="266.54" r="0.32"/><circle class="cls-2" cx="12.9" cy="274.82" r="0.32"/><circle class="cls-2" cx="48.94" cy="272.89" r="0.32"/><circle class="cls-2" cx="48.3" cy="264.58" r="0.32"/><circle class="cls-2" cx="54.74" cy="119.28" r="0.91"/><rect class="cls-3" x="8.03" y="57.36" width="14.57" height="14.57" rx="3.15" ry="3.15"/><rect class="cls-4" x="25.53" y="57.36" width="14.57" height="14.57" rx="3.15" ry="3.15"/><rect class="cls-4" x="42.96" y="57.36" width="14.57" height="14.57" rx="3.15" ry="3.15"/><rect class="cls-4" x="60.46" y="57.36" width="14.57" height="14.57" rx="3.15" ry="3.15"/><circle class="cls-5" cx="21.41" cy="58.23" r="2.6"/><rect class="cls-4" x="14.33" y="48.9" width="51.75" height="3.17" rx="1.58" ry="1.58"/><polyline class="cls-6" points="20.06 58.45 20.76 59.24 22.56 57.21"/><rect class="cls-5" x="14.73" y="49.33" width="20.64" height="2.27" rx="1.14" ry="1.14"/><path class="cls-7" d="M23.19,107.33s4.11,7.7-.2,10.34a2.31,2.31,0,0,1-2.38,0c-4.32-2.64-.2-10.34-.2-10.34"/><path class="cls-8" d="M21.89,110.35l-.11,1.07a11.81,11.81,0,0,0,0,2.45l.13,1.49"/><path class="cls-9" d="M47.71,111.06a1.05,1.05,0,0,0-.05,1.58,13.76,13.76,0,0,0,10,3.91,15.07,15.07,0,0,0,10.44-3.94,1.05,1.05,0,0,0,0-1.57,13.7,13.7,0,0,0-10-3.91A15.11,15.11,0,0,0,47.71,111.06Z"/><path class="cls-10" d="M57.92,115.73a3.9,3.9,0,1,1,3.9-3.89A3.89,3.89,0,0,1,57.92,115.73Z"/><path class="cls-11" d="M57.92,108.36a3.48,3.48,0,1,1-3.47,3.48,3.47,3.47,0,0,1,3.47-3.48m0-.84a4.32,4.32,0,1,0,4.32,4.32,4.32,4.32,0,0,0-4.32-4.32Z"/><circle class="cls-1" cx="57.92" cy="111.87" r="1.34"/><path class="cls-12" d="M34.87,118s-.21-5.25-5.25-5.25-5,5.25-5,5.25-.16,3.16,2.21,3.42-1.05,7.1,3.43,7.1S35.08,125.46,34.87,118Z"/><path class="cls-12" d="M27.54,118.09a2.23,2.23,0,0,1,2.27-2.27c2.27,0,3,1.64,3,4,0,1.26-1.86,1.29-1.77-.62-.21-.9-1.93-1-2,.22s.71,1.38.71,2.59-.47,1.37-.26,2.38,1.64,2.28,2.85.59"/><path class="cls-13" d="M23,119a3.89,3.89,0,0,0-1.56,2.85A3.53,3.53,0,0,0,23,124.59"/><path class="cls-14" d="M22.07,116.9s-2.78,1.94-2.78,5a6.23,6.23,0,0,0,2.78,4.81"/><path class="cls-15" d="M56.79,115.63v1.72a2.21,2.21,0,0,0,1.18,2c1.18.61,2.83,1.75,2.83,3.3,0,2.42-1.59,4.06-7.45,4.06s-7.44-1.64-7.44-4.06c0-1.55,1.65-2.69,2.83-3.3a2.21,2.21,0,0,0,1.18-2v-1.72a2.22,2.22,0,0,1,2.22-2.23h2.42A2.23,2.23,0,0,1,56.79,115.63Z"/><ellipse class="cls-16" cx="50.85" cy="124.55" rx="1.84" ry="0.64"/><ellipse class="cls-16" cx="56.09" cy="124.55" rx="1.84" ry="0.64"/><path class="cls-17" d="M44.46,120.64c0-.39,0-2,1.51-2a1.49,1.49,0,0,1,1.51,1.52s0,8.53,0,9.92a1.72,1.72,0,0,1-.86,1.5,1.24,1.24,0,0,0-.55,1.05v4.23a1.25,1.25,0,0,1-1.24,1.24H38.13a1.25,1.25,0,0,1-1.24-1.24V133a1.25,1.25,0,0,0-.71-1.12,2.78,2.78,0,0,1-.89-.66L31.72,127a1.72,1.72,0,0,1,.18-2.37c1.2-1.11,2.54.29,2.54.29l1,1.22v-10a1.51,1.51,0,0,1,3,0V123"/><path class="cls-18" d="M41.43,124v-8.29s.28-2.23-1.51-2.23-1.51,2.23-1.51,2.23V124"/><path class="cls-18" d="M41.43,124v-8.45a1.64,1.64,0,0,1,1.52-1,1.45,1.45,0,0,1,1.5,1.38v9.4"/><rect class="cls-19" x="20.96" y="161.34" width="4.25" height="16.52" rx="1.83" ry="1.83"/><rect class="cls-19" x="25.22" y="164.19" width="4.25" height="10.68" rx="1.83" ry="1.83"/><rect class="cls-19" x="41.06" y="161.34" width="4.25" height="16.52" rx="1.83" ry="1.83" transform="translate(86.37 339.19) rotate(180)"/><rect class="cls-19" x="36.81" y="164.33" width="4.25" height="10.68" rx="1.83" ry="1.83" transform="translate(77.87 339.34) rotate(-180)"/><line class="cls-20" x1="29.05" y1="169.52" x2="36.39" y2="169.52"/><circle class="cls-21" cx="49.02" cy="183.28" r="11.28"/><line class="cls-22" x1="49.02" y1="183.28" x2="49.02" y2="176.5"/><line class="cls-22" x1="49.02" y1="183.28" x2="53.78" y2="183.28"/><circle class="cls-23" cx="41.5" cy="244.88" r="15.65"/><circle class="cls-24" cx="41.5" cy="244.64" r="11.33"/><polyline class="cls-25" points="41.5 233.32 41.5 244.64 49.51 236.64"/><polyline class="cls-25" points="41.5 255.97 41.5 244.64 33.49 252.65"/><polyline class="cls-25" points="52.83 244.64 41.5 244.64 49.51 252.65"/><polyline class="cls-25" points="30.18 244.64 41.5 244.64 33.49 236.64"/><circle class="cls-2" cx="74.63" cy="66.41" r="0.11"/></g></g></svg>