<svg xmlns="http://www.w3.org/2000/svg" viewBox="0 0 50.56 50.56"><defs><style>.cls-1{fill:#ffde00;}.cls-2{fill:none;stroke:#b79d04;stroke-miterlimit:10;stroke-width:4.23px;}.cls-3{fill:#fff;}</style></defs><title>Astra_coin_1</title><g id="Capa_2" data-name="Capa 2"><g id="Capa_1-2" data-name="Capa 1"><circle class="cls-1" cx="25.28" cy="25.28" r="25.28"/><circle class="cls-2" cx="25.28" cy="24.89" r="18.29"/><path class="cls-3" d="M30,31.59l-.92-2.42H21.23l-.92,2.47a8.91,8.91,0,0,1-.92,2,1.47,1.47,0,0,1-1.25.51,1.84,1.84,0,0,1-1.31-.54,1.65,1.65,0,0,1-.57-1.23,2.65,2.65,0,0,1,.14-.81c.08-.29.23-.68.43-1.18L21.77,17.8l.51-1.3a7.38,7.38,0,0,1,.63-1.26,2.67,2.67,0,0,1,.89-.81,2.75,2.75,0,0,1,1.35-.31,2.79,2.79,0,0,1,1.36.31,2.75,2.75,0,0,1,.89.8A5.87,5.87,0,0,1,28,16.28c.16.37.35.87.59,1.5L33.6,30.25a6.39,6.39,0,0,1,.59,2.07,1.67,1.67,0,0,1-.56,1.23,1.84,1.84,0,0,1-1.35.56,1.88,1.88,0,0,1-.79-.16,1.73,1.73,0,0,1-.55-.45,4.54,4.54,0,0,1-.49-.87C30.28,32.24,30.14,31.89,30,31.59Zm-7.75-5.36H28l-2.92-8Z"/></g></g></svg>