<svg xmlns="http://www.w3.org/2000/svg" viewBox="0 0 129.39 130.34"><defs><style>.cls-1{fill:#00070f;}.cls-2{fill:#fff;}.cls-3{fill:#a239d3;}.cls-4{fill:#4f1f6b;}</style></defs><title>ractastra</title><g id="Capa_2" data-name="Capa 2"><g id="Capa_1-2" data-name="Capa 1"><circle class="cls-1" cx="64.7" cy="65.65" r="64.7"/><circle class="cls-2" cx="105.64" cy="111.09" r="0.75"/><circle class="cls-2" cx="113.74" cy="94.84" r="3.18"/><circle class="cls-2" cx="120.07" cy="68.74" r="0.17"/><circle class="cls-2" cx="123.08" cy="45.18" r="2.83"/><circle class="cls-2" cx="101.73" cy="102.06" r="0.84"/><circle class="cls-2" cx="12.89" cy="48.01" r="0.84"/><circle class="cls-2" cx="14.1" cy="65.65" r="0.84"/><circle class="cls-2" cx="12.89" cy="91.66" r="0.84"/><circle class="cls-2" cx="98.23" cy="24.09" r="0.84"/><circle class="cls-2" cx="63.05" cy="117.71" r="4.73"/><circle class="cls-2" cx="79.74" cy="118.03" r="0.32"/><circle class="cls-2" cx="87.21" cy="118.35" r="0.32"/><circle class="cls-2" cx="98.89" cy="118.66" r="0.32"/><circle class="cls-2" cx="19.46" cy="89.32" r="0.32"/><circle class="cls-2" cx="104.58" cy="106.76" r="0.32"/><circle class="cls-2" cx="50.05" cy="4.2" r="0.32"/><circle class="cls-2" cx="36.69" cy="3.88" r="0.32"/><circle class="cls-2" cx="87.52" cy="0.32" r="0.32"/><circle class="cls-2" cx="26.8" cy="29.59" r="0.32"/><circle class="cls-2" cx="7.28" cy="81.22" r="0.32"/><circle class="cls-2" cx="17.83" cy="78.92" r="0.32"/><circle class="cls-2" cx="6.96" cy="66.94" r="0.32"/><circle class="cls-2" cx="95.1" cy="109.36" r="0.98"/><path class="cls-3" d="M60.86,100.6h-22V102a2.33,2.33,0,0,0,2.33,2.33H58.53A2.33,2.33,0,0,0,60.86,102Z"/><path class="cls-4" d="M60.86,100.6h-22V102a2.33,2.33,0,0,0,2.33,2.33H58.53A2.33,2.33,0,0,0,60.86,102V100.6Z"/><rect class="cls-3" x="40.85" y="94.16" width="18.01" height="2.27"/><polygon class="cls-4" points="60.86 92.16 38.85 92.16 38.85 98.43 60.86 98.43 60.86 92.16 60.86 92.16"/><rect class="cls-3" x="40.85" y="81.49" width="18.01" height="6.49"/><path class="cls-4" d="M56.86,83.49V86h-14V83.49h14m4-4h-22V90h22V79.49Z"/><path class="cls-3" d="M87,102.3a9.76,9.76,0,0,1-8.65-5.43L62.65,66a2,2,0,0,0-1.79-1.1,1.82,1.82,0,0,0-.46.06,2,2,0,0,0-1.54,1.94v8.46h-18v-37c0-10.14,7.87-18.38,17.55-18.38a6.92,6.92,0,0,1,6.21,4L95.71,87.2a10.68,10.68,0,0,1-.51,10.43A9.57,9.57,0,0,1,87,102.3Z"/><path class="cls-4" d="M58.4,21.93a5,5,0,0,1,4.42,2.86l31.1,63.29a8.71,8.71,0,0,1-.42,8.49A7.59,7.59,0,0,1,87,100.3,7.75,7.75,0,0,1,80.11,96L64.43,65.06a4,4,0,0,0-3.57-2.2,4.29,4.29,0,0,0-.93.11,4,4,0,0,0-3.07,3.89v6.46h-14v-35c0-9,7-16.38,15.55-16.38m0-4c-10.81,0-19.55,9.12-19.55,20.38v39h22V66.86L76.54,97.79A11.77,11.77,0,0,0,87,104.3c8.86,0,14.58-9.76,10.54-18L66.41,23a9,9,0,0,0-8-5.1Z"/></g></g></svg>