<svg xmlns="http://www.w3.org/2000/svg" viewBox="0 0 6.35 9.61"><defs><style>.cls-1{fill:#fff;}</style></defs><title>ayuda_2</title><g id="Capa_2" data-name="Capa 2"><g id="Capa_3" data-name="Capa 3"><path class="cls-1" d="M0,2.65A2.28,2.28,0,0,1,.39,1.43a3,3,0,0,1,1.13-1A3.54,3.54,0,0,1,3.25,0,3.68,3.68,0,0,1,4.88.34,2.58,2.58,0,0,1,6,1.26a2.26,2.26,0,0,1,.39,1.27,1.93,1.93,0,0,1-.22,1,3.11,3.11,0,0,1-.52.7q-.3.3-1.08,1c-.15.14-.26.25-.35.35A1.23,1.23,0,0,0,4,5.79a1,1,0,0,0-.1.25c0,.08-.06.23-.11.44A.7.7,0,0,1,3,7.14a.8.8,0,0,1-.56-.22.84.84,0,0,1-.22-.64,2.23,2.23,0,0,1,.6-1.61A8.9,8.9,0,0,1,3.59,4c.27-.24.46-.42.58-.54A1.72,1.72,0,0,0,4.48,3a1,1,0,0,0,.12-.48,1.1,1.1,0,0,0-.38-.86,1.37,1.37,0,0,0-1-.35,1.36,1.36,0,0,0-1,.35,3,3,0,0,0-.56,1c-.14.48-.41.72-.82.72a.86.86,0,0,1-.6-.25A.78.78,0,0,1,0,2.65Zm3.1,7a1,1,0,0,1-.68-.25.89.89,0,0,1-.29-.7A.91.91,0,0,1,2.41,8a.94.94,0,0,1,.69-.28A.89.89,0,0,1,3.77,8,.9.9,0,0,1,4,8.66a.88.88,0,0,1-.28.7A1,1,0,0,1,3.1,9.61Z"/></g></g></svg>