<svg xmlns="http://www.w3.org/2000/svg" viewBox="0 0 8.9 7.68"><defs><style>.cls-1,.cls-2{fill:none;stroke:#fff;stroke-linecap:round;}.cls-1{stroke-linejoin:round;stroke-width:0.65px;}.cls-2{stroke-miterlimit:10;stroke-width:0.43px;}</style></defs><title>conversacione</title><g id="Capa_2" data-name="Capa 2"><g id="Capa_3" data-name="Capa 3"><path class="cls-1" d="M2.83,4.92V7a.39.39,0,0,0,.4.39H7.66A.39.39,0,0,0,8.06,7V5.19a.41.41,0,0,1,0-.16L8.57,3.4,6,4.49a.41.41,0,0,1-.19,0H3.23A.4.4,0,0,0,2.83,4.92Z"/><line class="cls-2" x1="6.89" y1="5.59" x2="4.15" y2="5.59"/><line class="cls-2" x1="6.89" y1="6.38" x2="4.15" y2="6.38"/><path class="cls-1" d="M6.07,2.75v-2A.4.4,0,0,0,5.66.33H1.24a.39.39,0,0,0-.4.39V2.49a.28.28,0,0,1,0,.15L.33,4.28,2.87,3.19a.38.38,0,0,1,.19,0h2.6A.4.4,0,0,0,6.07,2.75Z"/><line class="cls-2" x1="2.01" y1="2.09" x2="4.75" y2="2.09"/><line class="cls-2" x1="2.01" y1="1.3" x2="4.75" y2="1.3"/></g></g></svg>