<svg xmlns="http://www.w3.org/2000/svg" viewBox="0 0 8.17 11.5"><defs><style>.cls-1{fill:#51bc3f;stroke:#3a7f2b;}.cls-1,.cls-2,.cls-3,.cls-4{stroke-miterlimit:10;}.cls-1,.cls-2{stroke-width:0.88px;}.cls-2{fill:#e5cb83;stroke:#af9a66;}.cls-3{fill:#444;}.cls-3,.cls-4{stroke:#cecece;stroke-width:0.71px;}.cls-4{fill:#373c44;stroke-linecap:round;}</style></defs><title>interfaz_1</title><g id="Capa_2" data-name="Capa 2"><g id="Capa_3" data-name="Capa 3"><path class="cls-1" d="M5.37,11A.68.68,0,0,0,6,10.3c0-1.43-.35-4.6-2.8-4.6S.46,8.87.44,10.3a.67.67,0,0,0,.67.68Z"/><circle class="cls-2" cx="3.24" cy="2.42" r="1.98"/><circle class="cls-3" cx="6.21" cy="9.54" r="1.02"/><line class="cls-4" x1="6.21" y1="7.93" x2="6.21" y2="8.51"/><line class="cls-4" x1="6.21" y1="10.56" x2="6.21" y2="11.14"/><line class="cls-4" x1="5.19" y1="9.54" x2="4.61" y2="9.54"/><line class="cls-4" x1="7.81" y1="9.54" x2="7.23" y2="9.54"/><line class="cls-4" x1="7.35" y1="10.67" x2="6.94" y2="10.26"/><line class="cls-4" x1="5.49" y1="8.81" x2="5.08" y2="8.4"/><line class="cls-4" x1="5.08" y1="10.67" x2="5.49" y2="10.26"/><line class="cls-4" x1="6.94" y1="8.81" x2="7.35" y2="8.4"/></g></g></svg>