<svg xmlns="http://www.w3.org/2000/svg" viewBox="0 0 44.34 44.34"><defs><style>.cls-1,.cls-3,.cls-4{fill:#020e18;}.cls-2{fill:#fff;}.cls-3{stroke:#a239d3;}.cls-3,.cls-4{stroke-miterlimit:10;stroke-width:0.45px;}.cls-4,.cls-6{stroke:#fff;}.cls-5{fill:#1fc93b;}.cls-6{fill:none;stroke-linecap:round;stroke-linejoin:round;stroke-width:0.33px;}</style></defs><title>ractejercicios</title><g id="Capa_2" data-name="Capa 2"><g id="Capa_1-2" data-name="Capa 1"><circle class="cls-1" cx="22.17" cy="22.17" r="22.17"/><circle class="cls-2" cx="36.2" cy="37.75" r="0.26"/><circle class="cls-2" cx="38.98" cy="32.18" r="1.09"/><circle class="cls-2" cx="41.15" cy="23.23" r="0.06"/><circle class="cls-2" cx="42.18" cy="15.16" r="0.97"/><circle class="cls-2" cx="34.86" cy="34.65" r="0.29"/><circle class="cls-2" cx="4.42" cy="16.13" r="0.29"/><circle class="cls-2" cx="4.83" cy="22.17" r="0.29"/><circle class="cls-2" cx="4.42" cy="31.09" r="0.29"/><circle class="cls-2" cx="33.66" cy="7.93" r="0.29"/><circle class="cls-2" cx="21.61" cy="40.01" r="1.62"/><circle class="cls-2" cx="27.33" cy="40.12" r="0.11"/><circle class="cls-2" cx="29.89" cy="40.23" r="0.11"/><circle class="cls-2" cx="33.89" cy="40.34" r="0.11"/><circle class="cls-2" cx="6.67" cy="30.28" r="0.11"/><circle class="cls-2" cx="35.84" cy="36.26" r="0.11"/><circle class="cls-2" cx="17.15" cy="1.11" r="0.11"/><circle class="cls-2" cx="9.18" cy="9.82" r="0.11"/><circle class="cls-2" cx="2.49" cy="27.51" r="0.11"/><circle class="cls-2" cx="6.11" cy="26.72" r="0.11"/><circle class="cls-2" cx="2.39" cy="22.62" r="0.11"/><circle class="cls-2" cx="32.59" cy="37.15" r="0.34"/><circle class="cls-2" cx="37.55" cy="22.19" r="0.38"/><circle class="cls-2" cx="34.59" cy="22.73" r="0.16"/><circle class="cls-2" cx="35.17" cy="25.33" r="0.49"/><circle class="cls-2" cx="18.14" cy="23.42" r="0.38"/><circle class="cls-2" cx="11.95" cy="20.59" r="0.16"/><circle class="cls-2" cx="25.97" cy="21.76" r="0.16"/><circle class="cls-2" cx="8.68" cy="22.19" r="0.38"/><circle class="cls-2" cx="11.09" cy="24.17" r="0.38"/><circle class="cls-2" cx="24.36" cy="24.55" r="0.16"/><circle class="cls-2" cx="16.47" cy="25.82" r="0.16"/><rect class="cls-3" x="5.47" y="20.96" width="7.3" height="7.3" rx="3.15" ry="3.15"/><rect class="cls-4" x="14.23" y="20.96" width="7.3" height="7.3" rx="3.15" ry="3.15"/><rect class="cls-4" x="22.97" y="20.96" width="7.3" height="7.3" rx="3.15" ry="3.15"/><rect class="cls-4" x="31.74" y="20.96" width="7.3" height="7.3" rx="3.15" ry="3.15"/><circle class="cls-5" cx="12.17" cy="21.4" r="1.3"/><rect class="cls-4" x="8.62" y="16.72" width="25.93" height="1.59" rx="0.79" ry="0.79"/><polyline class="cls-6" points="11.49 21.5 11.85 21.9 12.75 20.89"/><rect class="cls-5" x="8.82" y="16.94" width="10.34" height="1.14" rx="0.57" ry="0.57"/></g></g></svg>