<svg xmlns="http://www.w3.org/2000/svg" viewBox="0 0 704.5 311.71"><defs><style>.cls-1{fill:#00070f;}.cls-2{fill:#fff;}</style></defs><title>fondo_principal</title><g id="Capa_2" data-name="Capa 2"><g id="Capa_1-2" data-name="Capa 1"><rect class="cls-1" width="704.5" height="311.71"/><circle class="cls-2" cx="95.74" cy="146.11" r="3.53"/><circle class="cls-2" cx="155.02" cy="212.09" r="7.01"/><circle class="cls-2" cx="149.8" cy="291.75" r="4.15"/><circle class="cls-2" cx="20.32" cy="268.09" r="3.59"/><circle class="cls-2" cx="18.53" cy="81.29" r="5.48"/><circle class="cls-2" cx="212.63" cy="84.22" r="3.01"/><circle class="cls-2" cx="426.48" cy="99" r="3.01"/><circle class="cls-2" cx="272.54" cy="93.28" r="3.57"/><circle class="cls-2" cx="496.64" cy="122.98" r="9.42"/><circle class="cls-2" cx="690.27" cy="237.5" r="7.35"/><circle class="cls-2" cx="460.2" cy="255.86" r="4"/><circle class="cls-2" cx="636.43" cy="147.5" r="13.93"/><circle class="cls-2" cx="585.61" cy="276.08" r="13.93"/><circle class="cls-2" cx="251.81" cy="271.69" r="1.45"/><circle class="cls-2" cx="165.12" cy="103.27" r="1.45"/><circle class="cls-2" cx="68.79" cy="213.48" r="1.45"/><circle class="cls-2" cx="369.23" cy="133.57" r="1.45"/><circle class="cls-2" cx="584.16" cy="171.49" r="1.45"/><circle class="cls-2" cx="621.05" cy="244.85" r="1.45"/><circle class="cls-2" cx="414.78" cy="181.59" r="1.45"/><circle class="cls-2" cx="668.04" cy="81.29" r="1.45"/><circle class="cls-2" cx="185.61" cy="253.43" r="12.43"/><circle class="cls-2" cx="530.6" cy="246.3" r="1.44"/><circle class="cls-2" cx="348.61" cy="59.82" r="3.85"/><circle class="cls-2" cx="386.46" cy="193.59" r="3.85"/><circle class="cls-2" cx="314.87" cy="274.61" r="1.47"/><circle class="cls-2" cx="350.08" cy="250.54" r="5.32"/><circle class="cls-2" cx="395.98" cy="289.67" r="2.08"/><circle class="cls-2" cx="18.53" cy="159.13" r="1.8"/><circle class="cls-2" cx="53.62" cy="109.95" r="2.89"/><circle class="cls-2" cx="108.15" cy="84.17" r="2.88"/><circle class="cls-2" cx="214.51" cy="45.73" r="4.89"/><circle class="cls-2" cx="461.2" cy="54.96" r="1"/><circle class="cls-2" cx="201.37" cy="161.42" r="1"/><circle class="cls-2" cx="122.52" cy="139.04" r="1"/><circle class="cls-2" cx="67.34" cy="40.84" r="1"/><circle class="cls-2" cx="50.73" cy="164.02" r="1"/><circle class="cls-2" cx="16.73" cy="214.47" r="1"/><circle class="cls-2" cx="99.27" cy="259.86" r="1"/><circle class="cls-2" cx="278.12" cy="55.97" r="1"/><circle class="cls-2" cx="570.23" cy="120.66" r="1"/><circle class="cls-2" cx="626.73" cy="56.97" r="1"/><circle class="cls-2" cx="140.73" cy="227.31" r="1"/><circle class="cls-2" cx="276.11" cy="230.15" r="1"/><circle class="cls-2" cx="67.34" cy="289.67" r="1"/><circle class="cls-2" cx="498.93" cy="68.06" r="2.29"/><circle class="cls-2" cx="564.84" cy="69.2" r="1.14"/></g></g></svg>