<svg xmlns="http://www.w3.org/2000/svg" viewBox="0 0 151.16 208.98"><defs><style>.cls-1{fill:#239ac4;}.cls-2{fill:#626f7a;}.cls-3,.cls-4{fill:#fff;}.cls-3{stroke:#626f7a;stroke-miterlimit:10;stroke-width:5px;}.cls-5{fill:#fe3e00;}.cls-6{fill:#fdd734;}.cls-7{fill:#424b51;}.cls-8{fill:#a0b6c1;}</style></defs><title>nave_espacial</title><g id="Capa_2" data-name="Capa 2"><g id="Capa_1-2" data-name="Capa 1"><path class="cls-1" d="M146.54,68.76,89.73,144.59a14.75,14.75,0,0,1-19.79,3.56L38.26,127.74a14.74,14.74,0,0,1-5-19.33L77.88,24.54c4-6.17,10.32-10.65,18.28-12.9L136.33.27a6.46,6.46,0,0,1,8.13,5.24l6.26,41.27C152,55,150.51,62.59,146.54,68.76Z"/><path class="cls-2" d="M62.14,110.66c-8.8,3.59-22.38,12.43-37.85,34.14a8.74,8.74,0,0,0,2.41,12.4l11.4,7.34,8.82,5.69a8.77,8.77,0,0,0,12.39-3.1c6-10.71,15.45-30.52,14.87-48.7A8.73,8.73,0,0,0,62.14,110.66Z"/><circle class="cls-3" cx="111.86" cy="47.19" r="16.83"/><circle class="cls-3" cx="89.23" cy="82.32" r="12"/><path class="cls-4" d="M107.39,121s15.14,24.1,10.68,42.55-10.75-9.26-29-18.16Z"/><path class="cls-4" d="M47.27,82.05S19,78.6,4.21,90.49,17.16,96.29,33,109Z"/><path class="cls-5" d="M27,202.08s-1.52-1.24-1.48-4.51-1.74-5.08-5.18-1.55-6.51,6.31-5,13c-5.07-2.75-4.6-9.67-4.47-10.48A34.48,34.48,0,0,1,14,191.91c1.46-2.46-1.52-3-3.75-2s-3.18,5-3.18,5-1.67-3.61-.68-6.15,5.5-8.53,5.5-8.53-1.86-5.12,3.1-12,14.07-6.31,19-3.16,12.74,8.56,7.58,20.77a20.81,20.81,0,0,1-8.35,8.36C31.75,195.17,29.21,195.91,27,202.08Z"/><path class="cls-6" d="M21.3,189.05a5.4,5.4,0,0,1,2.36-6.21c3.68-2.27,5.86-3.72,3.17-6.15s-3.63.54-4.3,2.19c-1.38-.85-2.28-6.36.85-9.27s6.38-4.49,9.94-1.62,4.67,5.64,1.39,11.64c-3.66,4.78-10.5,5.2-11.79,6.89A13.08,13.08,0,0,0,21.3,189.05Z"/><path class="cls-4" d="M120.13,4.86,137,.21a5.77,5.77,0,0,1,7.24,4.66L147,22.16Z"/><polygon class="cls-7" points="24.29 144.8 59.21 167.29 61.8 162.52 27.5 140.44 24.29 144.8"/><path class="cls-7" d="M22.71,149.25,55.8,170.57a8.51,8.51,0,0,1-8.88-.34L25.75,156.59S22.23,153.26,22.71,149.25Z"/><polygon class="cls-2" points="120.13 4.86 146.99 22.16 149.88 41.19 101.6 10.1 120.13 4.86"/><polygon class="cls-2" points="48.22 80.29 108.72 119.26 103.34 126.44 44 88.21 48.22 80.29"/><circle class="cls-8" cx="120.98" cy="33.04" r="1.04"/><circle class="cls-8" cx="102.75" cy="61.34" r="1.04"/><circle class="cls-8" cx="95.73" cy="72.23" r="1.04"/><circle class="cls-8" cx="82.74" cy="92.41" r="1.04"/><circle class="cls-8" cx="99.32" cy="88.82" r="1.04"/><circle class="cls-8" cx="79.15" cy="75.82" r="1.04"/><circle class="cls-8" cx="91.77" cy="94.05" r="1.04"/><circle class="cls-8" cx="86.7" cy="70.59" r="1.04"/><circle class="cls-8" cx="77.51" cy="84.86" r="1.04"/><circle class="cls-8" cx="100.96" cy="79.78" r="1.04"/><circle class="cls-8" cx="126.01" cy="56.31" r="1.04"/><circle class="cls-8" cx="97.71" cy="38.08" r="1.04"/><circle class="cls-8" cx="115.42" cy="63.64" r="1.04"/><circle class="cls-8" cx="108.3" cy="30.74" r="1.04"/><circle class="cls-8" cx="95.41" cy="50.75" r="1.04"/><circle class="cls-8" cx="128.31" cy="43.63" r="1.04"/></g></g></svg>