<svg xmlns="http://www.w3.org/2000/svg" viewBox="0 0 44.34 44.34"><defs><style>.cls-1{fill:#020e18;}.cls-2,.cls-5{fill:#fff;}.cls-3{fill:#a5a5a5;}.cls-3,.cls-4{stroke:#727272;stroke-width:1.33px;}.cls-3,.cls-4,.cls-5{stroke-miterlimit:10;}.cls-4,.cls-6{fill:none;}.cls-5{stroke:#a239d3;stroke-width:1.17px;}.cls-6{stroke:#020e18;stroke-linecap:round;stroke-linejoin:round;stroke-width:1.61px;}</style></defs><title>ractparacticas</title><g id="Capa_2" data-name="Capa 2"><g id="Capa_1-2" data-name="Capa 1"><circle class="cls-1" cx="22.17" cy="22.17" r="22.17"/><circle class="cls-2" cx="36.2" cy="37.75" r="0.26"/><circle class="cls-2" cx="38.98" cy="32.18" r="1.09"/><circle class="cls-2" cx="41.15" cy="23.23" r="0.06"/><circle class="cls-2" cx="42.18" cy="15.16" r="0.97"/><circle class="cls-2" cx="34.86" cy="34.65" r="0.29"/><circle class="cls-2" cx="4.42" cy="16.13" r="0.29"/><circle class="cls-2" cx="4.83" cy="22.17" r="0.29"/><circle class="cls-2" cx="4.42" cy="31.09" r="0.29"/><circle class="cls-2" cx="33.66" cy="7.93" r="0.29"/><circle class="cls-2" cx="21.61" cy="40.01" r="1.62"/><circle class="cls-2" cx="27.33" cy="40.12" r="0.11"/><circle class="cls-2" cx="29.89" cy="40.23" r="0.11"/><circle class="cls-2" cx="33.89" cy="40.34" r="0.11"/><circle class="cls-2" cx="6.67" cy="30.28" r="0.11"/><circle class="cls-2" cx="35.84" cy="36.26" r="0.11"/><circle class="cls-2" cx="17.15" cy="1.11" r="0.11"/><circle class="cls-2" cx="9.18" cy="9.82" r="0.11"/><circle class="cls-2" cx="2.49" cy="27.51" r="0.11"/><circle class="cls-2" cx="6.11" cy="26.72" r="0.11"/><circle class="cls-2" cx="2.39" cy="22.62" r="0.11"/><circle class="cls-2" cx="32.59" cy="37.15" r="0.34"/><circle class="cls-2" cx="9.6" cy="19.58" r="0.57"/><circle class="cls-2" cx="12.8" cy="14.25" r="2.43"/><circle class="cls-2" cx="27.57" cy="20.72" r="0.57"/><circle class="cls-2" cx="24.62" cy="14.82" r="0.24"/><rect class="cls-3" x="8.04" y="9.17" width="3.25" height="12.64" rx="1.63" ry="1.63"/><rect class="cls-3" x="11.29" y="11.35" width="3.25" height="8.17" rx="1.63" ry="1.63"/><rect class="cls-3" x="23.42" y="9.17" width="3.25" height="12.64" rx="1.63" ry="1.63" transform="translate(50.09 30.99) rotate(180)"/><rect class="cls-3" x="20.16" y="11.46" width="3.25" height="8.17" rx="1.63" ry="1.63" transform="translate(43.58 31.1) rotate(-180)"/><line class="cls-4" x1="14.22" y1="15.44" x2="19.84" y2="15.44"/><circle class="cls-5" cx="29.51" cy="25.96" r="8.64"/><line class="cls-6" x1="29.51" y1="25.96" x2="29.51" y2="20.78"/><line class="cls-6" x1="29.51" y1="25.96" x2="33.15" y2="25.96"/></g></g></svg>