<svg xmlns="http://www.w3.org/2000/svg" viewBox="0 0 13.83 20.39"><defs><style>.cls-1{fill:#fe3e00;}.cls-2{fill:#fdd734;}</style></defs><title>racha</title><g id="Capa_2" data-name="Capa 2"><g id="Capa_1-2" data-name="Capa 1"><path class="cls-1" d="M1.47,5.26a2.45,2.45,0,0,1,1.6,1.29C3.82,7.76,4.9,8,5.32,5.91S6.21,2.08,4.1,0C6.59-.18,8,2.45,8.18,2.78A14.19,14.19,0,0,1,8.61,5.9c0,1.25,1.26.76,1.83-.15a3.72,3.72,0,0,0,0-2.55,4.13,4.13,0,0,1,1.69,2.08,27,27,0,0,1,0,4.4s1.88,1.43,1.69,5.11-3.65,5.6-6.17,5.6S1,20.26,0,14.6a9,9,0,0,1,1.08-5C1.38,8.88,2.13,8,1.47,5.26Z"/><path class="cls-2" d="M6.62,8.66a2.34,2.34,0,0,1,.6,2.82c-.81,1.69-1.26,2.73.28,3s1.2-1.05,1.06-1.8c.7,0,2.32,1.78,1.87,3.57s-1.28,3.14-3.25,2.93-3-1-3.23-3.92c.21-2.6,2.6-4.36,2.67-5.28A5.85,5.85,0,0,0,6.62,8.66Z"/></g></g></svg>