<svg xmlns="http://www.w3.org/2000/svg" viewBox="0 0 44.34 44.34"><defs><style>.cls-1{fill:#020e18;}.cls-2,.cls-5{fill:#fff;}.cls-3{fill:#b21957;}.cls-3,.cls-4{stroke:#771240;}.cls-10,.cls-14,.cls-3,.cls-4,.cls-8,.cls-9{stroke-linecap:round;stroke-linejoin:round;}.cls-3,.cls-4,.cls-5{stroke-width:0.51px;}.cls-10,.cls-4,.cls-9{fill:none;}.cls-5{stroke:#c9c9c9;}.cls-11,.cls-13,.cls-5{stroke-miterlimit:10;}.cls-6{fill:#239ac4;}.cls-7{fill:#1c768e;}.cls-11,.cls-13,.cls-14,.cls-8{fill:#e2c481;stroke:#b59b69;}.cls-8{stroke-width:0.42px;}.cls-10,.cls-9{stroke:#fff;}.cls-9{stroke-width:0.46px;}.cls-10{stroke-width:0.44px;}.cls-11{stroke-width:0.67px;}.cls-12{fill:#b59b69;}.cls-13,.cls-14{stroke-width:0.45px;}</style></defs><title>ractsentidos</title><g id="Capa_2" data-name="Capa 2"><g id="Capa_1-2" data-name="Capa 1"><circle class="cls-1" cx="22.17" cy="22.17" r="22.17"/><circle class="cls-2" cx="36.2" cy="37.75" r="0.26"/><circle class="cls-2" cx="38.98" cy="32.18" r="1.09"/><circle class="cls-2" cx="41.15" cy="23.23" r="0.06"/><circle class="cls-2" cx="42.18" cy="15.16" r="0.97"/><circle class="cls-2" cx="34.86" cy="34.65" r="0.29"/><circle class="cls-2" cx="4.42" cy="16.13" r="0.29"/><circle class="cls-2" cx="4.83" cy="22.17" r="0.29"/><circle class="cls-2" cx="4.42" cy="31.09" r="0.29"/><circle class="cls-2" cx="33.66" cy="7.93" r="0.29"/><circle class="cls-2" cx="21.61" cy="40.01" r="1.62"/><circle class="cls-2" cx="27.33" cy="40.12" r="0.11"/><circle class="cls-2" cx="29.89" cy="40.23" r="0.11"/><circle class="cls-2" cx="33.89" cy="40.34" r="0.11"/><circle class="cls-2" cx="6.67" cy="30.28" r="0.11"/><circle class="cls-2" cx="35.84" cy="36.26" r="0.11"/><circle class="cls-2" cx="17.15" cy="1.11" r="0.11"/><circle class="cls-2" cx="9.18" cy="9.82" r="0.11"/><circle class="cls-2" cx="2.49" cy="27.51" r="0.11"/><circle class="cls-2" cx="6.11" cy="26.72" r="0.11"/><circle class="cls-2" cx="2.39" cy="22.62" r="0.11"/><circle class="cls-2" cx="32.59" cy="37.15" r="0.34"/><circle class="cls-2" cx="17.16" cy="23.99" r="0.46"/><circle class="cls-2" cx="15.32" cy="18.1" r="0.19"/><circle class="cls-2" cx="26.69" cy="21.97" r="0.19"/><circle class="cls-2" cx="26.3" cy="16.9" r="0.19"/><circle class="cls-2" cx="21.11" cy="19.15" r="0.6"/><circle class="cls-2" cx="21.71" cy="29.73" r="0.46"/><circle class="cls-2" cx="24.73" cy="25.32" r="0.19"/><circle class="cls-2" cx="30.23" cy="20.96" r="0.55"/><path class="cls-3" d="M11,13.67s2.51,4.7-.13,6.31A1.4,1.4,0,0,1,9.4,20c-2.63-1.61-.12-6.31-.12-6.31"/><path class="cls-4" d="M10.18,15.52l-.07.65a7.52,7.52,0,0,0,0,1.5l.08.9"/><path class="cls-5" d="M25.94,16a.64.64,0,0,0,0,1A8.39,8.39,0,0,0,32,19.3a9.15,9.15,0,0,0,6.36-2.41.64.64,0,0,0,0-1,8.39,8.39,0,0,0-6.13-2.38A9.16,9.16,0,0,0,25.94,16Z"/><path class="cls-6" d="M32.17,18.8a2.38,2.38,0,1,1,2.38-2.38A2.39,2.39,0,0,1,32.17,18.8Z"/><path class="cls-7" d="M32.17,14.3a2.12,2.12,0,1,1-2.12,2.12,2.12,2.12,0,0,1,2.12-2.12m0-.51a2.64,2.64,0,1,0,2.64,2.63,2.63,2.63,0,0,0-2.64-2.63Z"/><circle class="cls-1" cx="32.17" cy="16.44" r="0.82"/><path class="cls-8" d="M18.1,20.2S18,17,14.9,17s-3,3.2-3,3.2-.1,1.93,1.35,2.09-.64,4.33,2.09,4.33S18.23,24.74,18.1,20.2Z"/><path class="cls-8" d="M13.63,20.24A1.37,1.37,0,0,1,15,18.85c1.38,0,1.83,1,1.83,2.45,0,.78-1.14.79-1.08-.37-.13-.55-1.18-.64-1.23.13s.44.85.44,1.59-.29.83-.16,1.45,1,1.39,1.74.36"/><path class="cls-9" d="M10.85,20.8a2.38,2.38,0,0,0-.95,1.74,2.17,2.17,0,0,0,.95,1.67"/><path class="cls-10" d="M10.29,19.51a4.16,4.16,0,0,0-1.7,3.06,3.8,3.8,0,0,0,1.7,2.93"/><path class="cls-11" d="M31.48,18.74v1.05A1.34,1.34,0,0,0,32.2,21c.72.37,1.73,1.06,1.73,2,0,1.48-1,2.48-4.55,2.48s-4.54-1-4.54-2.48c0-.95,1-1.64,1.73-2a1.36,1.36,0,0,0,.72-1.2V18.74a1.35,1.35,0,0,1,1.35-1.36h1.48A1.36,1.36,0,0,1,31.48,18.74Z"/><ellipse class="cls-12" cx="27.86" cy="24.18" rx="1.12" ry="0.39"/><ellipse class="cls-12" cx="31.05" cy="24.18" rx="1.12" ry="0.39"/><path class="cls-13" d="M24,21.79c0-.24,0-1.18.93-1.18a.9.9,0,0,1,.92.92s0,5.21,0,6a1,1,0,0,1-.53.92.78.78,0,0,0-.34.64v2.58a.75.75,0,0,1-.75.76H20.09a.76.76,0,0,1-.75-.76V29.33a.76.76,0,0,0-.44-.69,1.52,1.52,0,0,1-.54-.4l-2.18-2.55a1,1,0,0,1,.11-1.44c.73-.68,1.55.18,1.55.18l.58.74V19.08a.92.92,0,1,1,1.84,0v4.14"/><path class="cls-14" d="M22.11,23.86V18.81s.17-1.37-.92-1.37-.93,1.37-.93,1.37v5.05"/><path class="cls-14" d="M22.11,23.86V18.71a1,1,0,0,1,.92-.59A.88.88,0,0,1,24,19v5.73"/></g></g></svg>